<?xml version="1.0" encoding="UTF-8" standalone="no"?>
<!DOCTYPE svg PUBLIC "-//W3C//DTD SVG 1.1//EN"
 "http://www.w3.org/Graphics/SVG/1.1/DTD/svg11.dtd">
<!-- Generated by graphviz version 8.0.5 (20230430.1635)
 -->
<!-- Pages: 1 -->
<svg width="618pt" height="332pt"
 viewBox="0.00 0.00 618.49 332.00" xmlns="http://www.w3.org/2000/svg" xmlns:xlink="http://www.w3.org/1999/xlink">
<g id="graph0" class="graph" transform="scale(1 1) rotate(0) translate(4 328)">
<polygon fill="white" stroke="none" points="-4,4 -4,-328 614.49,-328 614.49,4 -4,4"/>
<!-- Shape Air -->
<g id="node1" class="node">
<title>Shape Air</title>
<ellipse fill="none" stroke="black" cx="358.49" cy="-162" rx="47.77" ry="18"/>
<text text-anchor="middle" x="358.49" y="-156.95" font-family="Times,serif" font-size="14.00">Shape Air</text>
</g>
<!-- Air Jet -->
<g id="node2" class="node">
<title>Air Jet</title>
<ellipse fill="none" stroke="black" cx="297.49" cy="-90" rx="36" ry="18"/>
<text text-anchor="middle" x="297.49" y="-84.95" font-family="Times,serif" font-size="14.00">Air Jet</text>
</g>
<!-- Shape Air&#45;&gt;Air Jet -->
<g id="edge1" class="edge">
<title>Shape Air&#45;&gt;Air Jet</title>
<path fill="none" stroke="black" d="M344.04,-144.41C336.41,-135.66 326.9,-124.75 318.48,-115.08"/>
<polygon fill="black" stroke="black" points="320.63,-113.23 311.43,-107.99 315.36,-117.83 320.63,-113.23"/>
</g>
<!-- Concussion -->
<g id="node3" class="node">
<title>Concussion</title>
<ellipse fill="none" stroke="black" cx="57.49" cy="-90" rx="53.91" ry="18"/>
<text text-anchor="middle" x="57.49" y="-84.95" font-family="Times,serif" font-size="14.00">Concussion</text>
</g>
<!-- Shape Air&#45;&gt;Concussion -->
<g id="edge2" class="edge">
<title>Shape Air&#45;&gt;Concussion</title>
<path fill="none" stroke="black" d="M322.43,-149.9C315.19,-147.82 307.63,-145.75 300.49,-144 221.27,-124.51 199.92,-126.64 120.49,-108 116.45,-107.05 112.28,-106.03 108.09,-104.97"/>
<polygon fill="black" stroke="black" points="109.28,-101.4 98.72,-102.28 107.53,-108.18 109.28,-101.4"/>
</g>
<!-- Walk on Air -->
<g id="node4" class="node">
<title>Walk on Air</title>
<ellipse fill="none" stroke="black" cx="407.49" cy="-90" rx="56.47" ry="18"/>
<text text-anchor="middle" x="407.49" y="-84.95" font-family="Times,serif" font-size="14.00">Walk on Air</text>
</g>
<!-- Shape Air&#45;&gt;Walk on Air -->
<g id="edge3" class="edge">
<title>Shape Air&#45;&gt;Walk on Air</title>
<path fill="none" stroke="black" d="M370.11,-144.41C375.88,-136.16 382.99,-126.01 389.45,-116.78"/>
<polygon fill="black" stroke="black" points="392.76,-119.16 395.62,-108.96 387.02,-115.14 392.76,-119.16"/>
</g>
<!-- Windstorm -->
<g id="node5" class="node">
<title>Windstorm</title>
<ellipse fill="none" stroke="black" cx="534.49" cy="-90" rx="52.89" ry="18"/>
<text text-anchor="middle" x="534.49" y="-84.95" font-family="Times,serif" font-size="14.00">Windstorm</text>
</g>
<!-- Shape Air&#45;&gt;Windstorm -->
<g id="edge4" class="edge">
<title>Shape Air&#45;&gt;Windstorm</title>
<path fill="none" stroke="black" d="M390.37,-148.32C418.49,-137.14 459.74,-120.73 490.91,-108.33"/>
<polygon fill="black" stroke="black" points="492.06,-111.24 500.06,-104.3 489.48,-104.74 492.06,-111.24"/>
</g>
<!-- Sandstorm -->
<g id="node15" class="node">
<title>Sandstorm</title>
<ellipse fill="none" stroke="black" cx="360.49" cy="-18" rx="50.84" ry="18"/>
<text text-anchor="middle" x="360.49" y="-12.95" font-family="Times,serif" font-size="14.00">Sandstorm</text>
</g>
<!-- Windstorm&#45;&gt;Sandstorm -->
<g id="edge14" class="edge">
<title>Windstorm&#45;&gt;Sandstorm</title>
<path fill="none" stroke="black" d="M501.36,-75.67C473.45,-64.44 433.36,-48.31 403.07,-36.13"/>
<polygon fill="black" stroke="black" points="404.8,-32.65 394.21,-32.16 402.18,-39.14 404.8,-32.65"/>
</g>
<!-- Thunderclap -->
<g id="node6" class="node">
<title>Thunderclap</title>
<ellipse fill="none" stroke="black" cx="57.49" cy="-162" rx="57.49" ry="18"/>
<text text-anchor="middle" x="57.49" y="-156.95" font-family="Times,serif" font-size="14.00">Thunderclap</text>
</g>
<!-- Thunderclap&#45;&gt;Concussion -->
<g id="edge5" class="edge">
<title>Thunderclap&#45;&gt;Concussion</title>
<path fill="none" stroke="black" d="M57.49,-143.7C57.49,-136.24 57.49,-127.32 57.49,-118.97"/>
<polygon fill="black" stroke="black" points="60.99,-119.1 57.49,-109.1 53.99,-119.1 60.99,-119.1"/>
</g>
<!-- Purify Air -->
<g id="node7" class="node">
<title>Purify Air</title>
<ellipse fill="none" stroke="black" cx="473.49" cy="-306" rx="48.28" ry="18"/>
<text text-anchor="middle" x="473.49" y="-300.95" font-family="Times,serif" font-size="14.00">Purify Air</text>
</g>
<!-- Create Air -->
<g id="node8" class="node">
<title>Create Air</title>
<ellipse fill="none" stroke="black" cx="358.49" cy="-234" rx="49.3" ry="18"/>
<text text-anchor="middle" x="358.49" y="-228.95" font-family="Times,serif" font-size="14.00">Create Air</text>
</g>
<!-- Purify Air&#45;&gt;Create Air -->
<g id="edge6" class="edge">
<title>Purify Air&#45;&gt;Create Air</title>
<path fill="none" stroke="black" d="M449.1,-290.15C432.49,-280.04 410.27,-266.52 391.99,-255.39"/>
<polygon fill="black" stroke="black" points="394.21,-252.03 383.85,-249.82 390.57,-258.01 394.21,-252.03"/>
</g>
<!-- No&#45;Smell -->
<g id="node9" class="node">
<title>No&#45;Smell</title>
<ellipse fill="none" stroke="black" cx="473.49" cy="-234" rx="47.26" ry="18"/>
<text text-anchor="middle" x="473.49" y="-228.95" font-family="Times,serif" font-size="14.00">No&#45;Smell</text>
</g>
<!-- Purify Air&#45;&gt;No&#45;Smell -->
<g id="edge7" class="edge">
<title>Purify Air&#45;&gt;No&#45;Smell</title>
<path fill="none" stroke="black" d="M473.49,-287.7C473.49,-280.24 473.49,-271.32 473.49,-262.97"/>
<polygon fill="black" stroke="black" points="476.99,-263.1 473.49,-253.1 469.99,-263.1 476.99,-263.1"/>
</g>
<!-- Stench -->
<g id="node10" class="node">
<title>Stench</title>
<ellipse fill="none" stroke="black" cx="574.49" cy="-234" rx="36" ry="18"/>
<text text-anchor="middle" x="574.49" y="-228.95" font-family="Times,serif" font-size="14.00">Stench</text>
</g>
<!-- Purify Air&#45;&gt;Stench -->
<g id="edge8" class="edge">
<title>Purify Air&#45;&gt;Stench</title>
<path fill="none" stroke="black" d="M495.41,-289.81C509.96,-279.73 529.23,-266.37 545.1,-255.37"/>
<polygon fill="black" stroke="black" points="546.77,-257.78 553,-249.21 542.78,-252.02 546.77,-257.78"/>
</g>
<!-- Create Air&#45;&gt;Shape Air -->
<g id="edge9" class="edge">
<title>Create Air&#45;&gt;Shape Air</title>
<path fill="none" stroke="black" d="M358.49,-215.7C358.49,-208.24 358.49,-199.32 358.49,-190.97"/>
<polygon fill="black" stroke="black" points="361.99,-191.1 358.49,-181.1 354.99,-191.1 361.99,-191.1"/>
</g>
<!-- Destroy Air -->
<g id="node11" class="node">
<title>Destroy Air</title>
<ellipse fill="none" stroke="black" cx="478.49" cy="-162" rx="54.42" ry="18"/>
<text text-anchor="middle" x="478.49" y="-156.95" font-family="Times,serif" font-size="14.00">Destroy Air</text>
</g>
<!-- Create Air&#45;&gt;Destroy Air -->
<g id="edge10" class="edge">
<title>Create Air&#45;&gt;Destroy Air</title>
<path fill="none" stroke="black" d="M383.94,-218.15C401.25,-208.06 424.36,-194.58 443.41,-183.46"/>
<polygon fill="black" stroke="black" points="444.79,-186.13 451.67,-178.07 441.27,-180.08 444.79,-186.13"/>
</g>
<!-- Earth to Air -->
<g id="node12" class="node">
<title>Earth to Air</title>
<ellipse fill="none" stroke="black" cx="236.49" cy="-162" rx="54.93" ry="18"/>
<text text-anchor="middle" x="236.49" y="-156.95" font-family="Times,serif" font-size="14.00">Earth to Air</text>
</g>
<!-- Create Air&#45;&gt;Earth to Air -->
<g id="edge11" class="edge">
<title>Create Air&#45;&gt;Earth to Air</title>
<path fill="none" stroke="black" d="M332.92,-218.33C315.34,-208.24 291.77,-194.72 272.33,-183.56"/>
<polygon fill="black" stroke="black" points="274.29,-180.08 263.88,-178.14 270.81,-186.15 274.29,-180.08"/>
</g>
<!-- Shape Earth -->
<g id="node13" class="node">
<title>Shape Earth</title>
<ellipse fill="none" stroke="black" cx="235.49" cy="-234" rx="55.96" ry="18"/>
<text text-anchor="middle" x="235.49" y="-228.95" font-family="Times,serif" font-size="14.00">Shape Earth</text>
</g>
<!-- Shape Earth&#45;&gt;Earth to Air -->
<g id="edge12" class="edge">
<title>Shape Earth&#45;&gt;Earth to Air</title>
<path fill="none" stroke="black" d="M235.74,-215.7C235.85,-208.24 235.97,-199.32 236.09,-190.97"/>
<polygon fill="black" stroke="black" points="239.61,-191.15 236.25,-181.1 232.61,-191.05 239.61,-191.15"/>
</g>
<!-- Create Earth -->
<g id="node14" class="node">
<title>Create Earth</title>
<ellipse fill="none" stroke="black" cx="186.49" cy="-90" rx="57.49" ry="18"/>
<text text-anchor="middle" x="186.49" y="-84.95" font-family="Times,serif" font-size="14.00">Create Earth</text>
</g>
<!-- Create Earth&#45;&gt;Sandstorm -->
<g id="edge13" class="edge">
<title>Create Earth&#45;&gt;Sandstorm</title>
<path fill="none" stroke="black" d="M220.87,-75.17C248.6,-64.01 287.76,-48.26 317.55,-36.28"/>
<polygon fill="black" stroke="black" points="318.69,-39.19 326.66,-32.21 316.08,-32.69 318.69,-39.19"/>
</g>
</g>
</svg>
