<?xml version="1.0" encoding="UTF-8" standalone="no"?>
<!DOCTYPE svg PUBLIC "-//W3C//DTD SVG 1.1//EN"
 "http://www.w3.org/Graphics/SVG/1.1/DTD/svg11.dtd">
<!-- Generated by graphviz version 8.0.5 (20230430.1635)
 -->
<!-- Pages: 1 -->
<svg width="1514pt" height="404pt"
 viewBox="0.00 0.00 1513.99 404.00" xmlns="http://www.w3.org/2000/svg" xmlns:xlink="http://www.w3.org/1999/xlink">
<g id="graph0" class="graph" transform="scale(1 1) rotate(0) translate(4 400)">
<polygon fill="white" stroke="none" points="-4,4 -4,-400 1509.99,-400 1509.99,4 -4,4"/>
<!-- Sensitize -->
<g id="node1" class="node">
<title>Sensitize</title>
<ellipse fill="none" stroke="black" cx="372.68" cy="-90" rx="44.19" ry="18"/>
<text text-anchor="middle" x="372.68" y="-84.95" font-family="Times,serif" font-size="14.00">Sensitize</text>
</g>
<!-- Agonize -->
<g id="node2" class="node">
<title>Agonize</title>
<ellipse fill="none" stroke="black" cx="372.68" cy="-18" rx="42.14" ry="18"/>
<text text-anchor="middle" x="372.68" y="-12.95" font-family="Times,serif" font-size="14.00">Agonize</text>
</g>
<!-- Sensitize&#45;&gt;Agonize -->
<g id="edge1" class="edge">
<title>Sensitize&#45;&gt;Agonize</title>
<path fill="none" stroke="black" d="M372.68,-71.7C372.68,-64.24 372.68,-55.32 372.68,-46.97"/>
<polygon fill="black" stroke="black" points="376.18,-47.1 372.68,-37.1 369.18,-47.1 376.18,-47.1"/>
</g>
<!-- Grace -->
<g id="node3" class="node">
<title>Grace</title>
<ellipse fill="none" stroke="black" cx="574.68" cy="-162" rx="32.93" ry="18"/>
<text text-anchor="middle" x="574.68" y="-156.95" font-family="Times,serif" font-size="14.00">Grace</text>
</g>
<!-- Ambidexterity -->
<g id="node4" class="node">
<title>Ambidexterity</title>
<ellipse fill="none" stroke="black" cx="703.68" cy="-90" rx="65.17" ry="18"/>
<text text-anchor="middle" x="703.68" y="-84.95" font-family="Times,serif" font-size="14.00">Ambidexterity</text>
</g>
<!-- Grace&#45;&gt;Ambidexterity -->
<g id="edge2" class="edge">
<title>Grace&#45;&gt;Ambidexterity</title>
<path fill="none" stroke="black" d="M597.45,-148.65C616.35,-138.39 643.63,-123.59 665.82,-111.55"/>
<polygon fill="black" stroke="black" points="667.17,-114.25 674.29,-106.41 663.83,-108.1 667.17,-114.25"/>
</g>
<!-- Balance -->
<g id="node5" class="node">
<title>Balance</title>
<ellipse fill="none" stroke="black" cx="579.68" cy="-90" rx="40.6" ry="18"/>
<text text-anchor="middle" x="579.68" y="-84.95" font-family="Times,serif" font-size="14.00">Balance</text>
</g>
<!-- Grace&#45;&gt;Balance -->
<g id="edge3" class="edge">
<title>Grace&#45;&gt;Balance</title>
<path fill="none" stroke="black" d="M575.92,-143.7C576.45,-136.24 577.09,-127.32 577.68,-118.97"/>
<polygon fill="black" stroke="black" points="581.24,-119.33 578.46,-109.1 574.26,-118.83 581.24,-119.33"/>
</g>
<!-- Reflexes -->
<g id="node6" class="node">
<title>Reflexes</title>
<ellipse fill="none" stroke="black" cx="477.68" cy="-90" rx="43.16" ry="18"/>
<text text-anchor="middle" x="477.68" y="-84.95" font-family="Times,serif" font-size="14.00">Reflexes</text>
</g>
<!-- Grace&#45;&gt;Reflexes -->
<g id="edge4" class="edge">
<title>Grace&#45;&gt;Reflexes</title>
<path fill="none" stroke="black" d="M555.52,-147.17C541.76,-137.24 522.97,-123.68 507.29,-112.37"/>
<polygon fill="black" stroke="black" points="509.64,-109.03 499.49,-106.01 505.55,-114.7 509.64,-109.03"/>
</g>
<!-- Spasm -->
<g id="node7" class="node">
<title>Spasm</title>
<ellipse fill="none" stroke="black" cx="628.68" cy="-306" rx="36" ry="18"/>
<text text-anchor="middle" x="628.68" y="-300.95" font-family="Times,serif" font-size="14.00">Spasm</text>
</g>
<!-- Clumsiness -->
<g id="node8" class="node">
<title>Clumsiness</title>
<ellipse fill="none" stroke="black" cx="497.68" cy="-234" rx="53.91" ry="18"/>
<text text-anchor="middle" x="497.68" y="-228.95" font-family="Times,serif" font-size="14.00">Clumsiness</text>
</g>
<!-- Spasm&#45;&gt;Clumsiness -->
<g id="edge5" class="edge">
<title>Spasm&#45;&gt;Clumsiness</title>
<path fill="none" stroke="black" d="M604.65,-292.16C585.09,-281.71 557.15,-266.78 534.73,-254.8"/>
<polygon fill="black" stroke="black" points="536.65,-251.32 526.18,-249.7 533.35,-257.5 536.65,-251.32"/>
</g>
<!-- Pain -->
<g id="node9" class="node">
<title>Pain</title>
<ellipse fill="none" stroke="black" cx="398.68" cy="-234" rx="27.3" ry="18"/>
<text text-anchor="middle" x="398.68" y="-228.95" font-family="Times,serif" font-size="14.00">Pain</text>
</g>
<!-- Spasm&#45;&gt;Pain -->
<g id="edge6" class="edge">
<title>Spasm&#45;&gt;Pain</title>
<path fill="none" stroke="black" d="M596.22,-297.96C557.24,-289.1 490.19,-272.51 434.68,-252 432.99,-251.37 431.27,-250.7 429.54,-249.99"/>
<polygon fill="black" stroke="black" points="431.3,-246.51 420.74,-245.69 428.49,-252.92 431.3,-246.51"/>
</g>
<!-- Retch -->
<g id="node10" class="node">
<title>Retch</title>
<ellipse fill="none" stroke="black" cx="299.68" cy="-234" rx="32.41" ry="18"/>
<text text-anchor="middle" x="299.68" y="-228.95" font-family="Times,serif" font-size="14.00">Retch</text>
</g>
<!-- Spasm&#45;&gt;Retch -->
<g id="edge7" class="edge">
<title>Spasm&#45;&gt;Retch</title>
<path fill="none" stroke="black" d="M594.93,-299.02C544.28,-289.89 445.67,-271.44 362.68,-252 354.87,-250.17 346.56,-248.05 338.63,-245.94"/>
<polygon fill="black" stroke="black" points="339.69,-242.34 329.12,-243.11 337.86,-249.09 339.69,-242.34"/>
</g>
<!-- Strike Blind -->
<g id="node11" class="node">
<title>Strike Blind</title>
<ellipse fill="none" stroke="black" cx="847.68" cy="-234" rx="55.96" ry="18"/>
<text text-anchor="middle" x="847.68" y="-228.95" font-family="Times,serif" font-size="14.00">Strike Blind</text>
</g>
<!-- Spasm&#45;&gt;Strike Blind -->
<g id="edge8" class="edge">
<title>Spasm&#45;&gt;Strike Blind</title>
<path fill="none" stroke="black" d="M658.22,-295.56C694.24,-284.04 755.66,-264.41 798.78,-250.63"/>
<polygon fill="black" stroke="black" points="799.59,-253.73 808.05,-247.35 797.45,-247.06 799.59,-253.73"/>
</g>
<!-- Strike Deaf -->
<g id="node12" class="node">
<title>Strike Deaf</title>
<ellipse fill="none" stroke="black" cx="983.68" cy="-234" rx="53.4" ry="18"/>
<text text-anchor="middle" x="983.68" y="-228.95" font-family="Times,serif" font-size="14.00">Strike Deaf</text>
</g>
<!-- Spasm&#45;&gt;Strike Deaf -->
<g id="edge9" class="edge">
<title>Spasm&#45;&gt;Strike Deaf</title>
<path fill="none" stroke="black" d="M662.45,-299.27C715.78,-290.09 822.66,-271.16 912.68,-252 918.72,-250.72 925.03,-249.3 931.28,-247.86"/>
<polygon fill="black" stroke="black" points="931.77,-251.11 940.71,-245.42 930.18,-244.29 931.77,-251.11"/>
</g>
<!-- Strike Dumb -->
<g id="node13" class="node">
<title>Strike Dumb</title>
<ellipse fill="none" stroke="black" cx="628.68" cy="-234" rx="59.03" ry="18"/>
<text text-anchor="middle" x="628.68" y="-228.95" font-family="Times,serif" font-size="14.00">Strike Dumb</text>
</g>
<!-- Spasm&#45;&gt;Strike Dumb -->
<g id="edge10" class="edge">
<title>Spasm&#45;&gt;Strike Dumb</title>
<path fill="none" stroke="black" d="M628.68,-287.7C628.68,-280.24 628.68,-271.32 628.68,-262.97"/>
<polygon fill="black" stroke="black" points="632.18,-263.1 628.68,-253.1 625.18,-263.1 632.18,-263.1"/>
</g>
<!-- Tickle -->
<g id="node14" class="node">
<title>Tickle</title>
<ellipse fill="none" stroke="black" cx="739.68" cy="-234" rx="34.46" ry="18"/>
<text text-anchor="middle" x="739.68" y="-228.95" font-family="Times,serif" font-size="14.00">Tickle</text>
</g>
<!-- Spasm&#45;&gt;Tickle -->
<g id="edge11" class="edge">
<title>Spasm&#45;&gt;Tickle</title>
<path fill="none" stroke="black" d="M650.35,-291.34C667.11,-280.77 690.53,-266 709.19,-254.23"/>
<polygon fill="black" stroke="black" points="710.86,-256.69 717.45,-248.39 707.12,-250.76 710.86,-256.69"/>
</g>
<!-- Clumsiness&#45;&gt;Grace -->
<g id="edge15" class="edge">
<title>Clumsiness&#45;&gt;Grace</title>
<path fill="none" stroke="black" d="M515.54,-216.76C525.91,-207.34 539.11,-195.34 550.41,-185.06"/>
<polygon fill="black" stroke="black" points="552.19,-188.27 557.23,-178.95 547.48,-183.09 552.19,-188.27"/>
</g>
<!-- Paralyze Limb -->
<g id="node20" class="node">
<title>Paralyze Limb</title>
<ellipse fill="none" stroke="black" cx="170.68" cy="-162" rx="65.68" ry="18"/>
<text text-anchor="middle" x="170.68" y="-156.95" font-family="Times,serif" font-size="14.00">Paralyze Limb</text>
</g>
<!-- Clumsiness&#45;&gt;Paralyze Limb -->
<g id="edge16" class="edge">
<title>Clumsiness&#45;&gt;Paralyze Limb</title>
<path fill="none" stroke="black" d="M457.47,-221.66C449.92,-219.67 442.08,-217.7 434.68,-216 351.34,-196.85 329.39,-197.45 245.68,-180 240.64,-178.95 235.41,-177.83 230.17,-176.68"/>
<polygon fill="black" stroke="black" points="230.96,-173.05 220.44,-174.31 229.45,-179.89 230.96,-173.05"/>
</g>
<!-- Tanglefoot -->
<g id="node21" class="node">
<title>Tanglefoot</title>
<ellipse fill="none" stroke="black" cx="761.68" cy="-162" rx="50.84" ry="18"/>
<text text-anchor="middle" x="761.68" y="-156.95" font-family="Times,serif" font-size="14.00">Tanglefoot</text>
</g>
<!-- Clumsiness&#45;&gt;Tanglefoot -->
<g id="edge17" class="edge">
<title>Clumsiness&#45;&gt;Tanglefoot</title>
<path fill="none" stroke="black" d="M538.68,-221.9C546,-219.93 553.57,-217.9 560.68,-216 611.9,-202.34 670.51,-186.91 711.17,-176.23"/>
<polygon fill="black" stroke="black" points="711.84,-179.41 720.62,-173.49 710.06,-172.64 711.84,-179.41"/>
</g>
<!-- Resist Pain -->
<g id="node29" class="node">
<title>Resist Pain</title>
<ellipse fill="none" stroke="black" cx="306.68" cy="-162" rx="52.38" ry="18"/>
<text text-anchor="middle" x="306.68" y="-156.95" font-family="Times,serif" font-size="14.00">Resist Pain</text>
</g>
<!-- Pain&#45;&gt;Resist Pain -->
<g id="edge23" class="edge">
<title>Pain&#45;&gt;Resist Pain</title>
<path fill="none" stroke="black" d="M381.38,-219.83C368.59,-210.1 350.86,-196.62 335.89,-185.22"/>
<polygon fill="black" stroke="black" points="338.53,-182.07 328.45,-178.8 334.29,-187.64 338.53,-182.07"/>
</g>
<!-- Stun -->
<g id="node30" class="node">
<title>Stun</title>
<ellipse fill="none" stroke="black" cx="404.68" cy="-162" rx="27.81" ry="18"/>
<text text-anchor="middle" x="404.68" y="-156.95" font-family="Times,serif" font-size="14.00">Stun</text>
</g>
<!-- Pain&#45;&gt;Stun -->
<g id="edge24" class="edge">
<title>Pain&#45;&gt;Stun</title>
<path fill="none" stroke="black" d="M400.17,-215.7C400.8,-208.24 401.57,-199.32 402.29,-190.97"/>
<polygon fill="black" stroke="black" points="405.85,-191.37 403.22,-181.1 398.87,-190.77 405.85,-191.37"/>
</g>
<!-- Wither Limb -->
<g id="node15" class="node">
<title>Wither Limb</title>
<ellipse fill="none" stroke="black" cx="208.68" cy="-90" rx="59.54" ry="18"/>
<text text-anchor="middle" x="208.68" y="-84.95" font-family="Times,serif" font-size="14.00">Wither Limb</text>
</g>
<!-- Deathtouch -->
<g id="node16" class="node">
<title>Deathtouch</title>
<ellipse fill="none" stroke="black" cx="208.68" cy="-18" rx="53.4" ry="18"/>
<text text-anchor="middle" x="208.68" y="-12.95" font-family="Times,serif" font-size="14.00">Deathtouch</text>
</g>
<!-- Wither Limb&#45;&gt;Deathtouch -->
<g id="edge12" class="edge">
<title>Wither Limb&#45;&gt;Deathtouch</title>
<path fill="none" stroke="black" d="M208.68,-71.7C208.68,-64.24 208.68,-55.32 208.68,-46.97"/>
<polygon fill="black" stroke="black" points="212.18,-47.1 208.68,-37.1 205.18,-47.1 212.18,-47.1"/>
</g>
<!-- Lend Energy -->
<g id="node17" class="node">
<title>Lend Energy</title>
<ellipse fill="none" stroke="black" cx="1087.68" cy="-378" rx="59.03" ry="18"/>
<text text-anchor="middle" x="1087.68" y="-372.95" font-family="Times,serif" font-size="14.00">Lend Energy</text>
</g>
<!-- Frailty -->
<g id="node18" class="node">
<title>Frailty</title>
<ellipse fill="none" stroke="black" cx="1082.68" cy="-306" rx="35.49" ry="18"/>
<text text-anchor="middle" x="1082.68" y="-300.95" font-family="Times,serif" font-size="14.00">Frailty</text>
</g>
<!-- Lend Energy&#45;&gt;Frailty -->
<g id="edge13" class="edge">
<title>Lend Energy&#45;&gt;Frailty</title>
<path fill="none" stroke="black" d="M1086.45,-359.7C1085.91,-352.24 1085.28,-343.32 1084.68,-334.97"/>
<polygon fill="black" stroke="black" points="1088.11,-334.83 1083.9,-325.1 1081.13,-335.33 1088.11,-334.83"/>
</g>
<!-- Might -->
<g id="node19" class="node">
<title>Might</title>
<ellipse fill="none" stroke="black" cx="1169.68" cy="-306" rx="33.95" ry="18"/>
<text text-anchor="middle" x="1169.68" y="-300.95" font-family="Times,serif" font-size="14.00">Might</text>
</g>
<!-- Lend Energy&#45;&gt;Might -->
<g id="edge14" class="edge">
<title>Lend Energy&#45;&gt;Might</title>
<path fill="none" stroke="black" d="M1106.7,-360.76C1117.82,-351.27 1132,-339.17 1144.08,-328.85"/>
<polygon fill="black" stroke="black" points="1146.11,-330.87 1151.44,-321.72 1141.56,-325.55 1146.11,-330.87"/>
</g>
<!-- Paralyze Limb&#45;&gt;Wither Limb -->
<g id="edge32" class="edge">
<title>Paralyze Limb&#45;&gt;Wither Limb</title>
<path fill="none" stroke="black" d="M180.08,-143.7C184.35,-135.81 189.52,-126.3 194.27,-117.55"/>
<polygon fill="black" stroke="black" points="197.7,-119.56 199.4,-109.1 191.55,-116.22 197.7,-119.56"/>
</g>
<!-- Total Paralysis -->
<g id="node36" class="node">
<title>Total Paralysis</title>
<ellipse fill="none" stroke="black" cx="65.68" cy="-90" rx="65.68" ry="18"/>
<text text-anchor="middle" x="65.68" y="-84.95" font-family="Times,serif" font-size="14.00">Total Paralysis</text>
</g>
<!-- Paralyze Limb&#45;&gt;Total Paralysis -->
<g id="edge33" class="edge">
<title>Paralyze Limb&#45;&gt;Total Paralysis</title>
<path fill="none" stroke="black" d="M146.59,-144.94C132.32,-135.43 114.04,-123.24 98.46,-112.86"/>
<polygon fill="black" stroke="black" points="100.92,-109.62 90.66,-106.98 97.04,-115.44 100.92,-109.62"/>
</g>
<!-- Roundabout -->
<g id="node32" class="node">
<title>Roundabout</title>
<ellipse fill="none" stroke="black" cx="842.68" cy="-90" rx="55.96" ry="18"/>
<text text-anchor="middle" x="842.68" y="-84.95" font-family="Times,serif" font-size="14.00">Roundabout</text>
</g>
<!-- Tanglefoot&#45;&gt;Roundabout -->
<g id="edge27" class="edge">
<title>Tanglefoot&#45;&gt;Roundabout</title>
<path fill="none" stroke="black" d="M780.06,-145.12C790.58,-136.03 803.97,-124.46 815.66,-114.35"/>
<polygon fill="black" stroke="black" points="817.53,-116.49 822.81,-107.31 812.96,-111.2 817.53,-116.49"/>
</g>
<!-- Haste or Clumsiness -->
<g id="node22" class="node">
<title>Haste or Clumsiness</title>
<ellipse fill="none" stroke="black" cx="1257.68" cy="-378" rx="87.69" ry="18"/>
<text text-anchor="middle" x="1257.68" y="-372.95" font-family="Times,serif" font-size="14.00">Haste or Clumsiness</text>
</g>
<!-- Hinder -->
<g id="node23" class="node">
<title>Hinder</title>
<ellipse fill="none" stroke="black" cx="1257.68" cy="-306" rx="36.51" ry="18"/>
<text text-anchor="middle" x="1257.68" y="-300.95" font-family="Times,serif" font-size="14.00">Hinder</text>
</g>
<!-- Haste or Clumsiness&#45;&gt;Hinder -->
<g id="edge18" class="edge">
<title>Haste or Clumsiness&#45;&gt;Hinder</title>
<path fill="none" stroke="black" d="M1257.68,-359.7C1257.68,-352.24 1257.68,-343.32 1257.68,-334.97"/>
<polygon fill="black" stroke="black" points="1261.18,-335.1 1257.68,-325.1 1254.18,-335.1 1261.18,-335.1"/>
</g>
<!-- Rooted Feet -->
<g id="node31" class="node">
<title>Rooted Feet</title>
<ellipse fill="none" stroke="black" cx="1257.68" cy="-234" rx="55.96" ry="18"/>
<text text-anchor="middle" x="1257.68" y="-228.95" font-family="Times,serif" font-size="14.00">Rooted Feet</text>
</g>
<!-- Hinder&#45;&gt;Rooted Feet -->
<g id="edge26" class="edge">
<title>Hinder&#45;&gt;Rooted Feet</title>
<path fill="none" stroke="black" d="M1257.68,-287.7C1257.68,-280.24 1257.68,-271.32 1257.68,-262.97"/>
<polygon fill="black" stroke="black" points="1261.18,-263.1 1257.68,-253.1 1254.18,-263.1 1261.18,-263.1"/>
</g>
<!-- Vigor -->
<g id="node24" class="node">
<title>Vigor</title>
<ellipse fill="none" stroke="black" cx="1434.68" cy="-306" rx="31.9" ry="18"/>
<text text-anchor="middle" x="1434.68" y="-300.95" font-family="Times,serif" font-size="14.00">Vigor</text>
</g>
<!-- Hold Breath -->
<g id="node25" class="node">
<title>Hold Breath</title>
<ellipse fill="none" stroke="black" cx="1434.68" cy="-234" rx="56.47" ry="18"/>
<text text-anchor="middle" x="1434.68" y="-228.95" font-family="Times,serif" font-size="14.00">Hold Breath</text>
</g>
<!-- Vigor&#45;&gt;Hold Breath -->
<g id="edge19" class="edge">
<title>Vigor&#45;&gt;Hold Breath</title>
<path fill="none" stroke="black" d="M1434.68,-287.7C1434.68,-280.24 1434.68,-271.32 1434.68,-262.97"/>
<polygon fill="black" stroke="black" points="1438.18,-263.1 1434.68,-253.1 1431.18,-263.1 1438.18,-263.1"/>
</g>
<!-- 5 Body Control -->
<g id="node26" class="node">
<title>5 Body Control</title>
<ellipse fill="none" stroke="black" cx="253.68" cy="-378" rx="68.75" ry="18"/>
<text text-anchor="middle" x="253.68" y="-372.95" font-family="Times,serif" font-size="14.00">5 Body Control</text>
</g>
<!-- 5 Body Control&#45;&gt;Paralyze Limb -->
<g id="edge20" class="edge">
<title>5 Body Control&#45;&gt;Paralyze Limb</title>
<path fill="none" stroke="black" d="M247.03,-359.85C232.67,-322.83 198.68,-235.18 181.3,-190.39"/>
<polygon fill="black" stroke="black" points="184.24,-189.29 177.37,-181.23 177.72,-191.82 184.24,-189.29"/>
</g>
<!-- Nauseate -->
<g id="node27" class="node">
<title>Nauseate</title>
<ellipse fill="none" stroke="black" cx="294.68" cy="-306" rx="44.7" ry="18"/>
<text text-anchor="middle" x="294.68" y="-300.95" font-family="Times,serif" font-size="14.00">Nauseate</text>
</g>
<!-- 5 Body Control&#45;&gt;Nauseate -->
<g id="edge21" class="edge">
<title>5 Body Control&#45;&gt;Nauseate</title>
<path fill="none" stroke="black" d="M263.61,-360.05C268.34,-351.97 274.11,-342.12 279.39,-333.11"/>
<polygon fill="black" stroke="black" points="282.81,-335.19 284.85,-324.79 276.77,-331.65 282.81,-335.19"/>
</g>
<!-- Nauseate&#45;&gt;Retch -->
<g id="edge25" class="edge">
<title>Nauseate&#45;&gt;Retch</title>
<path fill="none" stroke="black" d="M295.92,-287.7C296.45,-280.24 297.09,-271.32 297.68,-262.97"/>
<polygon fill="black" stroke="black" points="301.24,-263.33 298.46,-253.1 294.26,-262.83 301.24,-263.33"/>
</g>
<!-- Haste -->
<g id="node28" class="node">
<title>Haste</title>
<ellipse fill="none" stroke="black" cx="482.68" cy="-162" rx="31.9" ry="18"/>
<text text-anchor="middle" x="482.68" y="-156.95" font-family="Times,serif" font-size="14.00">Haste</text>
</g>
<!-- Haste&#45;&gt;Reflexes -->
<g id="edge22" class="edge">
<title>Haste&#45;&gt;Reflexes</title>
<path fill="none" stroke="black" d="M481.45,-143.7C480.91,-136.24 480.28,-127.32 479.68,-118.97"/>
<polygon fill="black" stroke="black" points="483.11,-118.83 478.9,-109.1 476.13,-119.33 483.11,-118.83"/>
</g>
<!-- Stun&#45;&gt;Sensitize -->
<g id="edge28" class="edge">
<title>Stun&#45;&gt;Sensitize</title>
<path fill="none" stroke="black" d="M397.1,-144.41C393.49,-136.51 389.07,-126.85 385,-117.94"/>
<polygon fill="black" stroke="black" points="387.77,-116.6 380.43,-108.96 381.41,-119.51 387.77,-116.6"/>
</g>
<!-- Itch -->
<g id="node33" class="node">
<title>Itch</title>
<ellipse fill="none" stroke="black" cx="628.68" cy="-378" rx="27" ry="18"/>
<text text-anchor="middle" x="628.68" y="-372.95" font-family="Times,serif" font-size="14.00">Itch</text>
</g>
<!-- Itch&#45;&gt;Spasm -->
<g id="edge29" class="edge">
<title>Itch&#45;&gt;Spasm</title>
<path fill="none" stroke="black" d="M628.68,-359.7C628.68,-352.24 628.68,-343.32 628.68,-334.97"/>
<polygon fill="black" stroke="black" points="632.18,-335.1 628.68,-325.1 625.18,-335.1 632.18,-335.1"/>
</g>
<!-- 2 Light &amp; Darkness -->
<g id="node34" class="node">
<title>2 Light &amp; Darkness</title>
<ellipse fill="none" stroke="black" cx="842.68" cy="-306" rx="85.13" ry="18"/>
<text text-anchor="middle" x="842.68" y="-300.95" font-family="Times,serif" font-size="14.00">2 Light &amp; Darkness</text>
</g>
<!-- 2 Light &amp; Darkness&#45;&gt;Strike Blind -->
<g id="edge30" class="edge">
<title>2 Light &amp; Darkness&#45;&gt;Strike Blind</title>
<path fill="none" stroke="black" d="M843.92,-287.7C844.45,-280.24 845.09,-271.32 845.68,-262.97"/>
<polygon fill="black" stroke="black" points="849.24,-263.33 846.46,-253.1 842.26,-262.83 849.24,-263.33"/>
</g>
<!-- 2 Sound -->
<g id="node35" class="node">
<title>2 Sound</title>
<ellipse fill="none" stroke="black" cx="987.68" cy="-306" rx="41.63" ry="18"/>
<text text-anchor="middle" x="987.68" y="-300.95" font-family="Times,serif" font-size="14.00">2 Sound</text>
</g>
<!-- 2 Sound&#45;&gt;Strike Deaf -->
<g id="edge31" class="edge">
<title>2 Sound&#45;&gt;Strike Deaf</title>
<path fill="none" stroke="black" d="M986.69,-287.7C986.27,-280.24 985.76,-271.32 985.28,-262.97"/>
<polygon fill="black" stroke="black" points="988.72,-262.89 984.66,-253.1 981.74,-263.29 988.72,-262.89"/>
</g>
<!-- Frailty or Might -->
<g id="node37" class="node">
<title>Frailty or Might</title>
<ellipse fill="none" stroke="black" cx="1434.68" cy="-378" rx="71.31" ry="18"/>
<text text-anchor="middle" x="1434.68" y="-372.95" font-family="Times,serif" font-size="14.00">Frailty or Might</text>
</g>
<!-- Frailty or Might&#45;&gt;Vigor -->
<g id="edge34" class="edge">
<title>Frailty or Might&#45;&gt;Vigor</title>
<path fill="none" stroke="black" d="M1434.68,-359.7C1434.68,-352.24 1434.68,-343.32 1434.68,-334.97"/>
<polygon fill="black" stroke="black" points="1438.18,-335.1 1434.68,-325.1 1431.18,-335.1 1438.18,-335.1"/>
</g>
</g>
</svg>
