<?xml version="1.0" encoding="UTF-8" standalone="no"?>
<!DOCTYPE svg PUBLIC "-//W3C//DTD SVG 1.1//EN"
 "http://www.w3.org/Graphics/SVG/1.1/DTD/svg11.dtd">
<!-- Generated by graphviz version 8.0.5 (20230430.1635)
 -->
<!-- Pages: 1 -->
<svg width="1854pt" height="332pt"
 viewBox="0.00 0.00 1853.55 332.00" xmlns="http://www.w3.org/2000/svg" xmlns:xlink="http://www.w3.org/1999/xlink">
<g id="graph0" class="graph" transform="scale(1 1) rotate(0) translate(4 328)">
<polygon fill="white" stroke="none" points="-4,4 -4,-328 1849.55,-328 1849.55,4 -4,4"/>
<!-- Lend Language -->
<g id="node1" class="node">
<title>Lend Language</title>
<ellipse fill="none" stroke="black" cx="272.2" cy="-234" rx="68.75" ry="18"/>
<text text-anchor="middle" x="272.2" y="-228.95" font-family="Times,serif" font-size="14.00">Lend Language</text>
</g>
<!-- Borrow Language -->
<g id="node2" class="node">
<title>Borrow Language</title>
<ellipse fill="none" stroke="black" cx="272.2" cy="-162" rx="77.97" ry="18"/>
<text text-anchor="middle" x="272.2" y="-156.95" font-family="Times,serif" font-size="14.00">Borrow Language</text>
</g>
<!-- Lend Language&#45;&gt;Borrow Language -->
<g id="edge1" class="edge">
<title>Lend Language&#45;&gt;Borrow Language</title>
<path fill="none" stroke="black" d="M272.2,-215.7C272.2,-208.24 272.2,-199.32 272.2,-190.97"/>
<polygon fill="black" stroke="black" points="275.7,-191.1 272.2,-181.1 268.7,-191.1 275.7,-191.1"/>
</g>
<!-- Gift of Letters -->
<g id="node9" class="node">
<title>Gift of Letters</title>
<ellipse fill="none" stroke="black" cx="188.2" cy="-90" rx="64.15" ry="18"/>
<text text-anchor="middle" x="188.2" y="-84.95" font-family="Times,serif" font-size="14.00">Gift of Letters</text>
</g>
<!-- Borrow Language&#45;&gt;Gift of Letters -->
<g id="edge5" class="edge">
<title>Borrow Language&#45;&gt;Gift of Letters</title>
<path fill="none" stroke="black" d="M252.29,-144.41C241.52,-135.43 228.03,-124.19 216.21,-114.34"/>
<polygon fill="black" stroke="black" points="218.89,-111.18 208.97,-107.47 214.41,-116.56 218.89,-111.18"/>
</g>
<!-- Gift of Tongues -->
<g id="node10" class="node">
<title>Gift of Tongues</title>
<ellipse fill="none" stroke="black" cx="355.2" cy="-90" rx="69.26" ry="18"/>
<text text-anchor="middle" x="355.2" y="-84.95" font-family="Times,serif" font-size="14.00">Gift of Tongues</text>
</g>
<!-- Borrow Language&#45;&gt;Gift of Tongues -->
<g id="edge6" class="edge">
<title>Borrow Language&#45;&gt;Gift of Tongues</title>
<path fill="none" stroke="black" d="M291.87,-144.41C302.44,-135.5 315.65,-124.36 327.27,-114.56"/>
<polygon fill="black" stroke="black" points="329,-116.84 334.39,-107.71 324.48,-111.48 329,-116.84"/>
</g>
<!-- Lend Skill -->
<g id="node3" class="node">
<title>Lend Skill</title>
<ellipse fill="none" stroke="black" cx="603.2" cy="-90" rx="49.82" ry="18"/>
<text text-anchor="middle" x="603.2" y="-84.95" font-family="Times,serif" font-size="14.00">Lend Skill</text>
</g>
<!-- Borrow Skill -->
<g id="node4" class="node">
<title>Borrow Skill</title>
<ellipse fill="none" stroke="black" cx="603.2" cy="-18" rx="59.03" ry="18"/>
<text text-anchor="middle" x="603.2" y="-12.95" font-family="Times,serif" font-size="14.00">Borrow Skill</text>
</g>
<!-- Lend Skill&#45;&gt;Borrow Skill -->
<g id="edge2" class="edge">
<title>Lend Skill&#45;&gt;Borrow Skill</title>
<path fill="none" stroke="black" d="M603.2,-71.7C603.2,-64.24 603.2,-55.32 603.2,-46.97"/>
<polygon fill="black" stroke="black" points="606.7,-47.1 603.2,-37.1 599.7,-47.1 606.7,-47.1"/>
</g>
<!-- Truthsayer -->
<g id="node5" class="node">
<title>Truthsayer</title>
<ellipse fill="none" stroke="black" cx="1111.2" cy="-162" rx="50.84" ry="18"/>
<text text-anchor="middle" x="1111.2" y="-156.95" font-family="Times,serif" font-size="14.00">Truthsayer</text>
</g>
<!-- Compel Truth -->
<g id="node6" class="node">
<title>Compel Truth</title>
<ellipse fill="none" stroke="black" cx="1111.2" cy="-90" rx="63.12" ry="18"/>
<text text-anchor="middle" x="1111.2" y="-84.95" font-family="Times,serif" font-size="14.00">Compel Truth</text>
</g>
<!-- Truthsayer&#45;&gt;Compel Truth -->
<g id="edge3" class="edge">
<title>Truthsayer&#45;&gt;Compel Truth</title>
<path fill="none" stroke="black" d="M1111.2,-143.7C1111.2,-136.24 1111.2,-127.32 1111.2,-118.97"/>
<polygon fill="black" stroke="black" points="1114.7,-119.1 1111.2,-109.1 1107.7,-119.1 1114.7,-119.1"/>
</g>
<!-- Soul Rider or Telepathy -->
<g id="node7" class="node">
<title>Soul Rider or Telepathy</title>
<ellipse fill="none" stroke="black" cx="1495.2" cy="-306" rx="99.46" ry="18"/>
<text text-anchor="middle" x="1495.2" y="-300.95" font-family="Times,serif" font-size="14.00">Soul Rider or Telepathy</text>
</g>
<!-- Control Person -->
<g id="node8" class="node">
<title>Control Person</title>
<ellipse fill="none" stroke="black" cx="1495.2" cy="-234" rx="66.71" ry="18"/>
<text text-anchor="middle" x="1495.2" y="-228.95" font-family="Times,serif" font-size="14.00">Control Person</text>
</g>
<!-- Soul Rider or Telepathy&#45;&gt;Control Person -->
<g id="edge4" class="edge">
<title>Soul Rider or Telepathy&#45;&gt;Control Person</title>
<path fill="none" stroke="black" d="M1495.2,-287.7C1495.2,-280.24 1495.2,-271.32 1495.2,-262.97"/>
<polygon fill="black" stroke="black" points="1498.7,-263.1 1495.2,-253.1 1491.7,-263.1 1498.7,-263.1"/>
</g>
<!-- Possession -->
<g id="node26" class="node">
<title>Possession</title>
<ellipse fill="none" stroke="black" cx="1495.2" cy="-162" rx="50.84" ry="18"/>
<text text-anchor="middle" x="1495.2" y="-156.95" font-family="Times,serif" font-size="14.00">Possession</text>
</g>
<!-- Control Person&#45;&gt;Possession -->
<g id="edge21" class="edge">
<title>Control Person&#45;&gt;Possession</title>
<path fill="none" stroke="black" d="M1495.2,-215.7C1495.2,-208.24 1495.2,-199.32 1495.2,-190.97"/>
<polygon fill="black" stroke="black" points="1498.7,-191.1 1495.2,-181.1 1491.7,-191.1 1498.7,-191.1"/>
</g>
<!-- 3 Written Languages -->
<g id="node11" class="node">
<title>3 Written Languages</title>
<ellipse fill="none" stroke="black" cx="88.2" cy="-162" rx="88.2" ry="18"/>
<text text-anchor="middle" x="88.2" y="-156.95" font-family="Times,serif" font-size="14.00">3 Written Languages</text>
</g>
<!-- 3 Written Languages&#45;&gt;Gift of Letters -->
<g id="edge7" class="edge">
<title>3 Written Languages&#45;&gt;Gift of Letters</title>
<path fill="none" stroke="black" d="M112.15,-144.23C125.33,-135.01 141.86,-123.44 156.13,-113.45"/>
<polygon fill="black" stroke="black" points="157.95,-115.75 164.13,-107.15 153.93,-110.02 157.95,-115.75"/>
</g>
<!-- 3 Spoken Languages -->
<g id="node12" class="node">
<title>3 Spoken Languages</title>
<ellipse fill="none" stroke="black" cx="456.2" cy="-162" rx="88.2" ry="18"/>
<text text-anchor="middle" x="456.2" y="-156.95" font-family="Times,serif" font-size="14.00">3 Spoken Languages</text>
</g>
<!-- 3 Spoken Languages&#45;&gt;Gift of Tongues -->
<g id="edge8" class="edge">
<title>3 Spoken Languages&#45;&gt;Gift of Tongues</title>
<path fill="none" stroke="black" d="M432.01,-144.23C418.67,-134.99 401.93,-123.39 387.49,-113.38"/>
<polygon fill="black" stroke="black" points="390.06,-110.21 379.85,-107.39 386.07,-115.96 390.06,-110.21"/>
</g>
<!-- Sense Emotion -->
<g id="node13" class="node">
<title>Sense Emotion</title>
<ellipse fill="none" stroke="black" cx="1243.2" cy="-234" rx="67.22" ry="18"/>
<text text-anchor="middle" x="1243.2" y="-228.95" font-family="Times,serif" font-size="14.00">Sense Emotion</text>
</g>
<!-- Sense Emotion&#45;&gt;Truthsayer -->
<g id="edge9" class="edge">
<title>Sense Emotion&#45;&gt;Truthsayer</title>
<path fill="none" stroke="black" d="M1213.91,-217.46C1194.5,-207.17 1168.88,-193.59 1148.09,-182.56"/>
<polygon fill="black" stroke="black" points="1150.09,-179.13 1139.61,-177.54 1146.81,-185.31 1150.09,-179.13"/>
</g>
<!-- Hide Emotion -->
<g id="node14" class="node">
<title>Hide Emotion</title>
<ellipse fill="none" stroke="black" cx="1243.2" cy="-162" rx="63.63" ry="18"/>
<text text-anchor="middle" x="1243.2" y="-156.95" font-family="Times,serif" font-size="14.00">Hide Emotion</text>
</g>
<!-- Sense Emotion&#45;&gt;Hide Emotion -->
<g id="edge10" class="edge">
<title>Sense Emotion&#45;&gt;Hide Emotion</title>
<path fill="none" stroke="black" d="M1243.2,-215.7C1243.2,-208.24 1243.2,-199.32 1243.2,-190.97"/>
<polygon fill="black" stroke="black" points="1246.7,-191.1 1243.2,-181.1 1239.7,-191.1 1246.7,-191.1"/>
</g>
<!-- Persuasion -->
<g id="node15" class="node">
<title>Persuasion</title>
<ellipse fill="none" stroke="black" cx="1375.2" cy="-162" rx="50.84" ry="18"/>
<text text-anchor="middle" x="1375.2" y="-156.95" font-family="Times,serif" font-size="14.00">Persuasion</text>
</g>
<!-- Sense Emotion&#45;&gt;Persuasion -->
<g id="edge11" class="edge">
<title>Sense Emotion&#45;&gt;Persuasion</title>
<path fill="none" stroke="black" d="M1272.5,-217.46C1291.91,-207.17 1317.52,-193.59 1338.32,-182.56"/>
<polygon fill="black" stroke="black" points="1339.6,-185.31 1346.79,-177.54 1336.32,-179.13 1339.6,-185.31"/>
</g>
<!-- Truthsayer or Hide Emotion -->
<g id="node16" class="node">
<title>Truthsayer or Hide Emotion</title>
<ellipse fill="none" stroke="black" cx="1729.2" cy="-306" rx="116.35" ry="18"/>
<text text-anchor="middle" x="1729.2" y="-300.95" font-family="Times,serif" font-size="14.00">Truthsayer or Hide Emotion</text>
</g>
<!-- Hide Thoughts -->
<g id="node17" class="node">
<title>Hide Thoughts</title>
<ellipse fill="none" stroke="black" cx="1729.2" cy="-234" rx="65.68" ry="18"/>
<text text-anchor="middle" x="1729.2" y="-228.95" font-family="Times,serif" font-size="14.00">Hide Thoughts</text>
</g>
<!-- Truthsayer or Hide Emotion&#45;&gt;Hide Thoughts -->
<g id="edge12" class="edge">
<title>Truthsayer or Hide Emotion&#45;&gt;Hide Thoughts</title>
<path fill="none" stroke="black" d="M1729.2,-287.7C1729.2,-280.24 1729.2,-271.32 1729.2,-262.97"/>
<polygon fill="black" stroke="black" points="1732.7,-263.1 1729.2,-253.1 1725.7,-263.1 1732.7,-263.1"/>
</g>
<!-- 3 Communication &amp; Empathy -->
<g id="node18" class="node">
<title>3 Communication &amp; Empathy</title>
<ellipse fill="none" stroke="black" cx="272.2" cy="-306" rx="125.05" ry="18"/>
<text text-anchor="middle" x="272.2" y="-300.95" font-family="Times,serif" font-size="14.00">3 Communication &amp; Empathy</text>
</g>
<!-- 3 Communication &amp; Empathy&#45;&gt;Lend Language -->
<g id="edge13" class="edge">
<title>3 Communication &amp; Empathy&#45;&gt;Lend Language</title>
<path fill="none" stroke="black" d="M272.2,-287.7C272.2,-280.24 272.2,-271.32 272.2,-262.97"/>
<polygon fill="black" stroke="black" points="275.7,-263.1 272.2,-253.1 268.7,-263.1 275.7,-263.1"/>
</g>
<!-- IQ 11+ -->
<g id="node19" class="node">
<title>IQ 11+</title>
<ellipse fill="none" stroke="black" cx="600.2" cy="-162" rx="38.04" ry="18"/>
<text text-anchor="middle" x="600.2" y="-156.95" font-family="Times,serif" font-size="14.00">IQ 11+</text>
</g>
<!-- IQ 11+&#45;&gt;Lend Skill -->
<g id="edge14" class="edge">
<title>IQ 11+&#45;&gt;Lend Skill</title>
<path fill="none" stroke="black" d="M600.94,-143.7C601.26,-136.24 601.64,-127.32 602,-118.97"/>
<polygon fill="black" stroke="black" points="605.54,-119.25 602.47,-109.1 598.54,-118.95 605.54,-119.25"/>
</g>
<!-- Mind&#45;Sending -->
<g id="node20" class="node">
<title>Mind&#45;Sending</title>
<ellipse fill="none" stroke="black" cx="721.2" cy="-162" rx="64.66" ry="18"/>
<text text-anchor="middle" x="721.2" y="-156.95" font-family="Times,serif" font-size="14.00">Mind&#45;Sending</text>
</g>
<!-- Mind&#45;Sending&#45;&gt;Lend Skill -->
<g id="edge15" class="edge">
<title>Mind&#45;Sending&#45;&gt;Lend Skill</title>
<path fill="none" stroke="black" d="M694.72,-145.29C677.9,-135.31 655.96,-122.29 637.77,-111.51"/>
<polygon fill="black" stroke="black" points="639.77,-108.03 629.38,-105.94 636.2,-114.05 639.77,-108.03"/>
</g>
<!-- Telepathy -->
<g id="node21" class="node">
<title>Telepathy</title>
<ellipse fill="none" stroke="black" cx="721.2" cy="-90" rx="47.26" ry="18"/>
<text text-anchor="middle" x="721.2" y="-84.95" font-family="Times,serif" font-size="14.00">Telepathy</text>
</g>
<!-- Mind&#45;Sending&#45;&gt;Telepathy -->
<g id="edge16" class="edge">
<title>Mind&#45;Sending&#45;&gt;Telepathy</title>
<path fill="none" stroke="black" d="M721.2,-143.7C721.2,-136.24 721.2,-127.32 721.2,-118.97"/>
<polygon fill="black" stroke="black" points="724.7,-119.1 721.2,-109.1 717.7,-119.1 724.7,-119.1"/>
</g>
<!-- Truthsayer or Borrow Language -->
<g id="node22" class="node">
<title>Truthsayer or Borrow Language</title>
<ellipse fill="none" stroke="black" cx="863.2" cy="-306" rx="130.68" ry="18"/>
<text text-anchor="middle" x="863.2" y="-300.95" font-family="Times,serif" font-size="14.00">Truthsayer or Borrow Language</text>
</g>
<!-- Mind&#45;Reading -->
<g id="node23" class="node">
<title>Mind&#45;Reading</title>
<ellipse fill="none" stroke="black" cx="863.2" cy="-234" rx="65.17" ry="18"/>
<text text-anchor="middle" x="863.2" y="-228.95" font-family="Times,serif" font-size="14.00">Mind&#45;Reading</text>
</g>
<!-- Truthsayer or Borrow Language&#45;&gt;Mind&#45;Reading -->
<g id="edge17" class="edge">
<title>Truthsayer or Borrow Language&#45;&gt;Mind&#45;Reading</title>
<path fill="none" stroke="black" d="M863.2,-287.7C863.2,-280.24 863.2,-271.32 863.2,-262.97"/>
<polygon fill="black" stroke="black" points="866.7,-263.1 863.2,-253.1 859.7,-263.1 866.7,-263.1"/>
</g>
<!-- Mind&#45;Reading&#45;&gt;Mind&#45;Sending -->
<g id="edge18" class="edge">
<title>Mind&#45;Reading&#45;&gt;Mind&#45;Sending</title>
<path fill="none" stroke="black" d="M832.39,-217.81C811.64,-207.58 784.07,-193.99 761.57,-182.9"/>
<polygon fill="black" stroke="black" points="763.47,-179.44 752.95,-178.16 760.38,-185.72 763.47,-179.44"/>
</g>
<!-- Mind&#45;Search -->
<g id="node24" class="node">
<title>Mind&#45;Search</title>
<ellipse fill="none" stroke="black" cx="863.2" cy="-162" rx="59.54" ry="18"/>
<text text-anchor="middle" x="863.2" y="-156.95" font-family="Times,serif" font-size="14.00">Mind&#45;Search</text>
</g>
<!-- Mind&#45;Reading&#45;&gt;Mind&#45;Search -->
<g id="edge19" class="edge">
<title>Mind&#45;Reading&#45;&gt;Mind&#45;Search</title>
<path fill="none" stroke="black" d="M863.2,-215.7C863.2,-208.24 863.2,-199.32 863.2,-190.97"/>
<polygon fill="black" stroke="black" points="866.7,-191.1 863.2,-181.1 859.7,-191.1 866.7,-191.1"/>
</g>
<!-- Soul Rider -->
<g id="node25" class="node">
<title>Soul Rider</title>
<ellipse fill="none" stroke="black" cx="991.2" cy="-162" rx="50.84" ry="18"/>
<text text-anchor="middle" x="991.2" y="-156.95" font-family="Times,serif" font-size="14.00">Soul Rider</text>
</g>
<!-- Mind&#45;Reading&#45;&gt;Soul Rider -->
<g id="edge20" class="edge">
<title>Mind&#45;Reading&#45;&gt;Soul Rider</title>
<path fill="none" stroke="black" d="M891.61,-217.46C910.34,-207.22 935.05,-193.71 955.16,-182.71"/>
<polygon fill="black" stroke="black" points="956.53,-185.4 963.62,-177.54 953.17,-179.26 956.53,-185.4"/>
</g>
<!-- Sense Foes -->
<g id="node27" class="node">
<title>Sense Foes</title>
<ellipse fill="none" stroke="black" cx="1243.2" cy="-306" rx="52.38" ry="18"/>
<text text-anchor="middle" x="1243.2" y="-300.95" font-family="Times,serif" font-size="14.00">Sense Foes</text>
</g>
<!-- Sense Foes&#45;&gt;Sense Emotion -->
<g id="edge22" class="edge">
<title>Sense Foes&#45;&gt;Sense Emotion</title>
<path fill="none" stroke="black" d="M1243.2,-287.7C1243.2,-280.24 1243.2,-271.32 1243.2,-262.97"/>
<polygon fill="black" stroke="black" points="1246.7,-263.1 1243.2,-253.1 1239.7,-263.1 1246.7,-263.1"/>
</g>
</g>
</svg>
