<?xml version="1.0" encoding="UTF-8" standalone="no"?>
<!DOCTYPE svg PUBLIC "-//W3C//DTD SVG 1.1//EN"
 "http://www.w3.org/Graphics/SVG/1.1/DTD/svg11.dtd">
<!-- Generated by graphviz version 8.0.5 (20230430.1635)
 -->
<!-- Pages: 1 -->
<svg width="769pt" height="332pt"
 viewBox="0.00 0.00 769.14 332.00" xmlns="http://www.w3.org/2000/svg" xmlns:xlink="http://www.w3.org/1999/xlink">
<g id="graph0" class="graph" transform="scale(1 1) rotate(0) translate(4 328)">
<polygon fill="white" stroke="none" points="-4,4 -4,-328 765.14,-328 765.14,4 -4,4"/>
<!-- Earth to Stone -->
<g id="node1" class="node">
<title>Earth to Stone</title>
<ellipse fill="none" stroke="black" cx="181.47" cy="-162" rx="64.15" ry="18"/>
<text text-anchor="middle" x="181.47" y="-156.95" font-family="Times,serif" font-size="14.00">Earth to Stone</text>
</g>
<!-- Create Earth -->
<g id="node2" class="node">
<title>Create Earth</title>
<ellipse fill="none" stroke="black" cx="181.47" cy="-90" rx="57.49" ry="18"/>
<text text-anchor="middle" x="181.47" y="-84.95" font-family="Times,serif" font-size="14.00">Create Earth</text>
</g>
<!-- Earth to Stone&#45;&gt;Create Earth -->
<g id="edge1" class="edge">
<title>Earth to Stone&#45;&gt;Create Earth</title>
<path fill="none" stroke="black" d="M181.47,-143.7C181.47,-136.24 181.47,-127.32 181.47,-118.97"/>
<polygon fill="black" stroke="black" points="184.97,-119.1 181.47,-109.1 177.97,-119.1 184.97,-119.1"/>
</g>
<!-- Flesh to Stone -->
<g id="node3" class="node">
<title>Flesh to Stone</title>
<ellipse fill="none" stroke="black" cx="341.47" cy="-90" rx="64.15" ry="18"/>
<text text-anchor="middle" x="341.47" y="-84.95" font-family="Times,serif" font-size="14.00">Flesh to Stone</text>
</g>
<!-- Earth to Stone&#45;&gt;Flesh to Stone -->
<g id="edge2" class="edge">
<title>Earth to Stone&#45;&gt;Flesh to Stone</title>
<path fill="none" stroke="black" d="M215.01,-146.33C239.12,-135.78 271.84,-121.46 297.96,-110.04"/>
<polygon fill="black" stroke="black" points="299.21,-112.87 306.97,-105.65 296.41,-106.46 299.21,-112.87"/>
</g>
<!-- Purify Earth -->
<g id="node8" class="node">
<title>Purify Earth</title>
<ellipse fill="none" stroke="black" cx="56.47" cy="-18" rx="56.47" ry="18"/>
<text text-anchor="middle" x="56.47" y="-12.95" font-family="Times,serif" font-size="14.00">Purify Earth</text>
</g>
<!-- Create Earth&#45;&gt;Purify Earth -->
<g id="edge6" class="edge">
<title>Create Earth&#45;&gt;Purify Earth</title>
<path fill="none" stroke="black" d="M154.35,-73.81C136.41,-63.77 112.68,-50.48 93.07,-39.5"/>
<polygon fill="black" stroke="black" points="94.97,-35.99 84.54,-34.16 91.55,-42.1 94.97,-35.99"/>
</g>
<!-- Stone Missile -->
<g id="node9" class="node">
<title>Stone Missile</title>
<ellipse fill="none" stroke="black" cx="193.47" cy="-18" rx="62.1" ry="18"/>
<text text-anchor="middle" x="193.47" y="-12.95" font-family="Times,serif" font-size="14.00">Stone Missile</text>
</g>
<!-- Create Earth&#45;&gt;Stone Missile -->
<g id="edge7" class="edge">
<title>Create Earth&#45;&gt;Stone Missile</title>
<path fill="none" stroke="black" d="M184.44,-71.7C185.73,-64.15 187.28,-55.12 188.72,-46.68"/>
<polygon fill="black" stroke="black" points="192.3,-47.55 190.54,-37.1 185.4,-46.37 192.3,-47.55"/>
</g>
<!-- Stone to Flesh -->
<g id="node16" class="node">
<title>Stone to Flesh</title>
<ellipse fill="none" stroke="black" cx="349.47" cy="-18" rx="64.15" ry="18"/>
<text text-anchor="middle" x="349.47" y="-12.95" font-family="Times,serif" font-size="14.00">Stone to Flesh</text>
</g>
<!-- Flesh to Stone&#45;&gt;Stone to Flesh -->
<g id="edge12" class="edge">
<title>Flesh to Stone&#45;&gt;Stone to Flesh</title>
<path fill="none" stroke="black" d="M343.45,-71.7C344.3,-64.24 345.32,-55.32 346.27,-46.97"/>
<polygon fill="black" stroke="black" points="349.86,-47.44 347.51,-37.1 342.9,-46.64 349.86,-47.44"/>
</g>
<!-- Shape Earth -->
<g id="node4" class="node">
<title>Shape Earth</title>
<ellipse fill="none" stroke="black" cx="251.47" cy="-234" rx="55.96" ry="18"/>
<text text-anchor="middle" x="251.47" y="-228.95" font-family="Times,serif" font-size="14.00">Shape Earth</text>
</g>
<!-- Shape Earth&#45;&gt;Earth to Stone -->
<g id="edge3" class="edge">
<title>Shape Earth&#45;&gt;Earth to Stone</title>
<path fill="none" stroke="black" d="M234.88,-216.41C226.16,-207.69 215.31,-196.85 205.68,-187.21"/>
<polygon fill="black" stroke="black" points="208.49,-185.07 198.94,-180.47 203.54,-190.02 208.49,-185.07"/>
</g>
<!-- Earth Vision -->
<g id="node5" class="node">
<title>Earth Vision</title>
<ellipse fill="none" stroke="black" cx="320.47" cy="-162" rx="56.98" ry="18"/>
<text text-anchor="middle" x="320.47" y="-156.95" font-family="Times,serif" font-size="14.00">Earth Vision</text>
</g>
<!-- Shape Earth&#45;&gt;Earth Vision -->
<g id="edge4" class="edge">
<title>Shape Earth&#45;&gt;Earth Vision</title>
<path fill="none" stroke="black" d="M267.82,-216.41C276.41,-207.69 287.11,-196.85 296.61,-187.21"/>
<polygon fill="black" stroke="black" points="298.71,-190.05 303.23,-180.47 293.72,-185.13 298.71,-190.05"/>
</g>
<!-- 5 Earth -->
<g id="node6" class="node">
<title>5 Earth</title>
<ellipse fill="none" stroke="black" cx="447.47" cy="-306" rx="38.04" ry="18"/>
<text text-anchor="middle" x="447.47" y="-300.95" font-family="Times,serif" font-size="14.00">5 Earth</text>
</g>
<!-- Entombment -->
<g id="node7" class="node">
<title>Entombment</title>
<ellipse fill="none" stroke="black" cx="447.47" cy="-234" rx="59.54" ry="18"/>
<text text-anchor="middle" x="447.47" y="-228.95" font-family="Times,serif" font-size="14.00">Entombment</text>
</g>
<!-- 5 Earth&#45;&gt;Entombment -->
<g id="edge5" class="edge">
<title>5 Earth&#45;&gt;Entombment</title>
<path fill="none" stroke="black" d="M447.47,-287.7C447.47,-280.24 447.47,-271.32 447.47,-262.97"/>
<polygon fill="black" stroke="black" points="450.97,-263.1 447.47,-253.1 443.97,-263.1 450.97,-263.1"/>
</g>
<!-- 6 Earth -->
<g id="node10" class="node">
<title>6 Earth</title>
<ellipse fill="none" stroke="black" cx="56.47" cy="-90" rx="38.04" ry="18"/>
<text text-anchor="middle" x="56.47" y="-84.95" font-family="Times,serif" font-size="14.00">6 Earth</text>
</g>
<!-- 6 Earth&#45;&gt;Purify Earth -->
<g id="edge8" class="edge">
<title>6 Earth&#45;&gt;Purify Earth</title>
<path fill="none" stroke="black" d="M56.47,-71.7C56.47,-64.24 56.47,-55.32 56.47,-46.97"/>
<polygon fill="black" stroke="black" points="59.97,-47.1 56.47,-37.1 52.97,-47.1 59.97,-47.1"/>
</g>
<!-- Seek Earth -->
<g id="node11" class="node">
<title>Seek Earth</title>
<ellipse fill="none" stroke="black" cx="251.47" cy="-306" rx="51.35" ry="18"/>
<text text-anchor="middle" x="251.47" y="-300.95" font-family="Times,serif" font-size="14.00">Seek Earth</text>
</g>
<!-- Seek Earth&#45;&gt;Shape Earth -->
<g id="edge9" class="edge">
<title>Seek Earth&#45;&gt;Shape Earth</title>
<path fill="none" stroke="black" d="M251.47,-287.7C251.47,-280.24 251.47,-271.32 251.47,-262.97"/>
<polygon fill="black" stroke="black" points="254.97,-263.1 251.47,-253.1 247.97,-263.1 254.97,-263.1"/>
</g>
<!-- Walk Through Earth -->
<g id="node12" class="node">
<title>Walk Through Earth</title>
<ellipse fill="none" stroke="black" cx="674.47" cy="-234" rx="86.67" ry="18"/>
<text text-anchor="middle" x="674.47" y="-228.95" font-family="Times,serif" font-size="14.00">Walk Through Earth</text>
</g>
<!-- Steelwraith -->
<g id="node13" class="node">
<title>Steelwraith</title>
<ellipse fill="none" stroke="black" cx="674.47" cy="-162" rx="52.89" ry="18"/>
<text text-anchor="middle" x="674.47" y="-156.95" font-family="Times,serif" font-size="14.00">Steelwraith</text>
</g>
<!-- Walk Through Earth&#45;&gt;Steelwraith -->
<g id="edge10" class="edge">
<title>Walk Through Earth&#45;&gt;Steelwraith</title>
<path fill="none" stroke="black" d="M674.47,-215.7C674.47,-208.24 674.47,-199.32 674.47,-190.97"/>
<polygon fill="black" stroke="black" points="677.97,-191.1 674.47,-181.1 670.97,-191.1 677.97,-191.1"/>
</g>
<!-- Earth to Stone or 4 Earth -->
<g id="node14" class="node">
<title>Earth to Stone or 4 Earth</title>
<ellipse fill="none" stroke="black" cx="499.47" cy="-162" rx="104.07" ry="18"/>
<text text-anchor="middle" x="499.47" y="-156.95" font-family="Times,serif" font-size="14.00">Earth to Stone or 4 Earth</text>
</g>
<!-- Stone to Earth -->
<g id="node15" class="node">
<title>Stone to Earth</title>
<ellipse fill="none" stroke="black" cx="493.47" cy="-90" rx="64.15" ry="18"/>
<text text-anchor="middle" x="493.47" y="-84.95" font-family="Times,serif" font-size="14.00">Stone to Earth</text>
</g>
<!-- Earth to Stone or 4 Earth&#45;&gt;Stone to Earth -->
<g id="edge11" class="edge">
<title>Earth to Stone or 4 Earth&#45;&gt;Stone to Earth</title>
<path fill="none" stroke="black" d="M497.99,-143.7C497.35,-136.24 496.58,-127.32 495.87,-118.97"/>
<polygon fill="black" stroke="black" points="499.28,-118.77 494.94,-109.1 492.3,-119.37 499.28,-118.77"/>
</g>
<!-- Stone to Earth&#45;&gt;Stone to Flesh -->
<g id="edge13" class="edge">
<title>Stone to Earth&#45;&gt;Stone to Flesh</title>
<path fill="none" stroke="black" d="M462.22,-73.81C441.18,-63.58 413.22,-49.99 390.41,-38.9"/>
<polygon fill="black" stroke="black" points="392.18,-35.38 381.65,-34.16 389.12,-41.68 392.18,-35.38"/>
</g>
<!-- 4 Earth -->
<g id="node17" class="node">
<title>4 Earth</title>
<ellipse fill="none" stroke="black" cx="674.47" cy="-306" rx="38.04" ry="18"/>
<text text-anchor="middle" x="674.47" y="-300.95" font-family="Times,serif" font-size="14.00">4 Earth</text>
</g>
<!-- 4 Earth&#45;&gt;Walk Through Earth -->
<g id="edge14" class="edge">
<title>4 Earth&#45;&gt;Walk Through Earth</title>
<path fill="none" stroke="black" d="M674.47,-287.7C674.47,-280.24 674.47,-271.32 674.47,-262.97"/>
<polygon fill="black" stroke="black" points="677.97,-263.1 674.47,-253.1 670.97,-263.1 677.97,-263.1"/>
</g>
</g>
</svg>
