<?xml version="1.0" encoding="UTF-8" standalone="no"?>
<!DOCTYPE svg PUBLIC "-//W3C//DTD SVG 1.1//EN"
 "http://www.w3.org/Graphics/SVG/1.1/DTD/svg11.dtd">
<!-- Generated by graphviz version 8.0.5 (20230430.1635)
 -->
<!-- Pages: 1 -->
<svg width="1112pt" height="332pt"
 viewBox="0.00 0.00 1111.95 332.00" xmlns="http://www.w3.org/2000/svg" xmlns:xlink="http://www.w3.org/1999/xlink">
<g id="graph0" class="graph" transform="scale(1 1) rotate(0) translate(4 328)">
<polygon fill="white" stroke="none" points="-4,4 -4,-328 1107.95,-328 1107.95,4 -4,4"/>
<!-- 6 Fire -->
<g id="node1" class="node">
<title>6 Fire</title>
<ellipse fill="none" stroke="black" cx="603.84" cy="-162" rx="32.93" ry="18"/>
<text text-anchor="middle" x="603.84" y="-156.95" font-family="Times,serif" font-size="14.00">6 Fire</text>
</g>
<!-- Burning Touch -->
<g id="node2" class="node">
<title>Burning Touch</title>
<ellipse fill="none" stroke="black" cx="569.84" cy="-90" rx="66.19" ry="18"/>
<text text-anchor="middle" x="569.84" y="-84.95" font-family="Times,serif" font-size="14.00">Burning Touch</text>
</g>
<!-- 6 Fire&#45;&gt;Burning Touch -->
<g id="edge1" class="edge">
<title>6 Fire&#45;&gt;Burning Touch</title>
<path fill="none" stroke="black" d="M595.78,-144.41C591.9,-136.42 587.15,-126.64 582.78,-117.64"/>
<polygon fill="black" stroke="black" points="585.59,-116.42 578.08,-108.96 579.3,-119.48 585.59,-116.42"/>
</g>
<!-- Heat -->
<g id="node3" class="node">
<title>Heat</title>
<ellipse fill="none" stroke="black" cx="682.84" cy="-162" rx="28.32" ry="18"/>
<text text-anchor="middle" x="682.84" y="-156.95" font-family="Times,serif" font-size="14.00">Heat</text>
</g>
<!-- Heat&#45;&gt;Burning Touch -->
<g id="edge2" class="edge">
<title>Heat&#45;&gt;Burning Touch</title>
<path fill="none" stroke="black" d="M662.9,-148.65C646.85,-138.71 623.92,-124.5 604.83,-112.68"/>
<polygon fill="black" stroke="black" points="606.88,-109.21 596.54,-106.92 603.2,-115.16 606.88,-109.21"/>
</g>
<!-- Cold -->
<g id="node4" class="node">
<title>Cold</title>
<ellipse fill="none" stroke="black" cx="682.84" cy="-90" rx="28.83" ry="18"/>
<text text-anchor="middle" x="682.84" y="-84.95" font-family="Times,serif" font-size="14.00">Cold</text>
</g>
<!-- Heat&#45;&gt;Cold -->
<g id="edge3" class="edge">
<title>Heat&#45;&gt;Cold</title>
<path fill="none" stroke="black" d="M682.84,-143.7C682.84,-136.24 682.84,-127.32 682.84,-118.97"/>
<polygon fill="black" stroke="black" points="686.34,-119.1 682.84,-109.1 679.34,-119.1 686.34,-119.1"/>
</g>
<!-- Flaming Weapon -->
<g id="node5" class="node">
<title>Flaming Weapon</title>
<ellipse fill="none" stroke="black" cx="803.84" cy="-90" rx="74.38" ry="18"/>
<text text-anchor="middle" x="803.84" y="-84.95" font-family="Times,serif" font-size="14.00">Flaming Weapon</text>
</g>
<!-- Heat&#45;&gt;Flaming Weapon -->
<g id="edge4" class="edge">
<title>Heat&#45;&gt;Flaming Weapon</title>
<path fill="none" stroke="black" d="M703.37,-149.13C720.59,-139.16 745.65,-124.66 766.43,-112.64"/>
<polygon fill="black" stroke="black" points="768.03,-115.18 774.94,-107.14 764.53,-109.12 768.03,-115.18"/>
</g>
<!-- Resist Cold -->
<g id="node6" class="node">
<title>Resist Cold</title>
<ellipse fill="none" stroke="black" cx="949.84" cy="-90" rx="53.91" ry="18"/>
<text text-anchor="middle" x="949.84" y="-84.95" font-family="Times,serif" font-size="14.00">Resist Cold</text>
</g>
<!-- Heat&#45;&gt;Resist Cold -->
<g id="edge5" class="edge">
<title>Heat&#45;&gt;Resist Cold</title>
<path fill="none" stroke="black" d="M704.64,-150.32C709.86,-148.02 715.48,-145.76 720.84,-144 792.57,-120.46 813.48,-125.84 886.84,-108 890.7,-107.06 894.68,-106.06 898.69,-105.03"/>
<polygon fill="black" stroke="black" points="899.46,-108.19 908.25,-102.27 897.69,-101.42 899.46,-108.19"/>
</g>
<!-- Warmth -->
<g id="node7" class="node">
<title>Warmth</title>
<ellipse fill="none" stroke="black" cx="1062.84" cy="-90" rx="41.12" ry="18"/>
<text text-anchor="middle" x="1062.84" y="-84.95" font-family="Times,serif" font-size="14.00">Warmth</text>
</g>
<!-- Heat&#45;&gt;Warmth -->
<g id="edge6" class="edge">
<title>Heat&#45;&gt;Warmth</title>
<path fill="none" stroke="black" d="M704.53,-149.97C709.76,-147.68 715.41,-145.51 720.84,-144 846.8,-108.91 885.38,-137.2 1012.84,-108 1015.86,-107.31 1018.95,-106.5 1022.04,-105.63"/>
<polygon fill="black" stroke="black" points="1022.92,-108.71 1031.45,-102.44 1020.87,-102.02 1022.92,-108.71"/>
</g>
<!-- Flaming Missiles -->
<g id="node21" class="node">
<title>Flaming Missiles</title>
<ellipse fill="none" stroke="black" cx="803.84" cy="-18" rx="75.92" ry="18"/>
<text text-anchor="middle" x="803.84" y="-12.95" font-family="Times,serif" font-size="14.00">Flaming Missiles</text>
</g>
<!-- Flaming Weapon&#45;&gt;Flaming Missiles -->
<g id="edge23" class="edge">
<title>Flaming Weapon&#45;&gt;Flaming Missiles</title>
<path fill="none" stroke="black" d="M803.84,-71.7C803.84,-64.24 803.84,-55.32 803.84,-46.97"/>
<polygon fill="black" stroke="black" points="807.34,-47.1 803.84,-37.1 800.34,-47.1 807.34,-47.1"/>
</g>
<!-- Ignite Fire or Seek Fire -->
<g id="node8" class="node">
<title>Ignite Fire or Seek Fire</title>
<ellipse fill="none" stroke="black" cx="682.84" cy="-306" rx="97.93" ry="18"/>
<text text-anchor="middle" x="682.84" y="-300.95" font-family="Times,serif" font-size="14.00">Ignite Fire or Seek Fire</text>
</g>
<!-- Create Fire -->
<g id="node9" class="node">
<title>Create Fire</title>
<ellipse fill="none" stroke="black" cx="682.84" cy="-234" rx="52.38" ry="18"/>
<text text-anchor="middle" x="682.84" y="-228.95" font-family="Times,serif" font-size="14.00">Create Fire</text>
</g>
<!-- Ignite Fire or Seek Fire&#45;&gt;Create Fire -->
<g id="edge7" class="edge">
<title>Ignite Fire or Seek Fire&#45;&gt;Create Fire</title>
<path fill="none" stroke="black" d="M682.84,-287.7C682.84,-280.24 682.84,-271.32 682.84,-262.97"/>
<polygon fill="black" stroke="black" points="686.34,-263.1 682.84,-253.1 679.34,-263.1 686.34,-263.1"/>
</g>
<!-- Create Fire&#45;&gt;Heat -->
<g id="edge18" class="edge">
<title>Create Fire&#45;&gt;Heat</title>
<path fill="none" stroke="black" d="M682.84,-215.7C682.84,-208.24 682.84,-199.32 682.84,-190.97"/>
<polygon fill="black" stroke="black" points="686.34,-191.1 682.84,-181.1 679.34,-191.1 686.34,-191.1"/>
</g>
<!-- Fireball -->
<g id="node12" class="node">
<title>Fireball</title>
<ellipse fill="none" stroke="black" cx="512.84" cy="-162" rx="39.58" ry="18"/>
<text text-anchor="middle" x="512.84" y="-156.95" font-family="Times,serif" font-size="14.00">Fireball</text>
</g>
<!-- Create Fire&#45;&gt;Fireball -->
<g id="edge19" class="edge">
<title>Create Fire&#45;&gt;Fireball</title>
<path fill="none" stroke="black" d="M650.06,-219.5C621.93,-207.92 581.32,-191.2 551.59,-178.95"/>
<polygon fill="black" stroke="black" points="553.14,-175.4 542.56,-174.83 550.47,-181.87 553.14,-175.4"/>
</g>
<!-- Flame Jet -->
<g id="node13" class="node">
<title>Flame Jet</title>
<ellipse fill="none" stroke="black" cx="776.84" cy="-162" rx="47.26" ry="18"/>
<text text-anchor="middle" x="776.84" y="-156.95" font-family="Times,serif" font-size="14.00">Flame Jet</text>
</g>
<!-- Create Fire&#45;&gt;Flame Jet -->
<g id="edge20" class="edge">
<title>Create Fire&#45;&gt;Flame Jet</title>
<path fill="none" stroke="black" d="M704.17,-217.12C716.88,-207.65 733.2,-195.5 747.15,-185.11"/>
<polygon fill="black" stroke="black" points="748.99,-187.36 754.92,-178.58 744.81,-181.75 748.99,-187.36"/>
</g>
<!-- Shape Fire -->
<g id="node10" class="node">
<title>Shape Fire</title>
<ellipse fill="none" stroke="black" cx="449.84" cy="-234" rx="50.84" ry="18"/>
<text text-anchor="middle" x="449.84" y="-228.95" font-family="Times,serif" font-size="14.00">Shape Fire</text>
</g>
<!-- Shape Fire&#45;&gt;Heat -->
<g id="edge8" class="edge">
<title>Shape Fire&#45;&gt;Heat</title>
<path fill="none" stroke="black" d="M492.14,-223.72C532.27,-214.41 593.97,-198.78 645.84,-180 647.53,-179.39 649.25,-178.73 650.98,-178.04"/>
<polygon fill="black" stroke="black" points="651.96,-181 659.79,-173.86 649.21,-174.56 651.96,-181"/>
</g>
<!-- Deflect Energy -->
<g id="node11" class="node">
<title>Deflect Energy</title>
<ellipse fill="none" stroke="black" cx="387.84" cy="-162" rx="67.22" ry="18"/>
<text text-anchor="middle" x="387.84" y="-156.95" font-family="Times,serif" font-size="14.00">Deflect Energy</text>
</g>
<!-- Shape Fire&#45;&gt;Deflect Energy -->
<g id="edge9" class="edge">
<title>Shape Fire&#45;&gt;Deflect Energy</title>
<path fill="none" stroke="black" d="M435.15,-216.41C427.61,-207.91 418.28,-197.37 409.91,-187.91"/>
<polygon fill="black" stroke="black" points="413.11,-186.12 403.86,-180.96 407.87,-190.76 413.11,-186.12"/>
</g>
<!-- Shape Fire&#45;&gt;Fireball -->
<g id="edge10" class="edge">
<title>Shape Fire&#45;&gt;Fireball</title>
<path fill="none" stroke="black" d="M464.77,-216.41C472.65,-207.66 482.46,-196.75 491.17,-187.08"/>
<polygon fill="black" stroke="black" points="493.36,-189.76 497.45,-179.99 488.16,-185.08 493.36,-189.76"/>
</g>
<!-- Shape Fire&#45;&gt;Flame Jet -->
<g id="edge11" class="edge">
<title>Shape Fire&#45;&gt;Flame Jet</title>
<path fill="none" stroke="black" d="M495.04,-225.5C548.9,-216.24 641.46,-199.33 719.84,-180 723.41,-179.12 727.08,-178.16 730.77,-177.15"/>
<polygon fill="black" stroke="black" points="731.43,-180.32 740.1,-174.23 729.53,-173.58 731.43,-180.32"/>
</g>
<!-- Smoke -->
<g id="node14" class="node">
<title>Smoke</title>
<ellipse fill="none" stroke="black" cx="151.84" cy="-162" rx="37.02" ry="18"/>
<text text-anchor="middle" x="151.84" y="-156.95" font-family="Times,serif" font-size="14.00">Smoke</text>
</g>
<!-- Shape Fire&#45;&gt;Smoke -->
<g id="edge12" class="edge">
<title>Shape Fire&#45;&gt;Smoke</title>
<path fill="none" stroke="black" d="M404.28,-225.5C353.43,-216.64 268.94,-200.49 197.84,-180 195.26,-179.26 192.62,-178.44 189.98,-177.58"/>
<polygon fill="black" stroke="black" points="191.44,-174.03 180.84,-174.09 189.16,-180.65 191.44,-174.03"/>
</g>
<!-- Explosive Fireball -->
<g id="node15" class="node">
<title>Explosive Fireball</title>
<ellipse fill="none" stroke="black" cx="406.84" cy="-90" rx="78.99" ry="18"/>
<text text-anchor="middle" x="406.84" y="-84.95" font-family="Times,serif" font-size="14.00">Explosive Fireball</text>
</g>
<!-- Fireball&#45;&gt;Explosive Fireball -->
<g id="edge13" class="edge">
<title>Fireball&#45;&gt;Explosive Fireball</title>
<path fill="none" stroke="black" d="M491.13,-146.67C476.62,-137.08 457.23,-124.27 440.7,-113.36"/>
<polygon fill="black" stroke="black" points="443.14,-110.12 432.87,-107.53 439.28,-115.96 443.14,-110.12"/>
</g>
<!-- Fire Cloud -->
<g id="node16" class="node">
<title>Fire Cloud</title>
<ellipse fill="none" stroke="black" cx="256.84" cy="-90" rx="50.84" ry="18"/>
<text text-anchor="middle" x="256.84" y="-84.95" font-family="Times,serif" font-size="14.00">Fire Cloud</text>
</g>
<!-- Fireball&#45;&gt;Fire Cloud -->
<g id="edge14" class="edge">
<title>Fireball&#45;&gt;Fire Cloud</title>
<path fill="none" stroke="black" d="M482.66,-150.05C476.47,-147.94 469.97,-145.82 463.84,-144 400.19,-125.1 383.09,-124.78 318.84,-108 314.76,-106.94 310.54,-105.82 306.31,-104.68"/>
<polygon fill="black" stroke="black" points="307.39,-101.08 296.83,-101.85 305.57,-107.83 307.39,-101.08"/>
</g>
<!-- Ignite Fire -->
<g id="node17" class="node">
<title>Ignite Fire</title>
<ellipse fill="none" stroke="black" cx="331.84" cy="-306" rx="49.82" ry="18"/>
<text text-anchor="middle" x="331.84" y="-300.95" font-family="Times,serif" font-size="14.00">Ignite Fire</text>
</g>
<!-- Ignite Fire&#45;&gt;Shape Fire -->
<g id="edge15" class="edge">
<title>Ignite Fire&#45;&gt;Shape Fire</title>
<path fill="none" stroke="black" d="M356.86,-290.15C373.8,-280.11 396.41,-266.7 415.08,-255.62"/>
<polygon fill="black" stroke="black" points="416.63,-258.18 423.44,-250.07 413.06,-252.16 416.63,-258.18"/>
</g>
<!-- Extinguish Fire -->
<g id="node18" class="node">
<title>Extinguish Fire</title>
<ellipse fill="none" stroke="black" cx="151.84" cy="-234" rx="68.24" ry="18"/>
<text text-anchor="middle" x="151.84" y="-228.95" font-family="Times,serif" font-size="14.00">Extinguish Fire</text>
</g>
<!-- Ignite Fire&#45;&gt;Extinguish Fire -->
<g id="edge16" class="edge">
<title>Ignite Fire&#45;&gt;Extinguish Fire</title>
<path fill="none" stroke="black" d="M298.82,-292.16C270.8,-281.26 230.25,-265.49 198.84,-253.28"/>
<polygon fill="black" stroke="black" points="200.58,-249.81 189.99,-249.45 198.04,-256.33 200.58,-249.81"/>
</g>
<!-- Extinguish Fire&#45;&gt;Smoke -->
<g id="edge21" class="edge">
<title>Extinguish Fire&#45;&gt;Smoke</title>
<path fill="none" stroke="black" d="M151.84,-215.7C151.84,-208.24 151.84,-199.32 151.84,-190.97"/>
<polygon fill="black" stroke="black" points="155.34,-191.1 151.84,-181.1 148.34,-191.1 155.34,-191.1"/>
</g>
<!-- Fireproof -->
<g id="node20" class="node">
<title>Fireproof</title>
<ellipse fill="none" stroke="black" cx="50.84" cy="-162" rx="45.72" ry="18"/>
<text text-anchor="middle" x="50.84" y="-156.95" font-family="Times,serif" font-size="14.00">Fireproof</text>
</g>
<!-- Extinguish Fire&#45;&gt;Fireproof -->
<g id="edge22" class="edge">
<title>Extinguish Fire&#45;&gt;Fireproof</title>
<path fill="none" stroke="black" d="M128.41,-216.76C114.52,-207.13 96.73,-194.81 81.7,-184.39"/>
<polygon fill="black" stroke="black" points="83.97,-181.01 73.76,-178.19 79.98,-186.76 83.97,-181.01"/>
</g>
<!-- Shape Air -->
<g id="node19" class="node">
<title>Shape Air</title>
<ellipse fill="none" stroke="black" cx="254.84" cy="-162" rx="47.77" ry="18"/>
<text text-anchor="middle" x="254.84" y="-156.95" font-family="Times,serif" font-size="14.00">Shape Air</text>
</g>
<!-- Shape Air&#45;&gt;Fire Cloud -->
<g id="edge17" class="edge">
<title>Shape Air&#45;&gt;Fire Cloud</title>
<path fill="none" stroke="black" d="M255.33,-143.7C255.55,-136.24 255.8,-127.32 256.04,-118.97"/>
<polygon fill="black" stroke="black" points="259.56,-119.2 256.35,-109.1 252.57,-119 259.56,-119.2"/>
</g>
<!-- Resist Fire -->
<g id="node22" class="node">
<title>Resist Fire</title>
<ellipse fill="none" stroke="black" cx="50.84" cy="-90" rx="50.84" ry="18"/>
<text text-anchor="middle" x="50.84" y="-84.95" font-family="Times,serif" font-size="14.00">Resist Fire</text>
</g>
<!-- Fireproof&#45;&gt;Resist Fire -->
<g id="edge24" class="edge">
<title>Fireproof&#45;&gt;Resist Fire</title>
<path fill="none" stroke="black" d="M50.84,-143.7C50.84,-136.24 50.84,-127.32 50.84,-118.97"/>
<polygon fill="black" stroke="black" points="54.34,-119.1 50.84,-109.1 47.34,-119.1 54.34,-119.1"/>
</g>
</g>
</svg>
