<?xml version="1.0" encoding="UTF-8" standalone="no"?>
<!DOCTYPE svg PUBLIC "-//W3C//DTD SVG 1.1//EN"
 "http://www.w3.org/Graphics/SVG/1.1/DTD/svg11.dtd">
<!-- Generated by graphviz version 8.0.5 (20230430.1635)
 -->
<!-- Pages: 1 -->
<svg width="509pt" height="260pt"
 viewBox="0.00 0.00 508.96 260.00" xmlns="http://www.w3.org/2000/svg" xmlns:xlink="http://www.w3.org/1999/xlink">
<g id="graph0" class="graph" transform="scale(1 1) rotate(0) translate(4 256)">
<polygon fill="white" stroke="none" points="-4,4 -4,-256 504.96,-256 504.96,4 -4,4"/>
<!-- Test Food -->
<g id="node1" class="node">
<title>Test Food</title>
<ellipse fill="none" stroke="black" cx="276.47" cy="-234" rx="47.77" ry="18"/>
<text text-anchor="middle" x="276.47" y="-228.95" font-family="Times,serif" font-size="14.00">Test Food</text>
</g>
<!-- Cook -->
<g id="node2" class="node">
<title>Cook</title>
<ellipse fill="none" stroke="black" cx="116.47" cy="-162" rx="30.88" ry="18"/>
<text text-anchor="middle" x="116.47" y="-156.95" font-family="Times,serif" font-size="14.00">Cook</text>
</g>
<!-- Test Food&#45;&gt;Cook -->
<g id="edge1" class="edge">
<title>Test Food&#45;&gt;Cook</title>
<path fill="none" stroke="black" d="M246,-219.67C218.7,-207.73 178.73,-190.24 150.42,-177.85"/>
<polygon fill="black" stroke="black" points="152.13,-174.34 141.56,-173.54 149.32,-180.76 152.13,-174.34"/>
</g>
<!-- Decay -->
<g id="node3" class="node">
<title>Decay</title>
<ellipse fill="none" stroke="black" cx="375.47" cy="-162" rx="34.46" ry="18"/>
<text text-anchor="middle" x="375.47" y="-156.95" font-family="Times,serif" font-size="14.00">Decay</text>
</g>
<!-- Test Food&#45;&gt;Decay -->
<g id="edge2" class="edge">
<title>Test Food&#45;&gt;Decay</title>
<path fill="none" stroke="black" d="M297.95,-217.81C312.31,-207.66 331.35,-194.19 346.97,-183.15"/>
<polygon fill="black" stroke="black" points="348.57,-185.6 354.71,-176.97 344.53,-179.89 348.57,-185.6"/>
</g>
<!-- Create Food -->
<g id="node5" class="node">
<title>Create Food</title>
<ellipse fill="none" stroke="black" cx="56.47" cy="-90" rx="56.47" ry="18"/>
<text text-anchor="middle" x="56.47" y="-84.95" font-family="Times,serif" font-size="14.00">Create Food</text>
</g>
<!-- Cook&#45;&gt;Create Food -->
<g id="edge4" class="edge">
<title>Cook&#45;&gt;Create Food</title>
<path fill="none" stroke="black" d="M103.15,-145.46C95.68,-136.74 86.17,-125.65 77.69,-115.76"/>
<polygon fill="black" stroke="black" points="79.75,-113.78 70.58,-108.47 74.43,-118.34 79.75,-113.78"/>
</g>
<!-- Purify Food -->
<g id="node10" class="node">
<title>Purify Food</title>
<ellipse fill="none" stroke="black" cx="402.47" cy="-90" rx="55.45" ry="18"/>
<text text-anchor="middle" x="402.47" y="-84.95" font-family="Times,serif" font-size="14.00">Purify Food</text>
</g>
<!-- Decay&#45;&gt;Purify Food -->
<g id="edge11" class="edge">
<title>Decay&#45;&gt;Purify Food</title>
<path fill="none" stroke="black" d="M382.01,-144.05C384.98,-136.35 388.57,-127.03 391.91,-118.36"/>
<polygon fill="black" stroke="black" points="395.47,-119.86 395.81,-109.28 388.94,-117.35 395.47,-119.86"/>
</g>
<!-- Create Fire -->
<g id="node4" class="node">
<title>Create Fire</title>
<ellipse fill="none" stroke="black" cx="116.47" cy="-234" rx="52.38" ry="18"/>
<text text-anchor="middle" x="116.47" y="-228.95" font-family="Times,serif" font-size="14.00">Create Fire</text>
</g>
<!-- Create Fire&#45;&gt;Cook -->
<g id="edge3" class="edge">
<title>Create Fire&#45;&gt;Cook</title>
<path fill="none" stroke="black" d="M116.47,-215.7C116.47,-208.24 116.47,-199.32 116.47,-190.97"/>
<polygon fill="black" stroke="black" points="119.97,-191.1 116.47,-181.1 112.97,-191.1 119.97,-191.1"/>
</g>
<!-- Essential Food -->
<g id="node9" class="node">
<title>Essential Food</title>
<ellipse fill="none" stroke="black" cx="126.47" cy="-18" rx="65.68" ry="18"/>
<text text-anchor="middle" x="126.47" y="-12.95" font-family="Times,serif" font-size="14.00">Essential Food</text>
</g>
<!-- Create Food&#45;&gt;Essential Food -->
<g id="edge8" class="edge">
<title>Create Food&#45;&gt;Essential Food</title>
<path fill="none" stroke="black" d="M73.06,-72.41C81.78,-63.69 92.62,-52.85 102.26,-43.21"/>
<polygon fill="black" stroke="black" points="104.4,-46.02 109,-36.47 99.45,-41.07 104.4,-46.02"/>
</g>
<!-- Seek Food -->
<g id="node6" class="node">
<title>Seek Food</title>
<ellipse fill="none" stroke="black" cx="245.47" cy="-162" rx="50.33" ry="18"/>
<text text-anchor="middle" x="245.47" y="-156.95" font-family="Times,serif" font-size="14.00">Seek Food</text>
</g>
<!-- Seek Food&#45;&gt;Create Food -->
<g id="edge5" class="edge">
<title>Seek Food&#45;&gt;Create Food</title>
<path fill="none" stroke="black" d="M211.24,-148.32C180.78,-137.04 135.97,-120.45 102.4,-108.01"/>
<polygon fill="black" stroke="black" points="103.96,-104.49 93.37,-104.3 101.53,-111.05 103.96,-104.49"/>
</g>
<!-- Far&#45;Tasting -->
<g id="node7" class="node">
<title>Far&#45;Tasting</title>
<ellipse fill="none" stroke="black" cx="275.47" cy="-90" rx="53.4" ry="18"/>
<text text-anchor="middle" x="275.47" y="-84.95" font-family="Times,serif" font-size="14.00">Far&#45;Tasting</text>
</g>
<!-- Seek Food&#45;&gt;Far&#45;Tasting -->
<g id="edge6" class="edge">
<title>Seek Food&#45;&gt;Far&#45;Tasting</title>
<path fill="none" stroke="black" d="M252.73,-144.05C256.04,-136.35 260.03,-127.03 263.74,-118.36"/>
<polygon fill="black" stroke="black" points="267.34,-119.85 268.07,-109.28 260.91,-117.09 267.34,-119.85"/>
</g>
<!-- 6 Food -->
<g id="node8" class="node">
<title>6 Food</title>
<ellipse fill="none" stroke="black" cx="167.47" cy="-90" rx="37.02" ry="18"/>
<text text-anchor="middle" x="167.47" y="-84.95" font-family="Times,serif" font-size="14.00">6 Food</text>
</g>
<!-- 6 Food&#45;&gt;Essential Food -->
<g id="edge7" class="edge">
<title>6 Food&#45;&gt;Essential Food</title>
<path fill="none" stroke="black" d="M157.75,-72.41C153.02,-64.34 147.22,-54.43 141.91,-45.35"/>
<polygon fill="black" stroke="black" points="144.48,-43.82 136.4,-36.96 138.43,-47.35 144.48,-43.82"/>
</g>
<!-- Poison Food -->
<g id="node11" class="node">
<title>Poison Food</title>
<ellipse fill="none" stroke="black" cx="443.47" cy="-18" rx="57.49" ry="18"/>
<text text-anchor="middle" x="443.47" y="-12.95" font-family="Times,serif" font-size="14.00">Poison Food</text>
</g>
<!-- Purify Food&#45;&gt;Poison Food -->
<g id="edge9" class="edge">
<title>Purify Food&#45;&gt;Poison Food</title>
<path fill="none" stroke="black" d="M412.39,-72.05C417.13,-63.97 422.9,-54.12 428.18,-45.11"/>
<polygon fill="black" stroke="black" points="431.6,-47.19 433.64,-36.79 425.56,-43.65 431.6,-47.19"/>
</g>
<!-- Prepare Game -->
<g id="node12" class="node">
<title>Prepare Game</title>
<ellipse fill="none" stroke="black" cx="303.47" cy="-18" rx="64.15" ry="18"/>
<text text-anchor="middle" x="303.47" y="-12.95" font-family="Times,serif" font-size="14.00">Prepare Game</text>
</g>
<!-- Purify Food&#45;&gt;Prepare Game -->
<g id="edge10" class="edge">
<title>Purify Food&#45;&gt;Prepare Game</title>
<path fill="none" stroke="black" d="M380,-73.12C366.68,-63.7 349.59,-51.61 334.94,-41.25"/>
<polygon fill="black" stroke="black" points="337.37,-37.98 327.19,-35.06 333.33,-43.69 337.37,-37.98"/>
</g>
</g>
</svg>
