<?xml version="1.0" encoding="UTF-8" standalone="no"?>
<!DOCTYPE svg PUBLIC "-//W3C//DTD SVG 1.1//EN"
 "http://www.w3.org/Graphics/SVG/1.1/DTD/svg11.dtd">
<!-- Generated by graphviz version 8.0.5 (20230430.1635)
 -->
<!-- Pages: 1 -->
<svg width="493pt" height="188pt"
 viewBox="0.00 0.00 492.59 188.00" xmlns="http://www.w3.org/2000/svg" xmlns:xlink="http://www.w3.org/1999/xlink">
<g id="graph0" class="graph" transform="scale(1 1) rotate(0) translate(4 184)">
<polygon fill="white" stroke="none" points="-4,4 -4,-184 488.59,-184 488.59,4 -4,4"/>
<!-- Seek Gate -->
<g id="node1" class="node">
<title>Seek Gate</title>
<ellipse fill="none" stroke="black" cx="144.45" cy="-90" rx="48.79" ry="18"/>
<text text-anchor="middle" x="144.45" y="-84.95" font-family="Times,serif" font-size="14.00">Seek Gate</text>
</g>
<!-- Control Gate -->
<g id="node2" class="node">
<title>Control Gate</title>
<ellipse fill="none" stroke="black" cx="82.45" cy="-18" rx="59.03" ry="18"/>
<text text-anchor="middle" x="82.45" y="-12.95" font-family="Times,serif" font-size="14.00">Control Gate</text>
</g>
<!-- Seek Gate&#45;&gt;Control Gate -->
<g id="edge1" class="edge">
<title>Seek Gate&#45;&gt;Control Gate</title>
<path fill="none" stroke="black" d="M129.75,-72.41C122.11,-63.78 112.62,-53.06 104.14,-43.5"/>
<polygon fill="black" stroke="black" points="107.28,-41.64 98.03,-36.47 102.04,-46.28 107.28,-41.64"/>
</g>
<!-- Scry Gate -->
<g id="node3" class="node">
<title>Scry Gate</title>
<ellipse fill="none" stroke="black" cx="207.45" cy="-18" rx="47.77" ry="18"/>
<text text-anchor="middle" x="207.45" y="-12.95" font-family="Times,serif" font-size="14.00">Scry Gate</text>
</g>
<!-- Seek Gate&#45;&gt;Scry Gate -->
<g id="edge2" class="edge">
<title>Seek Gate&#45;&gt;Scry Gate</title>
<path fill="none" stroke="black" d="M159.38,-72.41C167.14,-63.78 176.79,-53.06 185.4,-43.5"/>
<polygon fill="black" stroke="black" points="187.53,-46.24 191.62,-36.47 182.33,-41.56 187.53,-46.24"/>
</g>
<!-- Ethereal Body -->
<g id="node4" class="node">
<title>Ethereal Body</title>
<ellipse fill="none" stroke="black" cx="420.45" cy="-162" rx="64.15" ry="18"/>
<text text-anchor="middle" x="420.45" y="-156.95" font-family="Times,serif" font-size="14.00">Ethereal Body</text>
</g>
<!-- Phase -->
<g id="node5" class="node">
<title>Phase</title>
<ellipse fill="none" stroke="black" cx="420.45" cy="-90" rx="32.41" ry="18"/>
<text text-anchor="middle" x="420.45" y="-84.95" font-family="Times,serif" font-size="14.00">Phase</text>
</g>
<!-- Ethereal Body&#45;&gt;Phase -->
<g id="edge3" class="edge">
<title>Ethereal Body&#45;&gt;Phase</title>
<path fill="none" stroke="black" d="M420.45,-143.7C420.45,-136.24 420.45,-127.32 420.45,-118.97"/>
<polygon fill="black" stroke="black" points="423.95,-119.1 420.45,-109.1 416.95,-119.1 423.95,-119.1"/>
</g>
<!-- Phase Other -->
<g id="node6" class="node">
<title>Phase Other</title>
<ellipse fill="none" stroke="black" cx="420.45" cy="-18" rx="55.96" ry="18"/>
<text text-anchor="middle" x="420.45" y="-12.95" font-family="Times,serif" font-size="14.00">Phase Other</text>
</g>
<!-- Phase&#45;&gt;Phase Other -->
<g id="edge4" class="edge">
<title>Phase&#45;&gt;Phase Other</title>
<path fill="none" stroke="black" d="M420.45,-71.7C420.45,-64.24 420.45,-55.32 420.45,-46.97"/>
<polygon fill="black" stroke="black" points="423.95,-47.1 420.45,-37.1 416.95,-47.1 423.95,-47.1"/>
</g>
<!-- Seek Magic -->
<g id="node7" class="node">
<title>Seek Magic</title>
<ellipse fill="none" stroke="black" cx="55.45" cy="-162" rx="55.45" ry="18"/>
<text text-anchor="middle" x="55.45" y="-156.95" font-family="Times,serif" font-size="14.00">Seek Magic</text>
</g>
<!-- Seek Magic&#45;&gt;Seek Gate -->
<g id="edge5" class="edge">
<title>Seek Magic&#45;&gt;Seek Gate</title>
<path fill="none" stroke="black" d="M75.64,-145.12C87.59,-135.72 102.91,-123.67 116.06,-113.33"/>
<polygon fill="black" stroke="black" points="117.63,-115.75 123.33,-106.82 113.31,-110.25 117.63,-115.75"/>
</g>
<!-- 1 Spell from 10 Colleges -->
<g id="node8" class="node">
<title>1 Spell from 10 Colleges</title>
<ellipse fill="none" stroke="black" cx="233.45" cy="-162" rx="104.58" ry="18"/>
<text text-anchor="middle" x="233.45" y="-156.95" font-family="Times,serif" font-size="14.00">1 Spell from 10 Colleges</text>
</g>
<!-- 1 Spell from 10 Colleges&#45;&gt;Seek Gate -->
<g id="edge6" class="edge">
<title>1 Spell from 10 Colleges&#45;&gt;Seek Gate</title>
<path fill="none" stroke="black" d="M211.9,-144.05C200.2,-134.85 185.58,-123.35 172.94,-113.41"/>
<polygon fill="black" stroke="black" points="175.6,-110.26 165.57,-106.83 171.27,-115.76 175.6,-110.26"/>
</g>
</g>
</svg>
