<?xml version="1.0" encoding="UTF-8" standalone="no"?>
<!DOCTYPE svg PUBLIC "-//W3C//DTD SVG 1.1//EN"
 "http://www.w3.org/Graphics/SVG/1.1/DTD/svg11.dtd">
<!-- Generated by graphviz version 8.0.5 (20230430.1635)
 -->
<!-- Pages: 1 -->
<svg width="290pt" height="116pt"
 viewBox="0.00 0.00 289.88 116.00" xmlns="http://www.w3.org/2000/svg" xmlns:xlink="http://www.w3.org/1999/xlink">
<g id="graph0" class="graph" transform="scale(1 1) rotate(0) translate(4 112)">
<polygon fill="white" stroke="none" points="-4,4 -4,-112 285.88,-112 285.88,4 -4,4"/>
<!-- Lend Energy -->
<g id="node1" class="node">
<title>Lend Energy</title>
<ellipse fill="none" stroke="black" cx="145.8" cy="-90" rx="59.03" ry="18"/>
<text text-anchor="middle" x="145.8" y="-84.95" font-family="Times,serif" font-size="14.00">Lend Energy</text>
</g>
<!-- Recover Energy -->
<g id="node2" class="node">
<title>Recover Energy</title>
<ellipse fill="none" stroke="black" cx="70.8" cy="-18" rx="70.8" ry="18"/>
<text text-anchor="middle" x="70.8" y="-12.95" font-family="Times,serif" font-size="14.00">Recover Energy</text>
</g>
<!-- Lend Energy&#45;&gt;Recover Energy -->
<g id="edge1" class="edge">
<title>Lend Energy&#45;&gt;Recover Energy</title>
<path fill="none" stroke="black" d="M128.03,-72.41C118.66,-63.67 107,-52.79 96.65,-43.13"/>
<polygon fill="black" stroke="black" points="99.41,-40.98 89.71,-36.71 94.63,-46.09 99.41,-40.98"/>
</g>
<!-- Share Energy -->
<g id="node3" class="node">
<title>Share Energy</title>
<ellipse fill="none" stroke="black" cx="220.8" cy="-18" rx="61.08" ry="18"/>
<text text-anchor="middle" x="220.8" y="-12.95" font-family="Times,serif" font-size="14.00">Share Energy</text>
</g>
<!-- Lend Energy&#45;&gt;Share Energy -->
<g id="edge2" class="edge">
<title>Lend Energy&#45;&gt;Share Energy</title>
<path fill="none" stroke="black" d="M163.57,-72.41C173.01,-63.61 184.77,-52.63 195.17,-42.92"/>
<polygon fill="black" stroke="black" points="197.23,-45.85 202.15,-36.47 192.46,-40.73 197.23,-45.85"/>
</g>
</g>
</svg>
