<?xml version="1.0" encoding="UTF-8" standalone="no"?>
<!DOCTYPE svg PUBLIC "-//W3C//DTD SVG 1.1//EN"
 "http://www.w3.org/Graphics/SVG/1.1/DTD/svg11.dtd">
<!-- Generated by graphviz version 8.0.5 (20230430.1635)
 -->
<!-- Pages: 1 -->
<svg width="857pt" height="404pt"
 viewBox="0.00 0.00 857.06 404.00" xmlns="http://www.w3.org/2000/svg" xmlns:xlink="http://www.w3.org/1999/xlink">
<g id="graph0" class="graph" transform="scale(1 1) rotate(0) translate(4 400)">
<polygon fill="white" stroke="none" points="-4,4 -4,-400 853.06,-400 853.06,4 -4,4"/>
<!-- Sound -->
<g id="node1" class="node">
<title>Sound</title>
<ellipse fill="none" stroke="black" cx="75.92" cy="-306" rx="34.46" ry="18"/>
<text text-anchor="middle" x="75.92" y="-300.95" font-family="Times,serif" font-size="14.00">Sound</text>
</g>
<!-- Complex Illusion -->
<g id="node2" class="node">
<title>Complex Illusion</title>
<ellipse fill="none" stroke="black" cx="75.92" cy="-234" rx="75.92" ry="18"/>
<text text-anchor="middle" x="75.92" y="-228.95" font-family="Times,serif" font-size="14.00">Complex Illusion</text>
</g>
<!-- Sound&#45;&gt;Complex Illusion -->
<g id="edge1" class="edge">
<title>Sound&#45;&gt;Complex Illusion</title>
<path fill="none" stroke="black" d="M75.92,-287.7C75.92,-280.24 75.92,-271.32 75.92,-262.97"/>
<polygon fill="black" stroke="black" points="79.42,-263.1 75.92,-253.1 72.42,-263.1 79.42,-263.1"/>
</g>
<!-- Perfect Illusion -->
<g id="node8" class="node">
<title>Perfect Illusion</title>
<ellipse fill="none" stroke="black" cx="75.92" cy="-162" rx="67.73" ry="18"/>
<text text-anchor="middle" x="75.92" y="-156.95" font-family="Times,serif" font-size="14.00">Perfect Illusion</text>
</g>
<!-- Complex Illusion&#45;&gt;Perfect Illusion -->
<g id="edge12" class="edge">
<title>Complex Illusion&#45;&gt;Perfect Illusion</title>
<path fill="none" stroke="black" d="M75.92,-215.7C75.92,-208.24 75.92,-199.32 75.92,-190.97"/>
<polygon fill="black" stroke="black" points="79.42,-191.1 75.92,-181.1 72.42,-191.1 79.42,-191.1"/>
</g>
<!-- Simple Illusion -->
<g id="node3" class="node">
<title>Simple Illusion</title>
<ellipse fill="none" stroke="black" cx="499.92" cy="-306" rx="68.24" ry="18"/>
<text text-anchor="middle" x="499.92" y="-300.95" font-family="Times,serif" font-size="14.00">Simple Illusion</text>
</g>
<!-- Simple Illusion&#45;&gt;Complex Illusion -->
<g id="edge2" class="edge">
<title>Simple Illusion&#45;&gt;Complex Illusion</title>
<path fill="none" stroke="black" d="M441,-296.56C373.28,-286.68 258.86,-269.44 160.92,-252 154.84,-250.92 148.53,-249.75 142.22,-248.54"/>
<polygon fill="black" stroke="black" points="143.12,-244.96 132.64,-246.49 141.79,-251.83 143.12,-244.96"/>
</g>
<!-- Illusion Disguise -->
<g id="node4" class="node">
<title>Illusion Disguise</title>
<ellipse fill="none" stroke="black" cx="347.92" cy="-234" rx="73.87" ry="18"/>
<text text-anchor="middle" x="347.92" y="-228.95" font-family="Times,serif" font-size="14.00">Illusion Disguise</text>
</g>
<!-- Simple Illusion&#45;&gt;Illusion Disguise -->
<g id="edge3" class="edge">
<title>Simple Illusion&#45;&gt;Illusion Disguise</title>
<path fill="none" stroke="black" d="M466.94,-289.81C444.78,-279.61 415.35,-266.06 391.3,-254.98"/>
<polygon fill="black" stroke="black" points="392.91,-251.41 382.36,-250.4 389.98,-257.76 392.91,-251.41"/>
</g>
<!-- Illusion Shell -->
<g id="node5" class="node">
<title>Illusion Shell</title>
<ellipse fill="none" stroke="black" cx="499.92" cy="-234" rx="60.56" ry="18"/>
<text text-anchor="middle" x="499.92" y="-228.95" font-family="Times,serif" font-size="14.00">Illusion Shell</text>
</g>
<!-- Simple Illusion&#45;&gt;Illusion Shell -->
<g id="edge4" class="edge">
<title>Simple Illusion&#45;&gt;Illusion Shell</title>
<path fill="none" stroke="black" d="M499.92,-287.7C499.92,-280.24 499.92,-271.32 499.92,-262.97"/>
<polygon fill="black" stroke="black" points="503.42,-263.1 499.92,-253.1 496.42,-263.1 503.42,-263.1"/>
</g>
<!-- Independence -->
<g id="node6" class="node">
<title>Independence</title>
<ellipse fill="none" stroke="black" cx="640.92" cy="-234" rx="62.1" ry="18"/>
<text text-anchor="middle" x="640.92" y="-228.95" font-family="Times,serif" font-size="14.00">Independence</text>
</g>
<!-- Simple Illusion&#45;&gt;Independence -->
<g id="edge5" class="edge">
<title>Simple Illusion&#45;&gt;Independence</title>
<path fill="none" stroke="black" d="M530.86,-289.64C551.39,-279.45 578.53,-265.97 600.72,-254.95"/>
<polygon fill="black" stroke="black" points="602.13,-257.67 609.53,-250.09 599.02,-251.4 602.13,-257.67"/>
</g>
<!-- Know Illusion -->
<g id="node7" class="node">
<title>Know Illusion</title>
<ellipse fill="none" stroke="black" cx="784.92" cy="-234" rx="64.15" ry="18"/>
<text text-anchor="middle" x="784.92" y="-228.95" font-family="Times,serif" font-size="14.00">Know Illusion</text>
</g>
<!-- Simple Illusion&#45;&gt;Know Illusion -->
<g id="edge6" class="edge">
<title>Simple Illusion&#45;&gt;Know Illusion</title>
<path fill="none" stroke="black" d="M548.59,-293.05C598.12,-280.88 674.87,-262.03 727.38,-249.13"/>
<polygon fill="black" stroke="black" points="727.99,-252.34 736.87,-246.56 726.32,-245.54 727.99,-252.34"/>
</g>
<!-- Initiative -->
<g id="node12" class="node">
<title>Initiative</title>
<ellipse fill="none" stroke="black" cx="533.92" cy="-162" rx="44.19" ry="18"/>
<text text-anchor="middle" x="533.92" y="-156.95" font-family="Times,serif" font-size="14.00">Initiative</text>
</g>
<!-- Independence&#45;&gt;Initiative -->
<g id="edge10" class="edge">
<title>Independence&#45;&gt;Initiative</title>
<path fill="none" stroke="black" d="M616.64,-217.12C601.59,-207.27 582.09,-194.51 565.8,-183.86"/>
<polygon fill="black" stroke="black" points="567.92,-180.41 557.64,-177.86 564.09,-186.27 567.92,-180.41"/>
</g>
<!-- Control Illusion -->
<g id="node9" class="node">
<title>Control Illusion</title>
<ellipse fill="none" stroke="black" cx="70.92" cy="-90" rx="69.78" ry="18"/>
<text text-anchor="middle" x="70.92" y="-84.95" font-family="Times,serif" font-size="14.00">Control Illusion</text>
</g>
<!-- Perfect Illusion&#45;&gt;Control Illusion -->
<g id="edge7" class="edge">
<title>Perfect Illusion&#45;&gt;Control Illusion</title>
<path fill="none" stroke="black" d="M74.68,-143.7C74.15,-136.24 73.51,-127.32 72.92,-118.97"/>
<polygon fill="black" stroke="black" points="76.34,-118.83 72.14,-109.1 69.36,-119.33 76.34,-118.83"/>
</g>
<!-- Phantom -->
<g id="node10" class="node">
<title>Phantom</title>
<ellipse fill="none" stroke="black" cx="202.92" cy="-90" rx="44.19" ry="18"/>
<text text-anchor="middle" x="202.92" y="-84.95" font-family="Times,serif" font-size="14.00">Phantom</text>
</g>
<!-- Perfect Illusion&#45;&gt;Phantom -->
<g id="edge8" class="edge">
<title>Perfect Illusion&#45;&gt;Phantom</title>
<path fill="none" stroke="black" d="M104.42,-145.29C123.27,-134.9 148.12,-121.21 168.13,-110.17"/>
<polygon fill="black" stroke="black" points="169.46,-112.89 176.53,-105 166.08,-106.76 169.46,-112.89"/>
</g>
<!-- Dispel Illusion -->
<g id="node11" class="node">
<title>Dispel Illusion</title>
<ellipse fill="none" stroke="black" cx="70.92" cy="-18" rx="65.68" ry="18"/>
<text text-anchor="middle" x="70.92" y="-12.95" font-family="Times,serif" font-size="14.00">Dispel Illusion</text>
</g>
<!-- Control Illusion&#45;&gt;Dispel Illusion -->
<g id="edge9" class="edge">
<title>Control Illusion&#45;&gt;Dispel Illusion</title>
<path fill="none" stroke="black" d="M70.92,-71.7C70.92,-64.24 70.92,-55.32 70.92,-46.97"/>
<polygon fill="black" stroke="black" points="74.42,-47.1 70.92,-37.1 67.42,-47.1 74.42,-47.1"/>
</g>
<!-- Wisdom -->
<g id="node13" class="node">
<title>Wisdom</title>
<ellipse fill="none" stroke="black" cx="212.92" cy="-234" rx="42.65" ry="18"/>
<text text-anchor="middle" x="212.92" y="-228.95" font-family="Times,serif" font-size="14.00">Wisdom</text>
</g>
<!-- Wisdom&#45;&gt;Initiative -->
<g id="edge11" class="edge">
<title>Wisdom&#45;&gt;Initiative</title>
<path fill="none" stroke="black" d="M245.19,-221.78C251.68,-219.71 258.49,-217.68 264.92,-216 339.89,-196.44 428.29,-180.32 482.72,-171.18"/>
<polygon fill="black" stroke="black" points="483.18,-174.49 492.47,-169.39 482.03,-167.58 483.18,-174.49"/>
</g>
<!-- Hinder -->
<g id="node14" class="node">
<title>Hinder</title>
<ellipse fill="none" stroke="black" cx="199.92" cy="-162" rx="36.51" ry="18"/>
<text text-anchor="middle" x="199.92" y="-156.95" font-family="Times,serif" font-size="14.00">Hinder</text>
</g>
<!-- Hinder&#45;&gt;Phantom -->
<g id="edge13" class="edge">
<title>Hinder&#45;&gt;Phantom</title>
<path fill="none" stroke="black" d="M200.66,-143.7C200.98,-136.24 201.36,-127.32 201.72,-118.97"/>
<polygon fill="black" stroke="black" points="205.25,-119.25 202.19,-109.1 198.26,-118.95 205.25,-119.25"/>
</g>
<!-- Apportation -->
<g id="node15" class="node">
<title>Apportation</title>
<ellipse fill="none" stroke="black" cx="309.92" cy="-162" rx="55.45" ry="18"/>
<text text-anchor="middle" x="309.92" y="-156.95" font-family="Times,serif" font-size="14.00">Apportation</text>
</g>
<!-- Apportation&#45;&gt;Phantom -->
<g id="edge14" class="edge">
<title>Apportation&#45;&gt;Phantom</title>
<path fill="none" stroke="black" d="M286.17,-145.46C270.9,-135.47 250.88,-122.38 234.3,-111.53"/>
<polygon fill="black" stroke="black" points="236.78,-108.32 226.5,-105.77 232.95,-114.18 236.78,-108.32"/>
</g>
<!-- IQ 11+ -->
<g id="node16" class="node">
<title>IQ 11+</title>
<ellipse fill="none" stroke="black" cx="440.92" cy="-378" rx="38.04" ry="18"/>
<text text-anchor="middle" x="440.92" y="-372.95" font-family="Times,serif" font-size="14.00">IQ 11+</text>
</g>
<!-- IQ 11+&#45;&gt;Simple Illusion -->
<g id="edge15" class="edge">
<title>IQ 11+&#45;&gt;Simple Illusion</title>
<path fill="none" stroke="black" d="M454.6,-360.76C461.8,-352.23 470.77,-341.58 478.83,-332.02"/>
<polygon fill="black" stroke="black" points="482.13,-334.54 485.9,-324.63 476.78,-330.02 482.13,-334.54"/>
</g>
<!-- No Blindness -->
<g id="node17" class="node">
<title>No Blindness</title>
<ellipse fill="none" stroke="black" cx="557.92" cy="-378" rx="61.08" ry="18"/>
<text text-anchor="middle" x="557.92" y="-372.95" font-family="Times,serif" font-size="14.00">No Blindness</text>
</g>
<!-- No Blindness&#45;&gt;Simple Illusion -->
<g id="edge16" class="edge">
<title>No Blindness&#45;&gt;Simple Illusion</title>
<path fill="none" stroke="black" d="M543.88,-360.05C536.97,-351.71 528.5,-341.49 520.84,-332.25"/>
<polygon fill="black" stroke="black" points="522.9,-330.26 513.83,-324.79 517.51,-334.72 522.9,-330.26"/>
</g>
</g>
</svg>
