<?xml version="1.0" encoding="UTF-8" standalone="no"?>
<!DOCTYPE svg PUBLIC "-//W3C//DTD SVG 1.1//EN"
 "http://www.w3.org/Graphics/SVG/1.1/DTD/svg11.dtd">
<!-- Generated by graphviz version 8.0.5 (20230430.1635)
 -->
<!-- Pages: 1 -->
<svg width="1799pt" height="260pt"
 viewBox="0.00 0.00 1798.87 260.00" xmlns="http://www.w3.org/2000/svg" xmlns:xlink="http://www.w3.org/1999/xlink">
<g id="graph0" class="graph" transform="scale(1 1) rotate(0) translate(4 256)">
<polygon fill="white" stroke="none" points="-4,4 -4,-256 1794.87,-256 1794.87,4 -4,4"/>
<!-- Identify Spell -->
<g id="node1" class="node">
<title>Identify Spell</title>
<ellipse fill="none" stroke="black" cx="317.42" cy="-162" rx="61.59" ry="18"/>
<text text-anchor="middle" x="317.42" y="-156.95" font-family="Times,serif" font-size="14.00">Identify Spell</text>
</g>
<!-- Analyze Magic -->
<g id="node2" class="node">
<title>Analyze Magic</title>
<ellipse fill="none" stroke="black" cx="309.42" cy="-90" rx="68.24" ry="18"/>
<text text-anchor="middle" x="309.42" y="-84.95" font-family="Times,serif" font-size="14.00">Analyze Magic</text>
</g>
<!-- Identify Spell&#45;&gt;Analyze Magic -->
<g id="edge1" class="edge">
<title>Identify Spell&#45;&gt;Analyze Magic</title>
<path fill="none" stroke="black" d="M315.44,-143.7C314.59,-136.24 313.57,-127.32 312.62,-118.97"/>
<polygon fill="black" stroke="black" points="315.99,-118.64 311.38,-109.1 309.04,-119.44 315.99,-118.64"/>
</g>
<!-- Sense Spirit -->
<g id="node3" class="node">
<title>Sense Spirit</title>
<ellipse fill="none" stroke="black" cx="893.42" cy="-234" rx="55.45" ry="18"/>
<text text-anchor="middle" x="893.42" y="-228.95" font-family="Times,serif" font-size="14.00">Sense Spirit</text>
</g>
<!-- Astral Vision -->
<g id="node4" class="node">
<title>Astral Vision</title>
<ellipse fill="none" stroke="black" cx="832.42" cy="-162" rx="59.54" ry="18"/>
<text text-anchor="middle" x="832.42" y="-156.95" font-family="Times,serif" font-size="14.00">Astral Vision</text>
</g>
<!-- Sense Spirit&#45;&gt;Astral Vision -->
<g id="edge2" class="edge">
<title>Sense Spirit&#45;&gt;Astral Vision</title>
<path fill="none" stroke="black" d="M878.97,-216.41C871.45,-207.78 862.11,-197.06 853.77,-187.5"/>
<polygon fill="black" stroke="black" points="855.98,-185.71 846.77,-180.47 850.71,-190.31 855.98,-185.71"/>
</g>
<!-- Projection -->
<g id="node5" class="node">
<title>Projection</title>
<ellipse fill="none" stroke="black" cx="993.42" cy="-162" rx="48.79" ry="18"/>
<text text-anchor="middle" x="993.42" y="-156.95" font-family="Times,serif" font-size="14.00">Projection</text>
</g>
<!-- Sense Spirit&#45;&gt;Projection -->
<g id="edge3" class="edge">
<title>Sense Spirit&#45;&gt;Projection</title>
<path fill="none" stroke="black" d="M916.11,-217.12C929.86,-207.5 947.57,-195.1 962.58,-184.59"/>
<polygon fill="black" stroke="black" points="964.32,-186.94 970.51,-178.34 960.31,-181.21 964.32,-186.94"/>
</g>
<!-- See Invisible -->
<g id="node6" class="node">
<title>See Invisible</title>
<ellipse fill="none" stroke="black" cx="761.42" cy="-234" rx="59.03" ry="18"/>
<text text-anchor="middle" x="761.42" y="-228.95" font-family="Times,serif" font-size="14.00">See Invisible</text>
</g>
<!-- See Invisible&#45;&gt;Astral Vision -->
<g id="edge4" class="edge">
<title>See Invisible&#45;&gt;Astral Vision</title>
<path fill="none" stroke="black" d="M778.25,-216.41C787.18,-207.61 798.31,-196.63 808.16,-186.92"/>
<polygon fill="black" stroke="black" points="810.05,-189.98 814.72,-180.47 805.14,-185 810.05,-189.98"/>
</g>
<!-- Detect Magic -->
<g id="node7" class="node">
<title>Detect Magic</title>
<ellipse fill="none" stroke="black" cx="250.42" cy="-234" rx="61.59" ry="18"/>
<text text-anchor="middle" x="250.42" y="-228.95" font-family="Times,serif" font-size="14.00">Detect Magic</text>
</g>
<!-- Detect Magic&#45;&gt;Identify Spell -->
<g id="edge5" class="edge">
<title>Detect Magic&#45;&gt;Identify Spell</title>
<path fill="none" stroke="black" d="M266.3,-216.41C274.64,-207.69 285.03,-196.85 294.25,-187.21"/>
<polygon fill="black" stroke="black" points="296.27,-190.11 300.66,-180.47 291.22,-185.27 296.27,-190.11"/>
</g>
<!-- Aura -->
<g id="node8" class="node">
<title>Aura</title>
<ellipse fill="none" stroke="black" cx="441.42" cy="-162" rx="29.34" ry="18"/>
<text text-anchor="middle" x="441.42" y="-156.95" font-family="Times,serif" font-size="14.00">Aura</text>
</g>
<!-- Detect Magic&#45;&gt;Aura -->
<g id="edge6" class="edge">
<title>Detect Magic&#45;&gt;Aura</title>
<path fill="none" stroke="black" d="M287.7,-219.34C322.09,-206.74 372.75,-188.17 406.4,-175.83"/>
<polygon fill="black" stroke="black" points="407.5,-178.79 415.69,-172.07 405.09,-172.22 407.5,-178.79"/>
</g>
<!-- Mage Sight -->
<g id="node9" class="node">
<title>Mage Sight</title>
<ellipse fill="none" stroke="black" cx="54.42" cy="-162" rx="54.42" ry="18"/>
<text text-anchor="middle" x="54.42" y="-156.95" font-family="Times,serif" font-size="14.00">Mage Sight</text>
</g>
<!-- Detect Magic&#45;&gt;Mage Sight -->
<g id="edge7" class="edge">
<title>Detect Magic&#45;&gt;Mage Sight</title>
<path fill="none" stroke="black" d="M212.63,-219.5C180.67,-208.09 134.77,-191.7 100.63,-179.5"/>
<polygon fill="black" stroke="black" points="102.04,-175.93 91.44,-175.86 99.68,-182.52 102.04,-175.93"/>
</g>
<!-- Seek Magic -->
<g id="node10" class="node">
<title>Seek Magic</title>
<ellipse fill="none" stroke="black" cx="182.42" cy="-162" rx="55.45" ry="18"/>
<text text-anchor="middle" x="182.42" y="-156.95" font-family="Times,serif" font-size="14.00">Seek Magic</text>
</g>
<!-- Detect Magic&#45;&gt;Seek Magic -->
<g id="edge8" class="edge">
<title>Detect Magic&#45;&gt;Seek Magic</title>
<path fill="none" stroke="black" d="M234.31,-216.41C225.84,-207.69 215.3,-196.85 205.94,-187.21"/>
<polygon fill="black" stroke="black" points="208.9,-185.2 199.42,-180.47 203.88,-190.08 208.9,-185.2"/>
</g>
<!-- See Secrets -->
<g id="node22" class="node">
<title>See Secrets</title>
<ellipse fill="none" stroke="black" cx="449.42" cy="-90" rx="53.4" ry="18"/>
<text text-anchor="middle" x="449.42" y="-84.95" font-family="Times,serif" font-size="14.00">See Secrets</text>
</g>
<!-- Aura&#45;&gt;See Secrets -->
<g id="edge17" class="edge">
<title>Aura&#45;&gt;See Secrets</title>
<path fill="none" stroke="black" d="M443.4,-143.7C444.25,-136.24 445.27,-127.32 446.23,-118.97"/>
<polygon fill="black" stroke="black" points="449.81,-119.44 447.47,-109.1 442.85,-118.64 449.81,-119.44"/>
</g>
<!-- 5 Knowledge or Earth Vision -->
<g id="node11" class="node">
<title>5 Knowledge or Earth Vision</title>
<ellipse fill="none" stroke="black" cx="1225.42" cy="-234" rx="119.42" ry="18"/>
<text text-anchor="middle" x="1225.42" y="-228.95" font-family="Times,serif" font-size="14.00">5 Knowledge or Earth Vision</text>
</g>
<!-- Glass Wall -->
<g id="node12" class="node">
<title>Glass Wall</title>
<ellipse fill="none" stroke="black" cx="1225.42" cy="-162" rx="50.84" ry="18"/>
<text text-anchor="middle" x="1225.42" y="-156.95" font-family="Times,serif" font-size="14.00">Glass Wall</text>
</g>
<!-- 5 Knowledge or Earth Vision&#45;&gt;Glass Wall -->
<g id="edge9" class="edge">
<title>5 Knowledge or Earth Vision&#45;&gt;Glass Wall</title>
<path fill="none" stroke="black" d="M1225.42,-215.7C1225.42,-208.24 1225.42,-199.32 1225.42,-190.97"/>
<polygon fill="black" stroke="black" points="1228.92,-191.1 1225.42,-181.1 1221.92,-191.1 1228.92,-191.1"/>
</g>
<!-- Trace -->
<g id="node13" class="node">
<title>Trace</title>
<ellipse fill="none" stroke="black" cx="552.42" cy="-90" rx="31.9" ry="18"/>
<text text-anchor="middle" x="552.42" y="-84.95" font-family="Times,serif" font-size="14.00">Trace</text>
</g>
<!-- History -->
<g id="node14" class="node">
<title>History</title>
<ellipse fill="none" stroke="black" cx="552.42" cy="-18" rx="38.56" ry="18"/>
<text text-anchor="middle" x="552.42" y="-12.95" font-family="Times,serif" font-size="14.00">History</text>
</g>
<!-- Trace&#45;&gt;History -->
<g id="edge10" class="edge">
<title>Trace&#45;&gt;History</title>
<path fill="none" stroke="black" d="M552.42,-71.7C552.42,-64.24 552.42,-55.32 552.42,-46.97"/>
<polygon fill="black" stroke="black" points="555.92,-47.1 552.42,-37.1 548.92,-47.1 555.92,-47.1"/>
</g>
<!-- Tell Position -->
<g id="node15" class="node">
<title>Tell Position</title>
<ellipse fill="none" stroke="black" cx="1388.42" cy="-162" rx="58" ry="18"/>
<text text-anchor="middle" x="1388.42" y="-156.95" font-family="Times,serif" font-size="14.00">Tell Position</text>
</g>
<!-- Know Location -->
<g id="node16" class="node">
<title>Know Location</title>
<ellipse fill="none" stroke="black" cx="1388.42" cy="-90" rx="68.75" ry="18"/>
<text text-anchor="middle" x="1388.42" y="-84.95" font-family="Times,serif" font-size="14.00">Know Location</text>
</g>
<!-- Tell Position&#45;&gt;Know Location -->
<g id="edge11" class="edge">
<title>Tell Position&#45;&gt;Know Location</title>
<path fill="none" stroke="black" d="M1388.42,-143.7C1388.42,-136.24 1388.42,-127.32 1388.42,-118.97"/>
<polygon fill="black" stroke="black" points="1391.92,-119.1 1388.42,-109.1 1384.92,-119.1 1391.92,-119.1"/>
</g>
<!-- IQ 12+ -->
<g id="node17" class="node">
<title>IQ 12+</title>
<ellipse fill="none" stroke="black" cx="646.42" cy="-234" rx="38.04" ry="18"/>
<text text-anchor="middle" x="646.42" y="-228.95" font-family="Times,serif" font-size="14.00">IQ 12+</text>
</g>
<!-- Pathfinder -->
<g id="node18" class="node">
<title>Pathfinder</title>
<ellipse fill="none" stroke="black" cx="643.42" cy="-162" rx="49.3" ry="18"/>
<text text-anchor="middle" x="643.42" y="-156.95" font-family="Times,serif" font-size="14.00">Pathfinder</text>
</g>
<!-- IQ 12+&#45;&gt;Pathfinder -->
<g id="edge12" class="edge">
<title>IQ 12+&#45;&gt;Pathfinder</title>
<path fill="none" stroke="black" d="M645.68,-215.7C645.36,-208.24 644.98,-199.32 644.62,-190.97"/>
<polygon fill="black" stroke="black" points="648.08,-190.95 644.16,-181.1 641.09,-191.25 648.08,-190.95"/>
</g>
<!-- Seeker -->
<g id="node19" class="node">
<title>Seeker</title>
<ellipse fill="none" stroke="black" cx="534.42" cy="-162" rx="36" ry="18"/>
<text text-anchor="middle" x="534.42" y="-156.95" font-family="Times,serif" font-size="14.00">Seeker</text>
</g>
<!-- IQ 12+&#45;&gt;Seeker -->
<g id="edge13" class="edge">
<title>IQ 12+&#45;&gt;Seeker</title>
<path fill="none" stroke="black" d="M624.03,-219C607.28,-208.54 584.18,-194.1 565.63,-182.5"/>
<polygon fill="black" stroke="black" points="567.73,-179.07 557.4,-176.73 564.02,-185 567.73,-179.07"/>
</g>
<!-- Seeker&#45;&gt;Trace -->
<g id="edge18" class="edge">
<title>Seeker&#45;&gt;Trace</title>
<path fill="none" stroke="black" d="M538.87,-143.7C540.81,-136.15 543.13,-127.12 545.3,-118.68"/>
<polygon fill="black" stroke="black" points="548.92,-119.66 548.02,-109.1 542.14,-117.92 548.92,-119.66"/>
</g>
<!-- Seeker&#45;&gt;See Secrets -->
<g id="edge19" class="edge">
<title>Seeker&#45;&gt;See Secrets</title>
<path fill="none" stroke="black" d="M516.4,-146.15C504.96,-136.74 489.95,-124.37 477.03,-113.73"/>
<polygon fill="black" stroke="black" points="479.85,-110.7 469.9,-107.04 475.4,-116.1 479.85,-110.7"/>
</g>
<!-- 2 Seek spells -->
<g id="node20" class="node">
<title>2 Seek spells</title>
<ellipse fill="none" stroke="black" cx="530.42" cy="-234" rx="59.54" ry="18"/>
<text text-anchor="middle" x="530.42" y="-228.95" font-family="Times,serif" font-size="14.00">2 Seek spells</text>
</g>
<!-- 2 Seek spells&#45;&gt;Pathfinder -->
<g id="edge14" class="edge">
<title>2 Seek spells&#45;&gt;Pathfinder</title>
<path fill="none" stroke="black" d="M555.78,-217.29C571.81,-207.36 592.71,-194.41 610.08,-183.66"/>
<polygon fill="black" stroke="black" points="611.65,-186.18 618.31,-177.94 607.96,-180.23 611.65,-186.18"/>
</g>
<!-- 2 Seek spells&#45;&gt;Seeker -->
<g id="edge15" class="edge">
<title>2 Seek spells&#45;&gt;Seeker</title>
<path fill="none" stroke="black" d="M531.41,-215.7C531.84,-208.24 532.35,-199.32 532.82,-190.97"/>
<polygon fill="black" stroke="black" points="536.37,-191.29 533.44,-181.1 529.38,-190.89 536.37,-191.29"/>
</g>
<!-- 4 Knowledge -->
<g id="node21" class="node">
<title>4 Knowledge</title>
<ellipse fill="none" stroke="black" cx="1027.42" cy="-234" rx="60.56" ry="18"/>
<text text-anchor="middle" x="1027.42" y="-228.95" font-family="Times,serif" font-size="14.00">4 Knowledge</text>
</g>
<!-- 4 Knowledge&#45;&gt;Projection -->
<g id="edge16" class="edge">
<title>4 Knowledge&#45;&gt;Projection</title>
<path fill="none" stroke="black" d="M1019.02,-215.7C1015.23,-207.9 1010.67,-198.51 1006.45,-189.83"/>
<polygon fill="black" stroke="black" points="1009.25,-188.57 1001.73,-181.1 1002.95,-191.63 1009.25,-188.57"/>
</g>
<!-- Measurement -->
<g id="node23" class="node">
<title>Measurement</title>
<ellipse fill="none" stroke="black" cx="1468.42" cy="-234" rx="62.1" ry="18"/>
<text text-anchor="middle" x="1468.42" y="-228.95" font-family="Times,serif" font-size="14.00">Measurement</text>
</g>
<!-- Measurement&#45;&gt;Tell Position -->
<g id="edge20" class="edge">
<title>Measurement&#45;&gt;Tell Position</title>
<path fill="none" stroke="black" d="M1449.46,-216.41C1439.3,-207.52 1426.61,-196.41 1415.43,-186.63"/>
<polygon fill="black" stroke="black" points="1418.08,-183.42 1408.25,-179.47 1413.47,-188.69 1418.08,-183.42"/>
</g>
<!-- Test Load -->
<g id="node24" class="node">
<title>Test Load</title>
<ellipse fill="none" stroke="black" cx="1512.42" cy="-162" rx="47.77" ry="18"/>
<text text-anchor="middle" x="1512.42" y="-156.95" font-family="Times,serif" font-size="14.00">Test Load</text>
</g>
<!-- Measurement&#45;&gt;Test Load -->
<g id="edge21" class="edge">
<title>Measurement&#45;&gt;Test Load</title>
<path fill="none" stroke="black" d="M1479.07,-216.05C1484.21,-207.89 1490.48,-197.91 1496.19,-188.82"/>
<polygon fill="black" stroke="black" points="1499.51,-191.12 1501.87,-180.79 1493.58,-187.39 1499.51,-191.12"/>
</g>
<!-- Keen Vision -->
<g id="node25" class="node">
<title>Keen Vision</title>
<ellipse fill="none" stroke="black" cx="1605.42" cy="-234" rx="56.47" ry="18"/>
<text text-anchor="middle" x="1605.42" y="-228.95" font-family="Times,serif" font-size="14.00">Keen Vision</text>
</g>
<!-- Wizard Eye -->
<g id="node26" class="node">
<title>Wizard Eye</title>
<ellipse fill="none" stroke="black" cx="1684.42" cy="-162" rx="54.93" ry="18"/>
<text text-anchor="middle" x="1684.42" y="-156.95" font-family="Times,serif" font-size="14.00">Wizard Eye</text>
</g>
<!-- Keen Vision&#45;&gt;Wizard Eye -->
<g id="edge22" class="edge">
<title>Keen Vision&#45;&gt;Wizard Eye</title>
<path fill="none" stroke="black" d="M1623.75,-216.76C1633.84,-207.82 1646.56,-196.55 1657.74,-186.64"/>
<polygon fill="black" stroke="black" points="1659.76,-189.64 1664.93,-180.39 1655.12,-184.4 1659.76,-189.64"/>
</g>
<!-- Apportation -->
<g id="node27" class="node">
<title>Apportation</title>
<ellipse fill="none" stroke="black" cx="1735.42" cy="-234" rx="55.45" ry="18"/>
<text text-anchor="middle" x="1735.42" y="-228.95" font-family="Times,serif" font-size="14.00">Apportation</text>
</g>
<!-- Apportation&#45;&gt;Wizard Eye -->
<g id="edge23" class="edge">
<title>Apportation&#45;&gt;Wizard Eye</title>
<path fill="none" stroke="black" d="M1723.08,-216.05C1717.06,-207.8 1709.7,-197.7 1703.03,-188.54"/>
<polygon fill="black" stroke="black" points="1705.37,-186.81 1696.65,-180.79 1699.71,-190.93 1705.37,-186.81"/>
</g>
</g>
</svg>
