<?xml version="1.0" encoding="UTF-8" standalone="no"?>
<!DOCTYPE svg PUBLIC "-//W3C//DTD SVG 1.1//EN"
 "http://www.w3.org/Graphics/SVG/1.1/DTD/svg11.dtd">
<!-- Generated by graphviz version 8.0.5 (20230430.1635)
 -->
<!-- Pages: 1 -->
<svg width="1580pt" height="332pt"
 viewBox="0.00 0.00 1579.61 332.00" xmlns="http://www.w3.org/2000/svg" xmlns:xlink="http://www.w3.org/1999/xlink">
<g id="graph0" class="graph" transform="scale(1 1) rotate(0) translate(4 328)">
<polygon fill="white" stroke="none" points="-4,4 -4,-328 1575.61,-328 1575.61,4 -4,4"/>
<!-- Darkness -->
<g id="node1" class="node">
<title>Darkness</title>
<ellipse fill="none" stroke="black" cx="392" cy="-162" rx="45.21" ry="18"/>
<text text-anchor="middle" x="392" y="-156.95" font-family="Times,serif" font-size="14.00">Darkness</text>
</g>
<!-- Blackout -->
<g id="node2" class="node">
<title>Blackout</title>
<ellipse fill="none" stroke="black" cx="392" cy="-90" rx="44.19" ry="18"/>
<text text-anchor="middle" x="392" y="-84.95" font-family="Times,serif" font-size="14.00">Blackout</text>
</g>
<!-- Darkness&#45;&gt;Blackout -->
<g id="edge1" class="edge">
<title>Darkness&#45;&gt;Blackout</title>
<path fill="none" stroke="black" d="M392,-143.7C392,-136.24 392,-127.32 392,-118.97"/>
<polygon fill="black" stroke="black" points="395.5,-119.1 392,-109.1 388.5,-119.1 395.5,-119.1"/>
</g>
<!-- Blur -->
<g id="node3" class="node">
<title>Blur</title>
<ellipse fill="none" stroke="black" cx="481" cy="-90" rx="27.3" ry="18"/>
<text text-anchor="middle" x="481" y="-84.95" font-family="Times,serif" font-size="14.00">Blur</text>
</g>
<!-- Darkness&#45;&gt;Blur -->
<g id="edge2" class="edge">
<title>Darkness&#45;&gt;Blur</title>
<path fill="none" stroke="black" d="M411.75,-145.46C424.6,-135.35 441.5,-122.07 455.38,-111.15"/>
<polygon fill="black" stroke="black" points="457.3,-113.3 463,-104.37 452.97,-107.8 457.3,-113.3"/>
</g>
<!-- Invisibility -->
<g id="node18" class="node">
<title>Invisibility</title>
<ellipse fill="none" stroke="black" cx="308" cy="-18" rx="51.35" ry="18"/>
<text text-anchor="middle" x="308" y="-12.95" font-family="Times,serif" font-size="14.00">Invisibility</text>
</g>
<!-- Blur&#45;&gt;Invisibility -->
<g id="edge15" class="edge">
<title>Blur&#45;&gt;Invisibility</title>
<path fill="none" stroke="black" d="M459.41,-78.5C454.69,-76.29 449.7,-74.02 445,-72 414.58,-58.96 379.8,-45.52 352.89,-35.43"/>
<polygon fill="black" stroke="black" points="354.21,-31.82 343.62,-31.61 351.77,-38.38 354.21,-31.82"/>
</g>
<!-- Keen Vision or 5 Light &amp; Darkness -->
<g id="node4" class="node">
<title>Keen Vision or 5 Light &amp; Darkness</title>
<ellipse fill="none" stroke="black" cx="549" cy="-306" rx="143.48" ry="18"/>
<text text-anchor="middle" x="549" y="-300.95" font-family="Times,serif" font-size="14.00">Keen Vision or 5 Light &amp; Darkness</text>
</g>
<!-- Bright Vision -->
<g id="node5" class="node">
<title>Bright Vision</title>
<ellipse fill="none" stroke="black" cx="355" cy="-234" rx="60.56" ry="18"/>
<text text-anchor="middle" x="355" y="-228.95" font-family="Times,serif" font-size="14.00">Bright Vision</text>
</g>
<!-- Keen Vision or 5 Light &amp; Darkness&#45;&gt;Bright Vision -->
<g id="edge3" class="edge">
<title>Keen Vision or 5 Light &amp; Darkness&#45;&gt;Bright Vision</title>
<path fill="none" stroke="black" d="M503.51,-288.59C473.13,-277.62 433.24,-263.23 402.45,-252.12"/>
<polygon fill="black" stroke="black" points="403.98,-248.59 393.39,-248.49 401.6,-255.18 403.98,-248.59"/>
</g>
<!-- Hawk Vision -->
<g id="node6" class="node">
<title>Hawk Vision</title>
<ellipse fill="none" stroke="black" cx="493" cy="-234" rx="59.03" ry="18"/>
<text text-anchor="middle" x="493" y="-228.95" font-family="Times,serif" font-size="14.00">Hawk Vision</text>
</g>
<!-- Keen Vision or 5 Light &amp; Darkness&#45;&gt;Hawk Vision -->
<g id="edge4" class="edge">
<title>Keen Vision or 5 Light &amp; Darkness&#45;&gt;Hawk Vision</title>
<path fill="none" stroke="black" d="M535.15,-287.7C528.48,-279.35 520.34,-269.18 513.01,-260.02"/>
<polygon fill="black" stroke="black" points="515.28,-258.24 506.3,-252.62 509.81,-262.62 515.28,-258.24"/>
</g>
<!-- Infravision -->
<g id="node7" class="node">
<title>Infravision</title>
<ellipse fill="none" stroke="black" cx="621" cy="-234" rx="51.35" ry="18"/>
<text text-anchor="middle" x="621" y="-228.95" font-family="Times,serif" font-size="14.00">Infravision</text>
</g>
<!-- Keen Vision or 5 Light &amp; Darkness&#45;&gt;Infravision -->
<g id="edge5" class="edge">
<title>Keen Vision or 5 Light &amp; Darkness&#45;&gt;Infravision</title>
<path fill="none" stroke="black" d="M566.79,-287.7C575.77,-278.97 586.8,-268.24 596.56,-258.75"/>
<polygon fill="black" stroke="black" points="598.66,-261.62 603.39,-252.14 593.78,-256.61 598.66,-261.62"/>
</g>
<!-- Night Vision -->
<g id="node8" class="node">
<title>Night Vision</title>
<ellipse fill="none" stroke="black" cx="748" cy="-234" rx="58" ry="18"/>
<text text-anchor="middle" x="748" y="-228.95" font-family="Times,serif" font-size="14.00">Night Vision</text>
</g>
<!-- Keen Vision or 5 Light &amp; Darkness&#45;&gt;Night Vision -->
<g id="edge6" class="edge">
<title>Keen Vision or 5 Light &amp; Darkness&#45;&gt;Night Vision</title>
<path fill="none" stroke="black" d="M595.65,-288.59C627.13,-277.51 668.55,-262.94 700.26,-251.79"/>
<polygon fill="black" stroke="black" points="701.34,-254.77 709.61,-248.15 699.01,-248.17 701.34,-254.77"/>
</g>
<!-- Light -->
<g id="node9" class="node">
<title>Light</title>
<ellipse fill="none" stroke="black" cx="146" cy="-306" rx="30.88" ry="18"/>
<text text-anchor="middle" x="146" y="-300.95" font-family="Times,serif" font-size="14.00">Light</text>
</g>
<!-- Colors -->
<g id="node10" class="node">
<title>Colors</title>
<ellipse fill="none" stroke="black" cx="84" cy="-234" rx="35.49" ry="18"/>
<text text-anchor="middle" x="84" y="-228.95" font-family="Times,serif" font-size="14.00">Colors</text>
</g>
<!-- Light&#45;&gt;Colors -->
<g id="edge7" class="edge">
<title>Light&#45;&gt;Colors</title>
<path fill="none" stroke="black" d="M132.24,-289.46C124.32,-280.53 114.21,-269.11 105.29,-259.04"/>
<polygon fill="black" stroke="black" points="108.4,-257.14 99.15,-251.98 103.16,-261.78 108.4,-257.14"/>
</g>
<!-- Continual Light -->
<g id="node11" class="node">
<title>Continual Light</title>
<ellipse fill="none" stroke="black" cx="207" cy="-234" rx="69.78" ry="18"/>
<text text-anchor="middle" x="207" y="-228.95" font-family="Times,serif" font-size="14.00">Continual Light</text>
</g>
<!-- Light&#45;&gt;Continual Light -->
<g id="edge8" class="edge">
<title>Light&#45;&gt;Continual Light</title>
<path fill="none" stroke="black" d="M159.54,-289.46C167.03,-280.87 176.52,-269.97 185.05,-260.19"/>
<polygon fill="black" stroke="black" points="188.29,-262.8 192.22,-252.96 183.01,-258.2 188.29,-262.8"/>
</g>
<!-- Mirror -->
<g id="node22" class="node">
<title>Mirror</title>
<ellipse fill="none" stroke="black" cx="36" cy="-162" rx="36" ry="18"/>
<text text-anchor="middle" x="36" y="-156.95" font-family="Times,serif" font-size="14.00">Mirror</text>
</g>
<!-- Colors&#45;&gt;Mirror -->
<g id="edge17" class="edge">
<title>Colors&#45;&gt;Mirror</title>
<path fill="none" stroke="black" d="M72.86,-216.76C67.05,-208.28 59.8,-197.71 53.28,-188.2"/>
<polygon fill="black" stroke="black" points="55.61,-186.42 47.07,-180.15 49.84,-190.37 55.61,-186.42"/>
</g>
<!-- Sunlight -->
<g id="node23" class="node">
<title>Sunlight</title>
<ellipse fill="none" stroke="black" cx="100" cy="-90" rx="42.14" ry="18"/>
<text text-anchor="middle" x="100" y="-84.95" font-family="Times,serif" font-size="14.00">Sunlight</text>
</g>
<!-- Colors&#45;&gt;Sunlight -->
<g id="edge18" class="edge">
<title>Colors&#45;&gt;Sunlight</title>
<path fill="none" stroke="black" d="M85.96,-215.59C88.67,-191.5 93.6,-147.75 96.84,-119.03"/>
<polygon fill="black" stroke="black" points="100.43,-119.44 98.07,-109.11 93.47,-118.66 100.43,-119.44"/>
</g>
<!-- Continual Light&#45;&gt;Darkness -->
<g id="edge10" class="edge">
<title>Continual Light&#45;&gt;Darkness</title>
<path fill="none" stroke="black" d="M245.33,-218.5C275.76,-206.98 318.26,-190.9 349.68,-179.01"/>
<polygon fill="black" stroke="black" points="350.76,-181.97 358.88,-175.15 348.29,-175.42 350.76,-181.97"/>
</g>
<!-- Glow -->
<g id="node14" class="node">
<title>Glow</title>
<ellipse fill="none" stroke="black" cx="191" cy="-162" rx="31.39" ry="18"/>
<text text-anchor="middle" x="191" y="-156.95" font-family="Times,serif" font-size="14.00">Glow</text>
</g>
<!-- Continual Light&#45;&gt;Glow -->
<g id="edge11" class="edge">
<title>Continual Light&#45;&gt;Glow</title>
<path fill="none" stroke="black" d="M203.04,-215.7C201.32,-208.15 199.25,-199.12 197.32,-190.68"/>
<polygon fill="black" stroke="black" points="200.55,-190.07 194.91,-181.1 193.72,-191.63 200.55,-190.07"/>
</g>
<!-- Night Vision or Infravision -->
<g id="node12" class="node">
<title>Night Vision or Infravision</title>
<ellipse fill="none" stroke="black" cx="879" cy="-306" rx="111.23" ry="18"/>
<text text-anchor="middle" x="879" y="-300.95" font-family="Times,serif" font-size="14.00">Night Vision or Infravision</text>
</g>
<!-- Dark Vision -->
<g id="node13" class="node">
<title>Dark Vision</title>
<ellipse fill="none" stroke="black" cx="879" cy="-234" rx="55.45" ry="18"/>
<text text-anchor="middle" x="879" y="-228.95" font-family="Times,serif" font-size="14.00">Dark Vision</text>
</g>
<!-- Night Vision or Infravision&#45;&gt;Dark Vision -->
<g id="edge9" class="edge">
<title>Night Vision or Infravision&#45;&gt;Dark Vision</title>
<path fill="none" stroke="black" d="M879,-287.7C879,-280.24 879,-271.32 879,-262.97"/>
<polygon fill="black" stroke="black" points="882.5,-263.1 879,-253.1 875.5,-263.1 882.5,-263.1"/>
</g>
<!-- See Invisible -->
<g id="node25" class="node">
<title>See Invisible</title>
<ellipse fill="none" stroke="black" cx="968" cy="-162" rx="59.03" ry="18"/>
<text text-anchor="middle" x="968" y="-156.95" font-family="Times,serif" font-size="14.00">See Invisible</text>
</g>
<!-- Dark Vision&#45;&gt;See Invisible -->
<g id="edge20" class="edge">
<title>Dark Vision&#45;&gt;See Invisible</title>
<path fill="none" stroke="black" d="M899.19,-217.12C910.86,-207.94 925.74,-196.23 938.68,-186.06"/>
<polygon fill="black" stroke="black" points="940.57,-188.24 946.26,-179.31 936.24,-182.74 940.57,-188.24"/>
</g>
<!-- Glow&#45;&gt;Sunlight -->
<g id="edge22" class="edge">
<title>Glow&#45;&gt;Sunlight</title>
<path fill="none" stroke="black" d="M173.02,-147.17C160.32,-137.4 143.05,-124.11 128.48,-112.91"/>
<polygon fill="black" stroke="black" points="130.89,-109.58 120.83,-106.26 126.63,-115.13 130.89,-109.58"/>
</g>
<!-- Blur or Forgetfulness -->
<g id="node15" class="node">
<title>Blur or Forgetfulness</title>
<ellipse fill="none" stroke="black" cx="1208" cy="-306" rx="90.25" ry="18"/>
<text text-anchor="middle" x="1208" y="-300.95" font-family="Times,serif" font-size="14.00">Blur or Forgetfulness</text>
</g>
<!-- Hide -->
<g id="node16" class="node">
<title>Hide</title>
<ellipse fill="none" stroke="black" cx="1208" cy="-234" rx="28.83" ry="18"/>
<text text-anchor="middle" x="1208" y="-228.95" font-family="Times,serif" font-size="14.00">Hide</text>
</g>
<!-- Blur or Forgetfulness&#45;&gt;Hide -->
<g id="edge12" class="edge">
<title>Blur or Forgetfulness&#45;&gt;Hide</title>
<path fill="none" stroke="black" d="M1208,-287.7C1208,-280.24 1208,-271.32 1208,-262.97"/>
<polygon fill="black" stroke="black" points="1211.5,-263.1 1208,-253.1 1204.5,-263.1 1211.5,-263.1"/>
</g>
<!-- 6 Light &amp; Darkness -->
<g id="node17" class="node">
<title>6 Light &amp; Darkness</title>
<ellipse fill="none" stroke="black" cx="245" cy="-90" rx="85.13" ry="18"/>
<text text-anchor="middle" x="245" y="-84.95" font-family="Times,serif" font-size="14.00">6 Light &amp; Darkness</text>
</g>
<!-- 6 Light &amp; Darkness&#45;&gt;Invisibility -->
<g id="edge13" class="edge">
<title>6 Light &amp; Darkness&#45;&gt;Invisibility</title>
<path fill="none" stroke="black" d="M260.25,-72.05C268.02,-63.42 277.61,-52.76 286.16,-43.27"/>
<polygon fill="black" stroke="black" points="288.23,-46.08 292.32,-36.31 283.03,-41.4 288.23,-46.08"/>
</g>
<!-- Sunbolt -->
<g id="node19" class="node">
<title>Sunbolt</title>
<ellipse fill="none" stroke="black" cx="181" cy="-18" rx="39.58" ry="18"/>
<text text-anchor="middle" x="181" y="-12.95" font-family="Times,serif" font-size="14.00">Sunbolt</text>
</g>
<!-- 6 Light &amp; Darkness&#45;&gt;Sunbolt -->
<g id="edge14" class="edge">
<title>6 Light &amp; Darkness&#45;&gt;Sunbolt</title>
<path fill="none" stroke="black" d="M229.5,-72.05C221.49,-63.29 211.58,-52.45 202.81,-42.86"/>
<polygon fill="black" stroke="black" points="205.8,-40.85 196.47,-35.83 200.63,-45.57 205.8,-40.85"/>
</g>
<!-- Continual Light or Shape Light -->
<g id="node20" class="node">
<title>Continual Light or Shape Light</title>
<ellipse fill="none" stroke="black" cx="1444" cy="-306" rx="127.61" ry="18"/>
<text text-anchor="middle" x="1444" y="-300.95" font-family="Times,serif" font-size="14.00">Continual Light or Shape Light</text>
</g>
<!-- Light Jet -->
<g id="node21" class="node">
<title>Light Jet</title>
<ellipse fill="none" stroke="black" cx="1444" cy="-234" rx="43.67" ry="18"/>
<text text-anchor="middle" x="1444" y="-228.95" font-family="Times,serif" font-size="14.00">Light Jet</text>
</g>
<!-- Continual Light or Shape Light&#45;&gt;Light Jet -->
<g id="edge16" class="edge">
<title>Continual Light or Shape Light&#45;&gt;Light Jet</title>
<path fill="none" stroke="black" d="M1444,-287.7C1444,-280.24 1444,-271.32 1444,-262.97"/>
<polygon fill="black" stroke="black" points="1447.5,-263.1 1444,-253.1 1440.5,-263.1 1447.5,-263.1"/>
</g>
<!-- Sunlight&#45;&gt;Sunbolt -->
<g id="edge21" class="edge">
<title>Sunlight&#45;&gt;Sunbolt</title>
<path fill="none" stroke="black" d="M117.97,-73.46C128.88,-64.04 142.98,-51.85 155.08,-41.4"/>
<polygon fill="black" stroke="black" points="156.79,-43.68 162.07,-34.49 152.22,-38.38 156.79,-43.68"/>
</g>
<!-- Infravision or Invisibility -->
<g id="node24" class="node">
<title>Infravision or Invisibility</title>
<ellipse fill="none" stroke="black" cx="1057" cy="-234" rx="104.58" ry="18"/>
<text text-anchor="middle" x="1057" y="-228.95" font-family="Times,serif" font-size="14.00">Infravision or Invisibility</text>
</g>
<!-- Infravision or Invisibility&#45;&gt;See Invisible -->
<g id="edge19" class="edge">
<title>Infravision or Invisibility&#45;&gt;See Invisible</title>
<path fill="none" stroke="black" d="M1035.45,-216.05C1023.92,-206.98 1009.55,-195.68 997.04,-185.84"/>
<polygon fill="black" stroke="black" points="999.75,-182.74 989.73,-179.31 995.43,-188.24 999.75,-182.74"/>
</g>
</g>
</svg>
