<?xml version="1.0" encoding="UTF-8" standalone="no"?>
<!DOCTYPE svg PUBLIC "-//W3C//DTD SVG 1.1//EN"
 "http://www.w3.org/Graphics/SVG/1.1/DTD/svg11.dtd">
<!-- Generated by graphviz version 8.0.5 (20230430.1635)
 -->
<!-- Pages: 1 -->
<svg width="771pt" height="476pt"
 viewBox="0.00 0.00 770.69 476.00" xmlns="http://www.w3.org/2000/svg" xmlns:xlink="http://www.w3.org/1999/xlink">
<g id="graph0" class="graph" transform="scale(1 1) rotate(0) translate(4 472)">
<polygon fill="white" stroke="none" points="-4,4 -4,-472 766.69,-472 766.69,4 -4,4"/>
<!-- Restore -->
<g id="node1" class="node">
<title>Restore</title>
<ellipse fill="none" stroke="black" cx="431.83" cy="-306" rx="39.07" ry="18"/>
<text text-anchor="middle" x="431.83" y="-300.95" font-family="Times,serif" font-size="14.00">Restore</text>
</g>
<!-- Copy -->
<g id="node2" class="node">
<title>Copy</title>
<ellipse fill="none" stroke="black" cx="289.83" cy="-234" rx="30.88" ry="18"/>
<text text-anchor="middle" x="289.83" y="-228.95" font-family="Times,serif" font-size="14.00">Copy</text>
</g>
<!-- Restore&#45;&gt;Copy -->
<g id="edge1" class="edge">
<title>Restore&#45;&gt;Copy</title>
<path fill="none" stroke="black" d="M405.79,-292.16C382.32,-280.59 347.72,-263.54 322.43,-251.07"/>
<polygon fill="black" stroke="black" points="324.41,-247.65 313.89,-246.37 321.31,-253.93 324.41,-247.65"/>
</g>
<!-- Rejoin -->
<g id="node3" class="node">
<title>Rejoin</title>
<ellipse fill="none" stroke="black" cx="440.83" cy="-234" rx="35.49" ry="18"/>
<text text-anchor="middle" x="440.83" y="-228.95" font-family="Times,serif" font-size="14.00">Rejoin</text>
</g>
<!-- Restore&#45;&gt;Rejoin -->
<g id="edge2" class="edge">
<title>Restore&#45;&gt;Rejoin</title>
<path fill="none" stroke="black" d="M434.06,-287.7C435.02,-280.24 436.16,-271.32 437.24,-262.97"/>
<polygon fill="black" stroke="black" points="440.83,-263.47 438.63,-253.1 433.89,-262.58 440.83,-263.47"/>
</g>
<!-- Mapmaker -->
<g id="node15" class="node">
<title>Mapmaker</title>
<ellipse fill="none" stroke="black" cx="225.83" cy="-162" rx="51.86" ry="18"/>
<text text-anchor="middle" x="225.83" y="-156.95" font-family="Times,serif" font-size="14.00">Mapmaker</text>
</g>
<!-- Copy&#45;&gt;Mapmaker -->
<g id="edge12" class="edge">
<title>Copy&#45;&gt;Mapmaker</title>
<path fill="none" stroke="black" d="M275.94,-217.81C267.9,-209.02 257.58,-197.73 248.4,-187.69"/>
<polygon fill="black" stroke="black" points="251.36,-185.65 242.03,-180.63 246.2,-190.37 251.36,-185.65"/>
</g>
<!-- Stiffen -->
<g id="node13" class="node">
<title>Stiffen</title>
<ellipse fill="none" stroke="black" cx="369.83" cy="-162" rx="36" ry="18"/>
<text text-anchor="middle" x="369.83" y="-156.95" font-family="Times,serif" font-size="14.00">Stiffen</text>
</g>
<!-- Rejoin&#45;&gt;Stiffen -->
<g id="edge15" class="edge">
<title>Rejoin&#45;&gt;Stiffen</title>
<path fill="none" stroke="black" d="M425.07,-217.46C415.7,-208.22 403.63,-196.32 393.16,-186"/>
<polygon fill="black" stroke="black" points="396.12,-184.02 386.54,-179.49 391.21,-189 396.12,-184.02"/>
</g>
<!-- Repair -->
<g id="node18" class="node">
<title>Repair</title>
<ellipse fill="none" stroke="black" cx="458.83" cy="-162" rx="35.49" ry="18"/>
<text text-anchor="middle" x="458.83" y="-156.95" font-family="Times,serif" font-size="14.00">Repair</text>
</g>
<!-- Rejoin&#45;&gt;Repair -->
<g id="edge16" class="edge">
<title>Rejoin&#45;&gt;Repair</title>
<path fill="none" stroke="black" d="M445.28,-215.7C447.22,-208.15 449.54,-199.12 451.71,-190.68"/>
<polygon fill="black" stroke="black" points="455.33,-191.66 454.43,-181.1 448.55,-189.92 455.33,-191.66"/>
</g>
<!-- 5 Making &amp; Breaking -->
<g id="node4" class="node">
<title>5 Making &amp; Breaking</title>
<ellipse fill="none" stroke="black" cx="93.83" cy="-306" rx="93.83" ry="18"/>
<text text-anchor="middle" x="93.83" y="-300.95" font-family="Times,serif" font-size="14.00">5 Making &amp; Breaking</text>
</g>
<!-- 5 Making &amp; Breaking&#45;&gt;Copy -->
<g id="edge3" class="edge">
<title>5 Making &amp; Breaking&#45;&gt;Copy</title>
<path fill="none" stroke="black" d="M140.92,-290.01C172.04,-279.86 213.62,-265.82 249.83,-252 251.79,-251.25 253.79,-250.47 255.8,-249.66"/>
<polygon fill="black" stroke="black" points="256.92,-252.58 264.84,-245.54 254.26,-246.1 256.92,-252.58"/>
</g>
<!-- 1 Written Language -->
<g id="node5" class="node">
<title>1 Written Language</title>
<ellipse fill="none" stroke="black" cx="289.83" cy="-306" rx="84.62" ry="18"/>
<text text-anchor="middle" x="289.83" y="-300.95" font-family="Times,serif" font-size="14.00">1 Written Language</text>
</g>
<!-- 1 Written Language&#45;&gt;Copy -->
<g id="edge4" class="edge">
<title>1 Written Language&#45;&gt;Copy</title>
<path fill="none" stroke="black" d="M289.83,-287.7C289.83,-280.24 289.83,-271.32 289.83,-262.97"/>
<polygon fill="black" stroke="black" points="293.33,-263.1 289.83,-253.1 286.33,-263.1 293.33,-263.1"/>
</g>
<!-- Knot -->
<g id="node6" class="node">
<title>Knot</title>
<ellipse fill="none" stroke="black" cx="369.83" cy="-90" rx="29.34" ry="18"/>
<text text-anchor="middle" x="369.83" y="-84.95" font-family="Times,serif" font-size="14.00">Knot</text>
</g>
<!-- Fasten -->
<g id="node7" class="node">
<title>Fasten</title>
<ellipse fill="none" stroke="black" cx="369.83" cy="-18" rx="34.97" ry="18"/>
<text text-anchor="middle" x="369.83" y="-12.95" font-family="Times,serif" font-size="14.00">Fasten</text>
</g>
<!-- Knot&#45;&gt;Fasten -->
<g id="edge5" class="edge">
<title>Knot&#45;&gt;Fasten</title>
<path fill="none" stroke="black" d="M369.83,-71.7C369.83,-64.24 369.83,-55.32 369.83,-46.97"/>
<polygon fill="black" stroke="black" points="373.33,-47.1 369.83,-37.1 366.33,-47.1 373.33,-47.1"/>
</g>
<!-- 1 Water -->
<g id="node8" class="node">
<title>1 Water</title>
<ellipse fill="none" stroke="black" cx="466.83" cy="-450" rx="39.58" ry="18"/>
<text text-anchor="middle" x="466.83" y="-444.95" font-family="Times,serif" font-size="14.00">1 Water</text>
</g>
<!-- Find Weakness -->
<g id="node9" class="node">
<title>Find Weakness</title>
<ellipse fill="none" stroke="black" cx="601.83" cy="-378" rx="66.71" ry="18"/>
<text text-anchor="middle" x="601.83" y="-372.95" font-family="Times,serif" font-size="14.00">Find Weakness</text>
</g>
<!-- 1 Water&#45;&gt;Find Weakness -->
<g id="edge6" class="edge">
<title>1 Water&#45;&gt;Find Weakness</title>
<path fill="none" stroke="black" d="M492.22,-435.83C511.92,-425.62 539.57,-411.28 562.18,-399.56"/>
<polygon fill="black" stroke="black" points="563.57,-402.26 570.84,-394.55 560.35,-396.05 563.57,-402.26"/>
</g>
<!-- Weaken -->
<g id="node16" class="node">
<title>Weaken</title>
<ellipse fill="none" stroke="black" cx="549.83" cy="-306" rx="40.6" ry="18"/>
<text text-anchor="middle" x="549.83" y="-300.95" font-family="Times,serif" font-size="14.00">Weaken</text>
</g>
<!-- Find Weakness&#45;&gt;Weaken -->
<g id="edge22" class="edge">
<title>Find Weakness&#45;&gt;Weaken</title>
<path fill="none" stroke="black" d="M589.24,-360.05C583.02,-351.68 575.39,-341.4 568.5,-332.13"/>
<polygon fill="black" stroke="black" points="570.72,-330.25 561.95,-324.31 565.1,-334.42 570.72,-330.25"/>
</g>
<!-- 1 Fire -->
<g id="node10" class="node">
<title>1 Fire</title>
<ellipse fill="none" stroke="black" cx="557.83" cy="-450" rx="32.93" ry="18"/>
<text text-anchor="middle" x="557.83" y="-444.95" font-family="Times,serif" font-size="14.00">1 Fire</text>
</g>
<!-- 1 Fire&#45;&gt;Find Weakness -->
<g id="edge7" class="edge">
<title>1 Fire&#45;&gt;Find Weakness</title>
<path fill="none" stroke="black" d="M568.04,-432.76C573.16,-424.61 579.5,-414.53 585.3,-405.31"/>
<polygon fill="black" stroke="black" points="588.71,-407.45 591.07,-397.12 582.78,-403.73 588.71,-407.45"/>
</g>
<!-- 1 Earth -->
<g id="node11" class="node">
<title>1 Earth</title>
<ellipse fill="none" stroke="black" cx="646.83" cy="-450" rx="38.04" ry="18"/>
<text text-anchor="middle" x="646.83" y="-444.95" font-family="Times,serif" font-size="14.00">1 Earth</text>
</g>
<!-- 1 Earth&#45;&gt;Find Weakness -->
<g id="edge8" class="edge">
<title>1 Earth&#45;&gt;Find Weakness</title>
<path fill="none" stroke="black" d="M636.17,-432.41C630.92,-424.25 624.47,-414.22 618.59,-405.07"/>
<polygon fill="black" stroke="black" points="621.08,-403.48 612.73,-396.96 615.2,-407.26 621.08,-403.48"/>
</g>
<!-- 1 Air -->
<g id="node12" class="node">
<title>1 Air</title>
<ellipse fill="none" stroke="black" cx="732.83" cy="-450" rx="29.86" ry="18"/>
<text text-anchor="middle" x="732.83" y="-444.95" font-family="Times,serif" font-size="14.00">1 Air</text>
</g>
<!-- 1 Air&#45;&gt;Find Weakness -->
<g id="edge9" class="edge">
<title>1 Air&#45;&gt;Find Weakness</title>
<path fill="none" stroke="black" d="M710.91,-437.28C691.66,-427 663.22,-411.81 640.21,-399.51"/>
<polygon fill="black" stroke="black" points="642.2,-396.07 631.73,-394.44 638.9,-402.24 642.2,-396.07"/>
</g>
<!-- Stiffen&#45;&gt;Knot -->
<g id="edge10" class="edge">
<title>Stiffen&#45;&gt;Knot</title>
<path fill="none" stroke="black" d="M369.83,-143.7C369.83,-136.24 369.83,-127.32 369.83,-118.97"/>
<polygon fill="black" stroke="black" points="373.33,-119.1 369.83,-109.1 366.33,-119.1 373.33,-119.1"/>
</g>
<!-- Measurement -->
<g id="node14" class="node">
<title>Measurement</title>
<ellipse fill="none" stroke="black" cx="178.83" cy="-234" rx="62.1" ry="18"/>
<text text-anchor="middle" x="178.83" y="-228.95" font-family="Times,serif" font-size="14.00">Measurement</text>
</g>
<!-- Measurement&#45;&gt;Mapmaker -->
<g id="edge11" class="edge">
<title>Measurement&#45;&gt;Mapmaker</title>
<path fill="none" stroke="black" d="M190.21,-216.05C195.69,-207.89 202.39,-197.91 208.49,-188.82"/>
<polygon fill="black" stroke="black" points="211.89,-191.04 214.56,-180.79 206.08,-187.14 211.89,-191.04"/>
</g>
<!-- Weaken&#45;&gt;Rejoin -->
<g id="edge13" class="edge">
<title>Weaken&#45;&gt;Rejoin</title>
<path fill="none" stroke="black" d="M527.51,-290.67C511.17,-280.17 488.83,-265.82 470.92,-254.32"/>
<polygon fill="black" stroke="black" points="473.32,-251.06 463.01,-248.6 469.53,-256.95 473.32,-251.06"/>
</g>
<!-- Shatter -->
<g id="node17" class="node">
<title>Shatter</title>
<ellipse fill="none" stroke="black" cx="549.83" cy="-234" rx="37.02" ry="18"/>
<text text-anchor="middle" x="549.83" y="-228.95" font-family="Times,serif" font-size="14.00">Shatter</text>
</g>
<!-- Weaken&#45;&gt;Shatter -->
<g id="edge14" class="edge">
<title>Weaken&#45;&gt;Shatter</title>
<path fill="none" stroke="black" d="M549.83,-287.7C549.83,-280.24 549.83,-271.32 549.83,-262.97"/>
<polygon fill="black" stroke="black" points="553.33,-263.1 549.83,-253.1 546.33,-263.1 553.33,-263.1"/>
</g>
<!-- Rive -->
<g id="node20" class="node">
<title>Rive</title>
<ellipse fill="none" stroke="black" cx="540.83" cy="-162" rx="28.32" ry="18"/>
<text text-anchor="middle" x="540.83" y="-156.95" font-family="Times,serif" font-size="14.00">Rive</text>
</g>
<!-- Shatter&#45;&gt;Rive -->
<g id="edge18" class="edge">
<title>Shatter&#45;&gt;Rive</title>
<path fill="none" stroke="black" d="M547.61,-215.7C546.65,-208.24 545.5,-199.32 544.43,-190.97"/>
<polygon fill="black" stroke="black" points="547.78,-190.58 543.03,-181.1 540.83,-191.47 547.78,-190.58"/>
</g>
<!-- Shatterproof -->
<g id="node21" class="node">
<title>Shatterproof</title>
<ellipse fill="none" stroke="black" cx="585.83" cy="-90" rx="56.98" ry="18"/>
<text text-anchor="middle" x="585.83" y="-84.95" font-family="Times,serif" font-size="14.00">Shatterproof</text>
</g>
<!-- Shatter&#45;&gt;Shatterproof -->
<g id="edge19" class="edge">
<title>Shatter&#45;&gt;Shatterproof</title>
<path fill="none" stroke="black" d="M560.71,-216.55C566.83,-206.44 573.99,-192.97 577.83,-180 583.68,-160.23 585.62,-137 586.12,-119.24"/>
<polygon fill="black" stroke="black" points="589.63,-119.49 586.27,-109.44 582.63,-119.39 589.63,-119.49"/>
</g>
<!-- Repair&#45;&gt;Shatterproof -->
<g id="edge20" class="edge">
<title>Repair&#45;&gt;Shatterproof</title>
<path fill="none" stroke="black" d="M482.13,-148.16C500.75,-137.89 527.23,-123.3 548.76,-111.43"/>
<polygon fill="black" stroke="black" points="550.2,-114.09 557.26,-106.19 546.82,-107.96 550.2,-114.09"/>
</g>
<!-- Sharpen -->
<g id="node22" class="node">
<title>Sharpen</title>
<ellipse fill="none" stroke="black" cx="458.83" cy="-90" rx="41.12" ry="18"/>
<text text-anchor="middle" x="458.83" y="-84.95" font-family="Times,serif" font-size="14.00">Sharpen</text>
</g>
<!-- Repair&#45;&gt;Sharpen -->
<g id="edge21" class="edge">
<title>Repair&#45;&gt;Sharpen</title>
<path fill="none" stroke="black" d="M458.83,-143.7C458.83,-136.24 458.83,-127.32 458.83,-118.97"/>
<polygon fill="black" stroke="black" points="462.33,-119.1 458.83,-109.1 455.33,-119.1 462.33,-119.1"/>
</g>
<!-- Find Weakness or Simple Illusion -->
<g id="node19" class="node">
<title>Find Weakness or Simple Illusion</title>
<ellipse fill="none" stroke="black" cx="379.83" cy="-378" rx="136.82" ry="18"/>
<text text-anchor="middle" x="379.83" y="-372.95" font-family="Times,serif" font-size="14.00">Find Weakness or Simple Illusion</text>
</g>
<!-- Find Weakness or Simple Illusion&#45;&gt;Restore -->
<g id="edge17" class="edge">
<title>Find Weakness or Simple Illusion&#45;&gt;Restore</title>
<path fill="none" stroke="black" d="M392.69,-359.7C398.91,-351.32 406.5,-341.1 413.34,-331.9"/>
<polygon fill="black" stroke="black" points="416.68,-334.26 419.84,-324.14 411.07,-330.08 416.68,-334.26"/>
</g>
</g>
</svg>
