<?xml version="1.0" encoding="UTF-8" standalone="no"?>
<!DOCTYPE svg PUBLIC "-//W3C//DTD SVG 1.1//EN"
 "http://www.w3.org/Graphics/SVG/1.1/DTD/svg11.dtd">
<!-- Generated by graphviz version 8.0.5 (20230430.1635)
 -->
<!-- Pages: 1 -->
<svg width="714pt" height="260pt"
 viewBox="0.00 0.00 714.14 260.00" xmlns="http://www.w3.org/2000/svg" xmlns:xlink="http://www.w3.org/1999/xlink">
<g id="graph0" class="graph" transform="scale(1 1) rotate(0) translate(4 256)">
<polygon fill="white" stroke="none" points="-4,4 -4,-256 710.14,-256 710.14,4 -4,4"/>
<!-- Counterspell 12 other Spells -->
<g id="node1" class="node">
<title>Counterspell 12 other Spells</title>
<ellipse fill="none" stroke="black" cx="116.35" cy="-234" rx="116.35" ry="18"/>
<text text-anchor="middle" x="116.35" y="-228.95" font-family="Times,serif" font-size="14.00">Counterspell 12 other Spells</text>
</g>
<!-- Dispel Magic -->
<g id="node2" class="node">
<title>Dispel Magic</title>
<ellipse fill="none" stroke="black" cx="116.35" cy="-162" rx="61.59" ry="18"/>
<text text-anchor="middle" x="116.35" y="-156.95" font-family="Times,serif" font-size="14.00">Dispel Magic</text>
</g>
<!-- Counterspell 12 other Spells&#45;&gt;Dispel Magic -->
<g id="edge1" class="edge">
<title>Counterspell 12 other Spells&#45;&gt;Dispel Magic</title>
<path fill="none" stroke="black" d="M116.35,-215.7C116.35,-208.24 116.35,-199.32 116.35,-190.97"/>
<polygon fill="black" stroke="black" points="119.85,-191.1 116.35,-181.1 112.85,-191.1 119.85,-191.1"/>
</g>
<!-- Ward -->
<g id="node3" class="node">
<title>Ward</title>
<ellipse fill="none" stroke="black" cx="334.35" cy="-234" rx="30.88" ry="18"/>
<text text-anchor="middle" x="334.35" y="-228.95" font-family="Times,serif" font-size="14.00">Ward</text>
</g>
<!-- Great Ward -->
<g id="node4" class="node">
<title>Great Ward</title>
<ellipse fill="none" stroke="black" cx="249.35" cy="-162" rx="53.4" ry="18"/>
<text text-anchor="middle" x="249.35" y="-156.95" font-family="Times,serif" font-size="14.00">Great Ward</text>
</g>
<!-- Ward&#45;&gt;Great Ward -->
<g id="edge2" class="edge">
<title>Ward&#45;&gt;Great Ward</title>
<path fill="none" stroke="black" d="M317.15,-218.83C305.69,-209.4 290.37,-196.78 277.19,-185.93"/>
<polygon fill="black" stroke="black" points="279.85,-182.76 269.91,-179.1 275.4,-188.16 279.85,-182.76"/>
</g>
<!-- Reflect -->
<g id="node5" class="node">
<title>Reflect</title>
<ellipse fill="none" stroke="black" cx="358.35" cy="-162" rx="37.53" ry="18"/>
<text text-anchor="middle" x="358.35" y="-156.95" font-family="Times,serif" font-size="14.00">Reflect</text>
</g>
<!-- Ward&#45;&gt;Reflect -->
<g id="edge3" class="edge">
<title>Ward&#45;&gt;Reflect</title>
<path fill="none" stroke="black" d="M340.16,-216.05C342.84,-208.23 346.09,-198.75 349.1,-189.98"/>
<polygon fill="black" stroke="black" points="352.66,-191.38 352.59,-180.79 346.04,-189.11 352.66,-191.38"/>
</g>
<!-- 1 Spell from 7 Colleges -->
<g id="node6" class="node">
<title>1 Spell from 7 Colleges</title>
<ellipse fill="none" stroke="black" cx="513.35" cy="-234" rx="99.97" ry="18"/>
<text text-anchor="middle" x="513.35" y="-228.95" font-family="Times,serif" font-size="14.00">1 Spell from 7 Colleges</text>
</g>
<!-- Magic Resistance -->
<g id="node7" class="node">
<title>Magic Resistance</title>
<ellipse fill="none" stroke="black" cx="513.35" cy="-162" rx="76.94" ry="18"/>
<text text-anchor="middle" x="513.35" y="-156.95" font-family="Times,serif" font-size="14.00">Magic Resistance</text>
</g>
<!-- 1 Spell from 7 Colleges&#45;&gt;Magic Resistance -->
<g id="edge4" class="edge">
<title>1 Spell from 7 Colleges&#45;&gt;Magic Resistance</title>
<path fill="none" stroke="black" d="M513.35,-215.7C513.35,-208.24 513.35,-199.32 513.35,-190.97"/>
<polygon fill="black" stroke="black" points="516.85,-191.1 513.35,-181.1 509.85,-191.1 516.85,-191.1"/>
</g>
<!-- Spell Shield -->
<g id="node8" class="node">
<title>Spell Shield</title>
<ellipse fill="none" stroke="black" cx="585.35" cy="-90" rx="55.96" ry="18"/>
<text text-anchor="middle" x="585.35" y="-84.95" font-family="Times,serif" font-size="14.00">Spell Shield</text>
</g>
<!-- Magic Resistance&#45;&gt;Spell Shield -->
<g id="edge7" class="edge">
<title>Magic Resistance&#45;&gt;Spell Shield</title>
<path fill="none" stroke="black" d="M530.78,-144.05C539.84,-135.24 551.07,-124.33 560.98,-114.69"/>
<polygon fill="black" stroke="black" points="562.85,-117.79 567.58,-108.31 557.97,-112.77 562.85,-117.79"/>
</g>
<!-- Pentagram -->
<g id="node9" class="node">
<title>Pentagram</title>
<ellipse fill="none" stroke="black" cx="585.35" cy="-18" rx="50.84" ry="18"/>
<text text-anchor="middle" x="585.35" y="-12.95" font-family="Times,serif" font-size="14.00">Pentagram</text>
</g>
<!-- Spell Shield&#45;&gt;Pentagram -->
<g id="edge5" class="edge">
<title>Spell Shield&#45;&gt;Pentagram</title>
<path fill="none" stroke="black" d="M585.35,-71.7C585.35,-64.24 585.35,-55.32 585.35,-46.97"/>
<polygon fill="black" stroke="black" points="588.85,-47.1 585.35,-37.1 581.85,-47.1 588.85,-47.1"/>
</g>
<!-- Scryguard -->
<g id="node10" class="node">
<title>Scryguard</title>
<ellipse fill="none" stroke="black" cx="657.35" cy="-162" rx="48.79" ry="18"/>
<text text-anchor="middle" x="657.35" y="-156.95" font-family="Times,serif" font-size="14.00">Scryguard</text>
</g>
<!-- Scryguard&#45;&gt;Spell Shield -->
<g id="edge6" class="edge">
<title>Scryguard&#45;&gt;Spell Shield</title>
<path fill="none" stroke="black" d="M640.65,-144.76C631.47,-135.84 619.92,-124.61 609.75,-114.72"/>
<polygon fill="black" stroke="black" points="612.57,-112.61 602.96,-108.15 607.69,-117.63 612.57,-112.61"/>
</g>
</g>
</svg>
