<?xml version="1.0" encoding="UTF-8" standalone="no"?>
<!DOCTYPE svg PUBLIC "-//W3C//DTD SVG 1.1//EN"
 "http://www.w3.org/Graphics/SVG/1.1/DTD/svg11.dtd">
<!-- Generated by graphviz version 8.0.5 (20230430.1635)
 -->
<!-- Pages: 1 -->
<svg width="1494pt" height="332pt"
 viewBox="0.00 0.00 1493.92 332.00" xmlns="http://www.w3.org/2000/svg" xmlns:xlink="http://www.w3.org/1999/xlink">
<g id="graph0" class="graph" transform="scale(1 1) rotate(0) translate(4 328)">
<polygon fill="white" stroke="none" points="-4,4 -4,-328 1489.92,-328 1489.92,4 -4,4"/>
<!-- 2 Keen Sense spells -->
<g id="node1" class="node">
<title>2 Keen Sense spells</title>
<ellipse fill="none" stroke="black" cx="180.26" cy="-306" rx="85.13" ry="18"/>
<text text-anchor="middle" x="180.26" y="-300.95" font-family="Times,serif" font-size="14.00">2 Keen Sense spells</text>
</g>
<!-- Alertness -->
<g id="node2" class="node">
<title>Alertness</title>
<ellipse fill="none" stroke="black" cx="180.26" cy="-234" rx="45.72" ry="18"/>
<text text-anchor="middle" x="180.26" y="-228.95" font-family="Times,serif" font-size="14.00">Alertness</text>
</g>
<!-- 2 Keen Sense spells&#45;&gt;Alertness -->
<g id="edge1" class="edge">
<title>2 Keen Sense spells&#45;&gt;Alertness</title>
<path fill="none" stroke="black" d="M180.26,-287.7C180.26,-280.24 180.26,-271.32 180.26,-262.97"/>
<polygon fill="black" stroke="black" points="183.76,-263.1 180.26,-253.1 176.76,-263.1 183.76,-263.1"/>
</g>
<!-- Fear -->
<g id="node3" class="node">
<title>Fear</title>
<ellipse fill="none" stroke="black" cx="350.26" cy="-234" rx="27.3" ry="18"/>
<text text-anchor="middle" x="350.26" y="-228.95" font-family="Times,serif" font-size="14.00">Fear</text>
</g>
<!-- Bravery -->
<g id="node4" class="node">
<title>Bravery</title>
<ellipse fill="none" stroke="black" cx="260.26" cy="-162" rx="40.6" ry="18"/>
<text text-anchor="middle" x="260.26" y="-156.95" font-family="Times,serif" font-size="14.00">Bravery</text>
</g>
<!-- Fear&#45;&gt;Bravery -->
<g id="edge2" class="edge">
<title>Fear&#45;&gt;Bravery</title>
<path fill="none" stroke="black" d="M333.34,-219.83C320.57,-209.9 302.78,-196.06 287.95,-184.53"/>
<polygon fill="black" stroke="black" points="290.66,-181.43 280.62,-178.05 286.36,-186.95 290.66,-181.43"/>
</g>
<!-- Panic -->
<g id="node5" class="node">
<title>Panic</title>
<ellipse fill="none" stroke="black" cx="350.26" cy="-162" rx="31.39" ry="18"/>
<text text-anchor="middle" x="350.26" y="-156.95" font-family="Times,serif" font-size="14.00">Panic</text>
</g>
<!-- Fear&#45;&gt;Panic -->
<g id="edge3" class="edge">
<title>Fear&#45;&gt;Panic</title>
<path fill="none" stroke="black" d="M350.26,-215.7C350.26,-208.24 350.26,-199.32 350.26,-190.97"/>
<polygon fill="black" stroke="black" points="353.76,-191.1 350.26,-181.1 346.76,-191.1 353.76,-191.1"/>
</g>
<!-- Terror -->
<g id="node6" class="node">
<title>Terror</title>
<ellipse fill="none" stroke="black" cx="433.26" cy="-162" rx="33.95" ry="18"/>
<text text-anchor="middle" x="433.26" y="-156.95" font-family="Times,serif" font-size="14.00">Terror</text>
</g>
<!-- Fear&#45;&gt;Terror -->
<g id="edge4" class="edge">
<title>Fear&#45;&gt;Terror</title>
<path fill="none" stroke="black" d="M366.66,-219.17C378.29,-209.36 394.13,-196.01 407.44,-184.78"/>
<polygon fill="black" stroke="black" points="409.37,-186.89 414.75,-177.77 404.85,-181.54 409.37,-186.89"/>
</g>
<!-- Loyalty -->
<g id="node7" class="node">
<title>Loyalty</title>
<ellipse fill="none" stroke="black" cx="196.26" cy="-90" rx="39.58" ry="18"/>
<text text-anchor="middle" x="196.26" y="-84.95" font-family="Times,serif" font-size="14.00">Loyalty</text>
</g>
<!-- Bravery&#45;&gt;Loyalty -->
<g id="edge20" class="edge">
<title>Bravery&#45;&gt;Loyalty</title>
<path fill="none" stroke="black" d="M245.42,-144.76C237.34,-135.93 227.2,-124.83 218.22,-115.01"/>
<polygon fill="black" stroke="black" points="221.36,-113.17 212.03,-108.15 216.19,-117.89 221.36,-113.17"/>
</g>
<!-- Charm -->
<g id="node8" class="node">
<title>Charm</title>
<ellipse fill="none" stroke="black" cx="133.26" cy="-18" rx="36.51" ry="18"/>
<text text-anchor="middle" x="133.26" y="-12.95" font-family="Times,serif" font-size="14.00">Charm</text>
</g>
<!-- Loyalty&#45;&gt;Charm -->
<g id="edge5" class="edge">
<title>Loyalty&#45;&gt;Charm</title>
<path fill="none" stroke="black" d="M181.97,-73.12C173.91,-64.17 163.69,-52.81 154.7,-42.81"/>
<polygon fill="black" stroke="black" points="157.8,-40.91 148.5,-35.82 152.59,-45.6 157.8,-40.91"/>
</g>
<!-- 7 Mind Control -->
<g id="node9" class="node">
<title>7 Mind Control</title>
<ellipse fill="none" stroke="black" cx="69.26" cy="-90" rx="69.26" ry="18"/>
<text text-anchor="middle" x="69.26" y="-84.95" font-family="Times,serif" font-size="14.00">7 Mind Control</text>
</g>
<!-- 7 Mind Control&#45;&gt;Charm -->
<g id="edge6" class="edge">
<title>7 Mind Control&#45;&gt;Charm</title>
<path fill="none" stroke="black" d="M84.76,-72.05C92.77,-63.29 102.68,-52.45 111.45,-42.86"/>
<polygon fill="black" stroke="black" points="113.63,-45.57 117.79,-35.83 108.46,-40.85 113.63,-45.57"/>
</g>
<!-- Forgetfulness -->
<g id="node10" class="node">
<title>Forgetfulness</title>
<ellipse fill="none" stroke="black" cx="546.26" cy="-162" rx="61.08" ry="18"/>
<text text-anchor="middle" x="546.26" y="-156.95" font-family="Times,serif" font-size="14.00">Forgetfulness</text>
</g>
<!-- Command -->
<g id="node11" class="node">
<title>Command</title>
<ellipse fill="none" stroke="black" cx="500.26" cy="-90" rx="50.33" ry="18"/>
<text text-anchor="middle" x="500.26" y="-84.95" font-family="Times,serif" font-size="14.00">Command</text>
</g>
<!-- Forgetfulness&#45;&gt;Command -->
<g id="edge7" class="edge">
<title>Forgetfulness&#45;&gt;Command</title>
<path fill="none" stroke="black" d="M535.13,-144.05C529.76,-135.89 523.21,-125.91 517.24,-116.82"/>
<polygon fill="black" stroke="black" points="519.71,-115.22 511.3,-108.79 513.86,-119.07 519.71,-115.22"/>
</g>
<!-- Foolishness -->
<g id="node12" class="node">
<title>Foolishness</title>
<ellipse fill="none" stroke="black" cx="817.26" cy="-234" rx="54.42" ry="18"/>
<text text-anchor="middle" x="817.26" y="-228.95" font-family="Times,serif" font-size="14.00">Foolishness</text>
</g>
<!-- Foolishness&#45;&gt;Forgetfulness -->
<g id="edge8" class="edge">
<title>Foolishness&#45;&gt;Forgetfulness</title>
<path fill="none" stroke="black" d="M775.22,-222.14C728.58,-210.09 653.15,-190.61 601.71,-177.32"/>
<polygon fill="black" stroke="black" points="602.68,-173.7 592.12,-174.59 600.93,-180.48 602.68,-173.7"/>
</g>
<!-- Daze -->
<g id="node13" class="node">
<title>Daze</title>
<ellipse fill="none" stroke="black" cx="713.26" cy="-162" rx="29.86" ry="18"/>
<text text-anchor="middle" x="713.26" y="-156.95" font-family="Times,serif" font-size="14.00">Daze</text>
</g>
<!-- Foolishness&#45;&gt;Daze -->
<g id="edge9" class="edge">
<title>Foolishness&#45;&gt;Daze</title>
<path fill="none" stroke="black" d="M793.93,-217.29C778.51,-206.91 758.2,-193.24 741.82,-182.22"/>
<polygon fill="black" stroke="black" points="743.94,-178.76 733.69,-176.08 740.03,-184.56 743.94,-178.76"/>
</g>
<!-- Drunkenness -->
<g id="node14" class="node">
<title>Drunkenness</title>
<ellipse fill="none" stroke="black" cx="1058.26" cy="-162" rx="59.03" ry="18"/>
<text text-anchor="middle" x="1058.26" y="-156.95" font-family="Times,serif" font-size="14.00">Drunkenness</text>
</g>
<!-- Foolishness&#45;&gt;Drunkenness -->
<g id="edge10" class="edge">
<title>Foolishness&#45;&gt;Drunkenness</title>
<path fill="none" stroke="black" d="M857.33,-221.36C898.1,-209.52 961.47,-191.11 1006.13,-178.14"/>
<polygon fill="black" stroke="black" points="1006.86,-181.29 1015.48,-175.14 1004.9,-174.56 1006.86,-181.29"/>
</g>
<!-- Weaken Will -->
<g id="node15" class="node">
<title>Weaken Will</title>
<ellipse fill="none" stroke="black" cx="922.26" cy="-162" rx="59.03" ry="18"/>
<text text-anchor="middle" x="922.26" y="-156.95" font-family="Times,serif" font-size="14.00">Weaken Will</text>
</g>
<!-- Foolishness&#45;&gt;Weaken Will -->
<g id="edge11" class="edge">
<title>Foolishness&#45;&gt;Weaken Will</title>
<path fill="none" stroke="black" d="M840.83,-217.29C855.18,-207.72 873.73,-195.35 889.5,-184.84"/>
<polygon fill="black" stroke="black" points="891.04,-187.36 897.42,-178.9 887.15,-181.53 891.04,-187.36"/>
</g>
<!-- Fascinate -->
<g id="node19" class="node">
<title>Fascinate</title>
<ellipse fill="none" stroke="black" cx="614.26" cy="-90" rx="45.72" ry="18"/>
<text text-anchor="middle" x="614.26" y="-84.95" font-family="Times,serif" font-size="14.00">Fascinate</text>
</g>
<!-- Daze&#45;&gt;Fascinate -->
<g id="edge14" class="edge">
<title>Daze&#45;&gt;Fascinate</title>
<path fill="none" stroke="black" d="M694.64,-147.83C680.56,-137.88 660.92,-123.99 644.59,-112.44"/>
<polygon fill="black" stroke="black" points="647.09,-109.22 636.9,-106.3 643.05,-114.93 647.09,-109.22"/>
</g>
<!-- Mass Daze -->
<g id="node20" class="node">
<title>Mass Daze</title>
<ellipse fill="none" stroke="black" cx="811.26" cy="-90" rx="52.38" ry="18"/>
<text text-anchor="middle" x="811.26" y="-84.95" font-family="Times,serif" font-size="14.00">Mass Daze</text>
</g>
<!-- Daze&#45;&gt;Mass Daze -->
<g id="edge15" class="edge">
<title>Daze&#45;&gt;Mass Daze</title>
<path fill="none" stroke="black" d="M731.7,-147.83C745.55,-137.94 764.82,-124.18 780.92,-112.67"/>
<polygon fill="black" stroke="black" points="782.39,-115.21 788.49,-106.55 778.32,-109.52 782.39,-115.21"/>
</g>
<!-- Sleep -->
<g id="node21" class="node">
<title>Sleep</title>
<ellipse fill="none" stroke="black" cx="709.26" cy="-90" rx="31.39" ry="18"/>
<text text-anchor="middle" x="709.26" y="-84.95" font-family="Times,serif" font-size="14.00">Sleep</text>
</g>
<!-- Daze&#45;&gt;Sleep -->
<g id="edge16" class="edge">
<title>Daze&#45;&gt;Sleep</title>
<path fill="none" stroke="black" d="M712.28,-143.7C711.85,-136.24 711.34,-127.32 710.86,-118.97"/>
<polygon fill="black" stroke="black" points="714.31,-118.89 710.24,-109.1 707.32,-119.29 714.31,-118.89"/>
</g>
<!-- Sickness -->
<g id="node27" class="node">
<title>Sickness</title>
<ellipse fill="none" stroke="black" cx="1058.26" cy="-90" rx="43.16" ry="18"/>
<text text-anchor="middle" x="1058.26" y="-84.95" font-family="Times,serif" font-size="14.00">Sickness</text>
</g>
<!-- Drunkenness&#45;&gt;Sickness -->
<g id="edge24" class="edge">
<title>Drunkenness&#45;&gt;Sickness</title>
<path fill="none" stroke="black" d="M1058.26,-143.7C1058.26,-136.24 1058.26,-127.32 1058.26,-118.97"/>
<polygon fill="black" stroke="black" points="1061.76,-119.1 1058.26,-109.1 1054.76,-119.1 1061.76,-119.1"/>
</g>
<!-- Clumsiness -->
<g id="node16" class="node">
<title>Clumsiness</title>
<ellipse fill="none" stroke="black" cx="1058.26" cy="-234" rx="53.91" ry="18"/>
<text text-anchor="middle" x="1058.26" y="-228.95" font-family="Times,serif" font-size="14.00">Clumsiness</text>
</g>
<!-- Clumsiness&#45;&gt;Drunkenness -->
<g id="edge12" class="edge">
<title>Clumsiness&#45;&gt;Drunkenness</title>
<path fill="none" stroke="black" d="M1058.26,-215.7C1058.26,-208.24 1058.26,-199.32 1058.26,-190.97"/>
<polygon fill="black" stroke="black" points="1061.76,-191.1 1058.26,-181.1 1054.76,-191.1 1061.76,-191.1"/>
</g>
<!-- 2 Dull Senses -->
<g id="node17" class="node">
<title>2 Dull Senses</title>
<ellipse fill="none" stroke="black" cx="1173.26" cy="-306" rx="62.1" ry="18"/>
<text text-anchor="middle" x="1173.26" y="-300.95" font-family="Times,serif" font-size="14.00">2 Dull Senses</text>
</g>
<!-- Dullness -->
<g id="node18" class="node">
<title>Dullness</title>
<ellipse fill="none" stroke="black" cx="1173.26" cy="-234" rx="43.16" ry="18"/>
<text text-anchor="middle" x="1173.26" y="-228.95" font-family="Times,serif" font-size="14.00">Dullness</text>
</g>
<!-- 2 Dull Senses&#45;&gt;Dullness -->
<g id="edge13" class="edge">
<title>2 Dull Senses&#45;&gt;Dullness</title>
<path fill="none" stroke="black" d="M1173.26,-287.7C1173.26,-280.24 1173.26,-271.32 1173.26,-262.97"/>
<polygon fill="black" stroke="black" points="1176.76,-263.1 1173.26,-253.1 1169.76,-263.1 1176.76,-263.1"/>
</g>
<!-- Mass Sleep -->
<g id="node26" class="node">
<title>Mass Sleep</title>
<ellipse fill="none" stroke="black" cx="800.26" cy="-18" rx="53.91" ry="18"/>
<text text-anchor="middle" x="800.26" y="-12.95" font-family="Times,serif" font-size="14.00">Mass Sleep</text>
</g>
<!-- Sleep&#45;&gt;Mass Sleep -->
<g id="edge23" class="edge">
<title>Sleep&#45;&gt;Mass Sleep</title>
<path fill="none" stroke="black" d="M727.24,-75.17C739.68,-65.6 756.52,-52.65 770.89,-41.6"/>
<polygon fill="black" stroke="black" points="772.66,-43.88 778.46,-35.01 768.4,-38.33 772.66,-43.88"/>
</g>
<!-- Sense Emotion -->
<g id="node22" class="node">
<title>Sense Emotion</title>
<ellipse fill="none" stroke="black" cx="350.26" cy="-306" rx="67.22" ry="18"/>
<text text-anchor="middle" x="350.26" y="-300.95" font-family="Times,serif" font-size="14.00">Sense Emotion</text>
</g>
<!-- Sense Emotion&#45;&gt;Fear -->
<g id="edge17" class="edge">
<title>Sense Emotion&#45;&gt;Fear</title>
<path fill="none" stroke="black" d="M350.26,-287.7C350.26,-280.24 350.26,-271.32 350.26,-262.97"/>
<polygon fill="black" stroke="black" points="353.76,-263.1 350.26,-253.1 346.76,-263.1 353.76,-263.1"/>
</g>
<!-- IQ 12+ -->
<g id="node23" class="node">
<title>IQ 12+</title>
<ellipse fill="none" stroke="black" cx="817.26" cy="-306" rx="38.04" ry="18"/>
<text text-anchor="middle" x="817.26" y="-300.95" font-family="Times,serif" font-size="14.00">IQ 12+</text>
</g>
<!-- IQ 12+&#45;&gt;Foolishness -->
<g id="edge18" class="edge">
<title>IQ 12+&#45;&gt;Foolishness</title>
<path fill="none" stroke="black" d="M817.26,-287.7C817.26,-280.24 817.26,-271.32 817.26,-262.97"/>
<polygon fill="black" stroke="black" points="820.76,-263.1 817.26,-253.1 813.76,-263.1 820.76,-263.1"/>
</g>
<!-- 2 Mind Control -->
<g id="node24" class="node">
<title>2 Mind Control</title>
<ellipse fill="none" stroke="black" cx="132.26" cy="-162" rx="69.26" ry="18"/>
<text text-anchor="middle" x="132.26" y="-156.95" font-family="Times,serif" font-size="14.00">2 Mind Control</text>
</g>
<!-- 2 Mind Control&#45;&gt;Loyalty -->
<g id="edge19" class="edge">
<title>2 Mind Control&#45;&gt;Loyalty</title>
<path fill="none" stroke="black" d="M147.76,-144.05C155.77,-135.29 165.68,-124.45 174.45,-114.86"/>
<polygon fill="black" stroke="black" points="176.63,-117.57 180.79,-107.83 171.46,-112.85 176.63,-117.57"/>
</g>
<!-- IQ 13+ -->
<g id="node25" class="node">
<title>IQ 13+</title>
<ellipse fill="none" stroke="black" cx="807.26" cy="-162" rx="38.04" ry="18"/>
<text text-anchor="middle" x="807.26" y="-156.95" font-family="Times,serif" font-size="14.00">IQ 13+</text>
</g>
<!-- IQ 13+&#45;&gt;Mass Daze -->
<g id="edge21" class="edge">
<title>IQ 13+&#45;&gt;Mass Daze</title>
<path fill="none" stroke="black" d="M808.25,-143.7C808.68,-136.24 809.19,-127.32 809.67,-118.97"/>
<polygon fill="black" stroke="black" points="813.21,-119.29 810.29,-109.1 806.22,-118.89 813.21,-119.29"/>
</g>
<!-- IQ 13+&#45;&gt;Mass Sleep -->
<g id="edge22" class="edge">
<title>IQ 13+&#45;&gt;Mass Sleep</title>
<path fill="none" stroke="black" d="M832.11,-148.17C846.74,-139.12 863.96,-125.49 872.26,-108 879.13,-93.55 879.48,-86.28 872.26,-72 865.28,-58.18 852.8,-47.08 840.17,-38.68"/>
<polygon fill="black" stroke="black" points="842.37,-35.31 832.03,-33.04 838.7,-41.27 842.37,-35.31"/>
</g>
<!-- 6 Mind Control -->
<g id="node28" class="node">
<title>6 Mind Control</title>
<ellipse fill="none" stroke="black" cx="1322.26" cy="-306" rx="69.26" ry="18"/>
<text text-anchor="middle" x="1322.26" y="-300.95" font-family="Times,serif" font-size="14.00">6 Mind Control</text>
</g>
<!-- Strengthen Will -->
<g id="node29" class="node">
<title>Strengthen Will</title>
<ellipse fill="none" stroke="black" cx="1313.26" cy="-234" rx="69.26" ry="18"/>
<text text-anchor="middle" x="1313.26" y="-228.95" font-family="Times,serif" font-size="14.00">Strengthen Will</text>
</g>
<!-- 6 Mind Control&#45;&gt;Strengthen Will -->
<g id="edge25" class="edge">
<title>6 Mind Control&#45;&gt;Strengthen Will</title>
<path fill="none" stroke="black" d="M1320.04,-287.7C1319.08,-280.24 1317.93,-271.32 1316.86,-262.97"/>
<polygon fill="black" stroke="black" points="1320.21,-262.58 1315.46,-253.1 1313.27,-263.47 1320.21,-262.58"/>
</g>
<!-- Wisdom -->
<g id="node30" class="node">
<title>Wisdom</title>
<ellipse fill="none" stroke="black" cx="1443.26" cy="-234" rx="42.65" ry="18"/>
<text text-anchor="middle" x="1443.26" y="-228.95" font-family="Times,serif" font-size="14.00">Wisdom</text>
</g>
<!-- 6 Mind Control&#45;&gt;Wisdom -->
<g id="edge26" class="edge">
<title>6 Mind Control&#45;&gt;Wisdom</title>
<path fill="none" stroke="black" d="M1349.72,-289.12C1367.42,-278.88 1390.55,-265.5 1409.38,-254.6"/>
<polygon fill="black" stroke="black" points="1410.89,-257.2 1417.79,-249.16 1407.38,-251.14 1410.89,-257.2"/>
</g>
</g>
</svg>
