<?xml version="1.0" encoding="UTF-8" standalone="no"?>
<!DOCTYPE svg PUBLIC "-//W3C//DTD SVG 1.1//EN"
 "http://www.w3.org/Graphics/SVG/1.1/DTD/svg11.dtd">
<!-- Generated by graphviz version 8.0.5 (20230430.1635)
 -->
<!-- Pages: 1 -->
<svg width="2164pt" height="188pt"
 viewBox="0.00 0.00 2164.19 188.00" xmlns="http://www.w3.org/2000/svg" xmlns:xlink="http://www.w3.org/1999/xlink">
<g id="graph0" class="graph" transform="scale(1 1) rotate(0) translate(4 184)">
<polygon fill="white" stroke="none" points="-4,4 -4,-184 2160.19,-184 2160.19,4 -4,4"/>
<!-- Trace Teleport -->
<g id="node1" class="node">
<title>Trace Teleport</title>
<ellipse fill="none" stroke="black" cx="69.03" cy="-90" rx="64.66" ry="18"/>
<text text-anchor="middle" x="69.03" y="-84.95" font-family="Times,serif" font-size="14.00">Trace Teleport</text>
</g>
<!-- Divert Teleport -->
<g id="node2" class="node">
<title>Divert Teleport</title>
<ellipse fill="none" stroke="black" cx="69.03" cy="-18" rx="67.22" ry="18"/>
<text text-anchor="middle" x="69.03" y="-12.95" font-family="Times,serif" font-size="14.00">Divert Teleport</text>
</g>
<!-- Trace Teleport&#45;&gt;Divert Teleport -->
<g id="edge1" class="edge">
<title>Trace Teleport&#45;&gt;Divert Teleport</title>
<path fill="none" stroke="black" d="M69.03,-71.7C69.03,-64.24 69.03,-55.32 69.03,-46.97"/>
<polygon fill="black" stroke="black" points="72.53,-47.1 69.03,-37.1 65.53,-47.1 72.53,-47.1"/>
</g>
<!-- ST:IQ &gt;= 13 -->
<g id="node3" class="node">
<title>ST:IQ &gt;= 13</title>
<ellipse fill="none" stroke="black" cx="59.03" cy="-162" rx="59.03" ry="18"/>
<text text-anchor="middle" x="59.03" y="-156.95" font-family="Times,serif" font-size="14.00">ST:IQ &gt;= 13</text>
</g>
<!-- ST:IQ &gt;= 13&#45;&gt;Trace Teleport -->
<g id="edge2" class="edge">
<title>ST:IQ &gt;= 13&#45;&gt;Trace Teleport</title>
<path fill="none" stroke="black" d="M61.5,-143.7C62.57,-136.24 63.84,-127.32 65.03,-118.97"/>
<polygon fill="black" stroke="black" points="68.64,-119.5 66.59,-109.1 61.71,-118.51 68.64,-119.5"/>
</g>
<!-- Blink -->
<g id="node4" class="node">
<title>Blink</title>
<ellipse fill="none" stroke="black" cx="220.03" cy="-90" rx="31.39" ry="18"/>
<text text-anchor="middle" x="220.03" y="-84.95" font-family="Times,serif" font-size="14.00">Blink</text>
</g>
<!-- ST:IQ &gt;= 13&#45;&gt;Blink -->
<g id="edge3" class="edge">
<title>ST:IQ &gt;= 13&#45;&gt;Blink</title>
<path fill="none" stroke="black" d="M92,-146.67C119.24,-134.82 157.81,-118.05 185.48,-106.02"/>
<polygon fill="black" stroke="black" points="186.73,-108.86 194.51,-101.66 183.94,-102.44 186.73,-108.86"/>
</g>
<!-- Blink Other -->
<g id="node6" class="node">
<title>Blink Other</title>
<ellipse fill="none" stroke="black" cx="220.03" cy="-18" rx="54.93" ry="18"/>
<text text-anchor="middle" x="220.03" y="-12.95" font-family="Times,serif" font-size="14.00">Blink Other</text>
</g>
<!-- Blink&#45;&gt;Blink Other -->
<g id="edge6" class="edge">
<title>Blink&#45;&gt;Blink Other</title>
<path fill="none" stroke="black" d="M220.03,-71.7C220.03,-64.24 220.03,-55.32 220.03,-46.97"/>
<polygon fill="black" stroke="black" points="223.53,-47.1 220.03,-37.1 216.53,-47.1 223.53,-47.1"/>
</g>
<!-- 1 Spell from 10 Colleges -->
<g id="node5" class="node">
<title>1 Spell from 10 Colleges</title>
<ellipse fill="none" stroke="black" cx="241.03" cy="-162" rx="104.58" ry="18"/>
<text text-anchor="middle" x="241.03" y="-156.95" font-family="Times,serif" font-size="14.00">1 Spell from 10 Colleges</text>
</g>
<!-- 1 Spell from 10 Colleges&#45;&gt;Trace Teleport -->
<g id="edge4" class="edge">
<title>1 Spell from 10 Colleges&#45;&gt;Trace Teleport</title>
<path fill="none" stroke="black" d="M201.57,-144.94C175.62,-134.38 141.59,-120.53 114.51,-109.51"/>
<polygon fill="black" stroke="black" points="116.09,-105.97 105.5,-105.44 113.45,-112.45 116.09,-105.97"/>
</g>
<!-- 1 Spell from 10 Colleges&#45;&gt;Blink -->
<g id="edge5" class="edge">
<title>1 Spell from 10 Colleges&#45;&gt;Blink</title>
<path fill="none" stroke="black" d="M235.84,-143.7C233.55,-136.07 230.8,-126.92 228.25,-118.4"/>
<polygon fill="black" stroke="black" points="231.39,-117.68 225.16,-109.1 224.68,-119.69 231.39,-117.68"/>
</g>
<!-- Apportation -->
<g id="node7" class="node">
<title>Apportation</title>
<ellipse fill="none" stroke="black" cx="832.03" cy="-162" rx="55.45" ry="18"/>
<text text-anchor="middle" x="832.03" y="-156.95" font-family="Times,serif" font-size="14.00">Apportation</text>
</g>
<!-- Deflect Missile -->
<g id="node8" class="node">
<title>Deflect Missile</title>
<ellipse fill="none" stroke="black" cx="561.03" cy="-90" rx="68.24" ry="18"/>
<text text-anchor="middle" x="561.03" y="-84.95" font-family="Times,serif" font-size="14.00">Deflect Missile</text>
</g>
<!-- Apportation&#45;&gt;Deflect Missile -->
<g id="edge7" class="edge">
<title>Apportation&#45;&gt;Deflect Missile</title>
<path fill="none" stroke="black" d="M789.68,-150.06C743.82,-138.22 670.36,-119.24 619.12,-106.01"/>
<polygon fill="black" stroke="black" points="620.1,-102.39 609.54,-103.27 618.35,-109.16 620.1,-102.39"/>
</g>
<!-- Levitation -->
<g id="node9" class="node">
<title>Levitation</title>
<ellipse fill="none" stroke="black" cx="696.03" cy="-90" rx="48.79" ry="18"/>
<text text-anchor="middle" x="696.03" y="-84.95" font-family="Times,serif" font-size="14.00">Levitation</text>
</g>
<!-- Apportation&#45;&gt;Levitation -->
<g id="edge8" class="edge">
<title>Apportation&#45;&gt;Levitation</title>
<path fill="none" stroke="black" d="M803.19,-146.15C782.77,-135.64 755.2,-121.46 733.14,-110.1"/>
<polygon fill="black" stroke="black" points="734.93,-106.57 724.44,-105.11 731.73,-112.8 734.93,-106.57"/>
</g>
<!-- Light Tread -->
<g id="node10" class="node">
<title>Light Tread</title>
<ellipse fill="none" stroke="black" cx="420.03" cy="-90" rx="54.42" ry="18"/>
<text text-anchor="middle" x="420.03" y="-84.95" font-family="Times,serif" font-size="14.00">Light Tread</text>
</g>
<!-- Apportation&#45;&gt;Light Tread -->
<g id="edge9" class="edge">
<title>Apportation&#45;&gt;Light Tread</title>
<path fill="none" stroke="black" d="M780.42,-154.92C712.2,-146.47 588.43,-129.75 484.03,-108 479.72,-107.1 475.28,-106.09 470.83,-105.03"/>
<polygon fill="black" stroke="black" points="472.05,-101.48 461.5,-102.46 470.36,-108.27 472.05,-101.48"/>
</g>
<!-- Lighten Burden -->
<g id="node11" class="node">
<title>Lighten Burden</title>
<ellipse fill="none" stroke="black" cx="832.03" cy="-90" rx="69.26" ry="18"/>
<text text-anchor="middle" x="832.03" y="-84.95" font-family="Times,serif" font-size="14.00">Lighten Burden</text>
</g>
<!-- Apportation&#45;&gt;Lighten Burden -->
<g id="edge10" class="edge">
<title>Apportation&#45;&gt;Lighten Burden</title>
<path fill="none" stroke="black" d="M832.03,-143.7C832.03,-136.24 832.03,-127.32 832.03,-118.97"/>
<polygon fill="black" stroke="black" points="835.53,-119.1 832.03,-109.1 828.53,-119.1 835.53,-119.1"/>
</g>
<!-- Locksmith -->
<g id="node12" class="node">
<title>Locksmith</title>
<ellipse fill="none" stroke="black" cx="970.03" cy="-90" rx="50.84" ry="18"/>
<text text-anchor="middle" x="970.03" y="-84.95" font-family="Times,serif" font-size="14.00">Locksmith</text>
</g>
<!-- Apportation&#45;&gt;Locksmith -->
<g id="edge11" class="edge">
<title>Apportation&#45;&gt;Locksmith</title>
<path fill="none" stroke="black" d="M860.96,-146.33C881.75,-135.78 909.97,-121.46 932.5,-110.04"/>
<polygon fill="black" stroke="black" points="933.75,-112.82 941.08,-105.18 930.58,-106.58 933.75,-112.82"/>
</g>
<!-- Slow Fall -->
<g id="node13" class="node">
<title>Slow Fall</title>
<ellipse fill="none" stroke="black" cx="1086.03" cy="-90" rx="46.75" ry="18"/>
<text text-anchor="middle" x="1086.03" y="-84.95" font-family="Times,serif" font-size="14.00">Slow Fall</text>
</g>
<!-- Apportation&#45;&gt;Slow Fall -->
<g id="edge12" class="edge">
<title>Apportation&#45;&gt;Slow Fall</title>
<path fill="none" stroke="black" d="M874.63,-150.03C914.8,-139.59 976.65,-123.24 1030.03,-108 1033.2,-107.09 1036.47,-106.15 1039.75,-105.18"/>
<polygon fill="black" stroke="black" points="1040.65,-108.27 1049.23,-102.06 1038.65,-101.56 1040.65,-108.27"/>
</g>
<!-- Wallwalker -->
<g id="node14" class="node">
<title>Wallwalker</title>
<ellipse fill="none" stroke="black" cx="1204.03" cy="-90" rx="53.4" ry="18"/>
<text text-anchor="middle" x="1204.03" y="-84.95" font-family="Times,serif" font-size="14.00">Wallwalker</text>
</g>
<!-- Apportation&#45;&gt;Wallwalker -->
<g id="edge13" class="edge">
<title>Apportation&#45;&gt;Wallwalker</title>
<path fill="none" stroke="black" d="M882.26,-153.97C943.81,-144.99 1051.15,-128.18 1142.03,-108 1145.91,-107.14 1149.91,-106.19 1153.92,-105.19"/>
<polygon fill="black" stroke="black" points="1154.67,-108.35 1163.48,-102.47 1152.93,-101.57 1154.67,-108.35"/>
</g>
<!-- Flight -->
<g id="node17" class="node">
<title>Flight</title>
<ellipse fill="none" stroke="black" cx="696.03" cy="-18" rx="32.93" ry="18"/>
<text text-anchor="middle" x="696.03" y="-12.95" font-family="Times,serif" font-size="14.00">Flight</text>
</g>
<!-- Levitation&#45;&gt;Flight -->
<g id="edge15" class="edge">
<title>Levitation&#45;&gt;Flight</title>
<path fill="none" stroke="black" d="M696.03,-71.7C696.03,-64.24 696.03,-55.32 696.03,-46.97"/>
<polygon fill="black" stroke="black" points="699.53,-47.1 696.03,-37.1 692.53,-47.1 699.53,-47.1"/>
</g>
<!-- Manipulate -->
<g id="node28" class="node">
<title>Manipulate</title>
<ellipse fill="none" stroke="black" cx="918.03" cy="-18" rx="53.4" ry="18"/>
<text text-anchor="middle" x="918.03" y="-12.95" font-family="Times,serif" font-size="14.00">Manipulate</text>
</g>
<!-- Locksmith&#45;&gt;Manipulate -->
<g id="edge24" class="edge">
<title>Locksmith&#45;&gt;Manipulate</title>
<path fill="none" stroke="black" d="M957.71,-72.41C951.58,-64.16 944.04,-54.01 937.18,-44.78"/>
<polygon fill="black" stroke="black" points="939.4,-42.9 930.62,-36.96 933.78,-47.07 939.4,-42.9"/>
</g>
<!-- Undo -->
<g id="node29" class="node">
<title>Undo</title>
<ellipse fill="none" stroke="black" cx="1021.03" cy="-18" rx="31.39" ry="18"/>
<text text-anchor="middle" x="1021.03" y="-12.95" font-family="Times,serif" font-size="14.00">Undo</text>
</g>
<!-- Locksmith&#45;&gt;Undo -->
<g id="edge25" class="edge">
<title>Locksmith&#45;&gt;Undo</title>
<path fill="none" stroke="black" d="M982.37,-72.05C988.63,-63.47 996.34,-52.89 1003.22,-43.44"/>
<polygon fill="black" stroke="black" points="1006.44,-45.97 1009.5,-35.83 1000.78,-41.85 1006.44,-45.97"/>
</g>
<!-- 6 Movement -->
<g id="node15" class="node">
<title>6 Movement</title>
<ellipse fill="none" stroke="black" cx="1340.03" cy="-162" rx="59.03" ry="18"/>
<text text-anchor="middle" x="1340.03" y="-156.95" font-family="Times,serif" font-size="14.00">6 Movement</text>
</g>
<!-- Ethereal Body -->
<g id="node16" class="node">
<title>Ethereal Body</title>
<ellipse fill="none" stroke="black" cx="1340.03" cy="-90" rx="64.15" ry="18"/>
<text text-anchor="middle" x="1340.03" y="-84.95" font-family="Times,serif" font-size="14.00">Ethereal Body</text>
</g>
<!-- 6 Movement&#45;&gt;Ethereal Body -->
<g id="edge14" class="edge">
<title>6 Movement&#45;&gt;Ethereal Body</title>
<path fill="none" stroke="black" d="M1340.03,-143.7C1340.03,-136.24 1340.03,-127.32 1340.03,-118.97"/>
<polygon fill="black" stroke="black" points="1343.53,-119.1 1340.03,-109.1 1336.53,-119.1 1343.53,-119.1"/>
</g>
<!-- Haste -->
<g id="node18" class="node">
<title>Haste</title>
<ellipse fill="none" stroke="black" cx="1649.03" cy="-162" rx="31.9" ry="18"/>
<text text-anchor="middle" x="1649.03" y="-156.95" font-family="Times,serif" font-size="14.00">Haste</text>
</g>
<!-- Glue -->
<g id="node19" class="node">
<title>Glue</title>
<ellipse fill="none" stroke="black" cx="1451.03" cy="-90" rx="28.83" ry="18"/>
<text text-anchor="middle" x="1451.03" y="-84.95" font-family="Times,serif" font-size="14.00">Glue</text>
</g>
<!-- Haste&#45;&gt;Glue -->
<g id="edge16" class="edge">
<title>Haste&#45;&gt;Glue</title>
<path fill="none" stroke="black" d="M1621.06,-152.84C1588.67,-143.15 1533.91,-126.02 1488.03,-108 1486.55,-107.42 1485.04,-106.81 1483.53,-106.18"/>
<polygon fill="black" stroke="black" points="1485.12,-102.62 1474.55,-101.84 1482.33,-109.04 1485.12,-102.62"/>
</g>
<!-- Grease -->
<g id="node20" class="node">
<title>Grease</title>
<ellipse fill="none" stroke="black" cx="1534.03" cy="-90" rx="36.51" ry="18"/>
<text text-anchor="middle" x="1534.03" y="-84.95" font-family="Times,serif" font-size="14.00">Grease</text>
</g>
<!-- Haste&#45;&gt;Grease -->
<g id="edge17" class="edge">
<title>Haste&#45;&gt;Grease</title>
<path fill="none" stroke="black" d="M1627.94,-148.16C1610.44,-137.51 1585.3,-122.21 1565.44,-110.12"/>
<polygon fill="black" stroke="black" points="1567.53,-106.68 1557.16,-104.47 1563.89,-112.66 1567.53,-106.68"/>
</g>
<!-- Great Haste -->
<g id="node21" class="node">
<title>Great Haste</title>
<ellipse fill="none" stroke="black" cx="1782.03" cy="-90" rx="54.93" ry="18"/>
<text text-anchor="middle" x="1782.03" y="-84.95" font-family="Times,serif" font-size="14.00">Great Haste</text>
</g>
<!-- Haste&#45;&gt;Great Haste -->
<g id="edge18" class="edge">
<title>Haste&#45;&gt;Great Haste</title>
<path fill="none" stroke="black" d="M1671.89,-148.97C1691.78,-138.5 1720.98,-123.13 1744.33,-110.84"/>
<polygon fill="black" stroke="black" points="1745.71,-113.55 1752.93,-105.79 1742.45,-107.35 1745.71,-113.55"/>
</g>
<!-- Quick March -->
<g id="node22" class="node">
<title>Quick March</title>
<ellipse fill="none" stroke="black" cx="1649.03" cy="-90" rx="60.56" ry="18"/>
<text text-anchor="middle" x="1649.03" y="-84.95" font-family="Times,serif" font-size="14.00">Quick March</text>
</g>
<!-- Haste&#45;&gt;Quick March -->
<g id="edge19" class="edge">
<title>Haste&#45;&gt;Quick March</title>
<path fill="none" stroke="black" d="M1649.03,-143.7C1649.03,-136.24 1649.03,-127.32 1649.03,-118.97"/>
<polygon fill="black" stroke="black" points="1652.53,-119.1 1649.03,-109.1 1645.53,-119.1 1652.53,-119.1"/>
</g>
<!-- Slow -->
<g id="node23" class="node">
<title>Slow</title>
<ellipse fill="none" stroke="black" cx="1885.03" cy="-90" rx="29.86" ry="18"/>
<text text-anchor="middle" x="1885.03" y="-84.95" font-family="Times,serif" font-size="14.00">Slow</text>
</g>
<!-- Haste&#45;&gt;Slow -->
<g id="edge20" class="edge">
<title>Haste&#45;&gt;Slow</title>
<path fill="none" stroke="black" d="M1678.48,-154.52C1717.36,-145.64 1787.7,-128.43 1846.03,-108 1847.96,-107.32 1849.94,-106.59 1851.92,-105.83"/>
<polygon fill="black" stroke="black" points="1852.81,-108.84 1860.74,-101.82 1850.16,-102.36 1852.81,-108.84"/>
</g>
<!-- IQ 12+ -->
<g id="node24" class="node">
<title>IQ 12+</title>
<ellipse fill="none" stroke="black" cx="1782.03" cy="-162" rx="38.04" ry="18"/>
<text text-anchor="middle" x="1782.03" y="-156.95" font-family="Times,serif" font-size="14.00">IQ 12+</text>
</g>
<!-- IQ 12+&#45;&gt;Great Haste -->
<g id="edge21" class="edge">
<title>IQ 12+&#45;&gt;Great Haste</title>
<path fill="none" stroke="black" d="M1782.03,-143.7C1782.03,-136.24 1782.03,-127.32 1782.03,-118.97"/>
<polygon fill="black" stroke="black" points="1785.53,-119.1 1782.03,-109.1 1778.53,-119.1 1785.53,-119.1"/>
</g>
<!-- Shape Earth -->
<g id="node25" class="node">
<title>Shape Earth</title>
<ellipse fill="none" stroke="black" cx="420.03" cy="-162" rx="55.96" ry="18"/>
<text text-anchor="middle" x="420.03" y="-156.95" font-family="Times,serif" font-size="14.00">Shape Earth</text>
</g>
<!-- Shape Earth&#45;&gt;Light Tread -->
<g id="edge22" class="edge">
<title>Shape Earth&#45;&gt;Light Tread</title>
<path fill="none" stroke="black" d="M420.03,-143.7C420.03,-136.24 420.03,-127.32 420.03,-118.97"/>
<polygon fill="black" stroke="black" points="423.53,-119.1 420.03,-109.1 416.53,-119.1 423.53,-119.1"/>
</g>
<!-- Apportation or Locksmith -->
<g id="node26" class="node">
<title>Apportation or Locksmith</title>
<ellipse fill="none" stroke="black" cx="2048.03" cy="-162" rx="108.16" ry="18"/>
<text text-anchor="middle" x="2048.03" y="-156.95" font-family="Times,serif" font-size="14.00">Apportation or Locksmith</text>
</g>
<!-- Lockmaster -->
<g id="node27" class="node">
<title>Lockmaster</title>
<ellipse fill="none" stroke="black" cx="2048.03" cy="-90" rx="54.93" ry="18"/>
<text text-anchor="middle" x="2048.03" y="-84.95" font-family="Times,serif" font-size="14.00">Lockmaster</text>
</g>
<!-- Apportation or Locksmith&#45;&gt;Lockmaster -->
<g id="edge23" class="edge">
<title>Apportation or Locksmith&#45;&gt;Lockmaster</title>
<path fill="none" stroke="black" d="M2048.03,-143.7C2048.03,-136.24 2048.03,-127.32 2048.03,-118.97"/>
<polygon fill="black" stroke="black" points="2051.53,-119.1 2048.03,-109.1 2044.53,-119.1 2051.53,-119.1"/>
</g>
<!-- Hinder -->
<g id="node30" class="node">
<title>Hinder</title>
<ellipse fill="none" stroke="black" cx="1885.03" cy="-162" rx="36.51" ry="18"/>
<text text-anchor="middle" x="1885.03" y="-156.95" font-family="Times,serif" font-size="14.00">Hinder</text>
</g>
<!-- Hinder&#45;&gt;Slow -->
<g id="edge26" class="edge">
<title>Hinder&#45;&gt;Slow</title>
<path fill="none" stroke="black" d="M1885.03,-143.7C1885.03,-136.24 1885.03,-127.32 1885.03,-118.97"/>
<polygon fill="black" stroke="black" points="1888.53,-119.1 1885.03,-109.1 1881.53,-119.1 1888.53,-119.1"/>
</g>
</g>
</svg>
