<?xml version="1.0" encoding="UTF-8" standalone="no"?>
<!DOCTYPE svg PUBLIC "-//W3C//DTD SVG 1.1//EN"
 "http://www.w3.org/Graphics/SVG/1.1/DTD/svg11.dtd">
<!-- Generated by graphviz version 8.0.5 (20230430.1635)
 -->
<!-- Pages: 1 -->
<svg width="611pt" height="332pt"
 viewBox="0.00 0.00 610.82 332.00" xmlns="http://www.w3.org/2000/svg" xmlns:xlink="http://www.w3.org/1999/xlink">
<g id="graph0" class="graph" transform="scale(1 1) rotate(0) translate(4 328)">
<polygon fill="white" stroke="none" points="-4,4 -4,-328 606.82,-328 606.82,4 -4,4"/>
<!-- Repel Spirits -->
<g id="node1" class="node">
<title>Repel Spirits</title>
<ellipse fill="none" stroke="black" cx="104.58" cy="-90" rx="59.03" ry="18"/>
<text text-anchor="middle" x="104.58" y="-84.95" font-family="Times,serif" font-size="14.00">Repel Spirits</text>
</g>
<!-- Astral Block -->
<g id="node2" class="node">
<title>Astral Block</title>
<ellipse fill="none" stroke="black" cx="333.58" cy="-18" rx="58" ry="18"/>
<text text-anchor="middle" x="333.58" y="-12.95" font-family="Times,serif" font-size="14.00">Astral Block</text>
</g>
<!-- Repel Spirits&#45;&gt;Astral Block -->
<g id="edge1" class="edge">
<title>Repel Spirits&#45;&gt;Astral Block</title>
<path fill="none" stroke="black" d="M145.26,-76.57C183.68,-64.82 241.45,-47.16 282.86,-34.5"/>
<polygon fill="black" stroke="black" points="283.74,-37.59 292.28,-31.32 281.7,-30.89 283.74,-37.59"/>
</g>
<!-- Summon Spirit -->
<g id="node3" class="node">
<title>Summon Spirit</title>
<ellipse fill="none" stroke="black" cx="534.58" cy="-162" rx="68.24" ry="18"/>
<text text-anchor="middle" x="534.58" y="-156.95" font-family="Times,serif" font-size="14.00">Summon Spirit</text>
</g>
<!-- Summon Spirit&#45;&gt;Astral Block -->
<g id="edge2" class="edge">
<title>Summon Spirit&#45;&gt;Astral Block</title>
<path fill="none" stroke="black" d="M542.72,-143.98C550.73,-124.48 559.61,-92.58 543.58,-72 525.73,-49.09 452.98,-34.53 398.07,-26.59"/>
<polygon fill="black" stroke="black" points="398.74,-23.01 388.35,-25.09 397.77,-29.94 398.74,-23.01"/>
</g>
<!-- Command Spirit ([Spirit]) -->
<g id="node4" class="node">
<title>Command Spirit ([Spirit])</title>
<ellipse fill="none" stroke="black" cx="425.58" cy="-90" rx="108.67" ry="18"/>
<text text-anchor="middle" x="425.58" y="-84.95" font-family="Times,serif" font-size="14.00">Command Spirit ([Spirit])</text>
</g>
<!-- Summon Spirit&#45;&gt;Command Spirit ([Spirit]) -->
<g id="edge3" class="edge">
<title>Summon Spirit&#45;&gt;Command Spirit ([Spirit])</title>
<path fill="none" stroke="black" d="M509.57,-144.94C495.07,-135.63 476.58,-123.75 460.65,-113.52"/>
<polygon fill="black" stroke="black" points="462.91,-110.17 452.61,-107.72 459.13,-116.06 462.91,-110.17"/>
</g>
<!-- 1 Spell from 10 Colleges -->
<g id="node5" class="node">
<title>1 Spell from 10 Colleges</title>
<ellipse fill="none" stroke="black" cx="104.58" cy="-234" rx="104.58" ry="18"/>
<text text-anchor="middle" x="104.58" y="-228.95" font-family="Times,serif" font-size="14.00">1 Spell from 10 Colleges</text>
</g>
<!-- Banish -->
<g id="node6" class="node">
<title>Banish</title>
<ellipse fill="none" stroke="black" cx="104.58" cy="-162" rx="36.51" ry="18"/>
<text text-anchor="middle" x="104.58" y="-156.95" font-family="Times,serif" font-size="14.00">Banish</text>
</g>
<!-- 1 Spell from 10 Colleges&#45;&gt;Banish -->
<g id="edge4" class="edge">
<title>1 Spell from 10 Colleges&#45;&gt;Banish</title>
<path fill="none" stroke="black" d="M104.58,-215.7C104.58,-208.24 104.58,-199.32 104.58,-190.97"/>
<polygon fill="black" stroke="black" points="108.08,-191.1 104.58,-181.1 101.08,-191.1 108.08,-191.1"/>
</g>
<!-- Banish&#45;&gt;Repel Spirits -->
<g id="edge9" class="edge">
<title>Banish&#45;&gt;Repel Spirits</title>
<path fill="none" stroke="black" d="M104.58,-143.7C104.58,-136.24 104.58,-127.32 104.58,-118.97"/>
<polygon fill="black" stroke="black" points="108.08,-119.1 104.58,-109.1 101.08,-119.1 108.08,-119.1"/>
</g>
<!-- Turn Spirit -->
<g id="node7" class="node">
<title>Turn Spirit</title>
<ellipse fill="none" stroke="black" cx="368.58" cy="-162" rx="51.86" ry="18"/>
<text text-anchor="middle" x="368.58" y="-156.95" font-family="Times,serif" font-size="14.00">Turn Spirit</text>
</g>
<!-- Turn Spirit&#45;&gt;Repel Spirits -->
<g id="edge5" class="edge">
<title>Turn Spirit&#45;&gt;Repel Spirits</title>
<path fill="none" stroke="black" d="M329.23,-149.93C322.03,-147.94 314.58,-145.89 307.58,-144 257.38,-130.45 200.05,-115.54 159.14,-104.99"/>
<polygon fill="black" stroke="black" points="160.15,-101.37 149.59,-102.27 158.4,-108.15 160.15,-101.37"/>
</g>
<!-- Turn Spirit&#45;&gt;Command Spirit ([Spirit]) -->
<g id="edge6" class="edge">
<title>Turn Spirit&#45;&gt;Command Spirit ([Spirit])</title>
<path fill="none" stroke="black" d="M382.09,-144.41C388.94,-135.99 397.42,-125.58 405.06,-116.2"/>
<polygon fill="black" stroke="black" points="408.17,-118.92 411.77,-108.96 402.74,-114.5 408.17,-118.92"/>
</g>
<!-- Entrap Spirit -->
<g id="node8" class="node">
<title>Entrap Spirit</title>
<ellipse fill="none" stroke="black" cx="240.58" cy="-90" rx="58.52" ry="18"/>
<text text-anchor="middle" x="240.58" y="-84.95" font-family="Times,serif" font-size="14.00">Entrap Spirit</text>
</g>
<!-- Turn Spirit&#45;&gt;Entrap Spirit -->
<g id="edge7" class="edge">
<title>Turn Spirit&#45;&gt;Entrap Spirit</title>
<path fill="none" stroke="black" d="M341.75,-146.33C323.22,-136.2 298.35,-122.59 277.9,-111.41"/>
<polygon fill="black" stroke="black" points="279.71,-107.87 269.26,-106.14 276.36,-114.01 279.71,-107.87"/>
</g>
<!-- 7 Necromantic -->
<g id="node9" class="node">
<title>7 Necromantic</title>
<ellipse fill="none" stroke="black" cx="232.58" cy="-162" rx="66.19" ry="18"/>
<text text-anchor="middle" x="232.58" y="-156.95" font-family="Times,serif" font-size="14.00">7 Necromantic</text>
</g>
<!-- 7 Necromantic&#45;&gt;Entrap Spirit -->
<g id="edge8" class="edge">
<title>7 Necromantic&#45;&gt;Entrap Spirit</title>
<path fill="none" stroke="black" d="M234.56,-143.7C235.41,-136.24 236.43,-127.32 237.38,-118.97"/>
<polygon fill="black" stroke="black" points="240.97,-119.44 238.62,-109.1 234.01,-118.64 240.97,-119.44"/>
</g>
<!-- Sense Life or Death Vision -->
<g id="node10" class="node">
<title>Sense Life or Death Vision</title>
<ellipse fill="none" stroke="black" cx="323.58" cy="-306" rx="111.23" ry="18"/>
<text text-anchor="middle" x="323.58" y="-300.95" font-family="Times,serif" font-size="14.00">Sense Life or Death Vision</text>
</g>
<!-- Sense Spirit -->
<g id="node11" class="node">
<title>Sense Spirit</title>
<ellipse fill="none" stroke="black" cx="323.58" cy="-234" rx="55.45" ry="18"/>
<text text-anchor="middle" x="323.58" y="-228.95" font-family="Times,serif" font-size="14.00">Sense Spirit</text>
</g>
<!-- Sense Life or Death Vision&#45;&gt;Sense Spirit -->
<g id="edge10" class="edge">
<title>Sense Life or Death Vision&#45;&gt;Sense Spirit</title>
<path fill="none" stroke="black" d="M323.58,-287.7C323.58,-280.24 323.58,-271.32 323.58,-262.97"/>
<polygon fill="black" stroke="black" points="327.08,-263.1 323.58,-253.1 320.08,-263.1 327.08,-263.1"/>
</g>
<!-- Sense Spirit&#45;&gt;Turn Spirit -->
<g id="edge13" class="edge">
<title>Sense Spirit&#45;&gt;Turn Spirit</title>
<path fill="none" stroke="black" d="M334.47,-216.05C339.72,-207.89 346.14,-197.91 351.98,-188.82"/>
<polygon fill="black" stroke="black" points="355.32,-191.09 357.79,-180.79 349.43,-187.31 355.32,-191.09"/>
</g>
<!-- Death Vision -->
<g id="node12" class="node">
<title>Death Vision</title>
<ellipse fill="none" stroke="black" cx="534.58" cy="-234" rx="59.03" ry="18"/>
<text text-anchor="middle" x="534.58" y="-228.95" font-family="Times,serif" font-size="14.00">Death Vision</text>
</g>
<!-- Death Vision&#45;&gt;Summon Spirit -->
<g id="edge11" class="edge">
<title>Death Vision&#45;&gt;Summon Spirit</title>
<path fill="none" stroke="black" d="M534.58,-215.7C534.58,-208.24 534.58,-199.32 534.58,-190.97"/>
<polygon fill="black" stroke="black" points="538.08,-191.1 534.58,-181.1 531.08,-191.1 538.08,-191.1"/>
</g>
<!-- Fear -->
<g id="node13" class="node">
<title>Fear</title>
<ellipse fill="none" stroke="black" cx="424.58" cy="-234" rx="27.3" ry="18"/>
<text text-anchor="middle" x="424.58" y="-228.95" font-family="Times,serif" font-size="14.00">Fear</text>
</g>
<!-- Fear&#45;&gt;Turn Spirit -->
<g id="edge12" class="edge">
<title>Fear&#45;&gt;Turn Spirit</title>
<path fill="none" stroke="black" d="M412.15,-217.46C405.17,-208.74 396.3,-197.65 388.39,-187.76"/>
<polygon fill="black" stroke="black" points="390.73,-186.09 381.75,-180.47 385.27,-190.46 390.73,-186.09"/>
</g>
</g>
</svg>
