<?xml version="1.0" encoding="UTF-8" standalone="no"?>
<!DOCTYPE svg PUBLIC "-//W3C//DTD SVG 1.1//EN"
 "http://www.w3.org/Graphics/SVG/1.1/DTD/svg11.dtd">
<!-- Generated by graphviz version 8.0.5 (20230430.1635)
 -->
<!-- Pages: 1 -->
<svg width="1114pt" height="260pt"
 viewBox="0.00 0.00 1114.03 260.00" xmlns="http://www.w3.org/2000/svg" xmlns:xlink="http://www.w3.org/1999/xlink">
<g id="graph0" class="graph" transform="scale(1 1) rotate(0) translate(4 256)">
<polygon fill="white" stroke="none" points="-4,4 -4,-256 1110.03,-256 1110.03,4 -4,4"/>
<!-- Shield -->
<g id="node1" class="node">
<title>Shield</title>
<ellipse fill="none" stroke="black" cx="110" cy="-234" rx="34.46" ry="18"/>
<text text-anchor="middle" x="110" y="-228.95" font-family="Times,serif" font-size="14.00">Shield</text>
</g>
<!-- Armor -->
<g id="node2" class="node">
<title>Armor</title>
<ellipse fill="none" stroke="black" cx="36" cy="-162" rx="36" ry="18"/>
<text text-anchor="middle" x="36" y="-156.95" font-family="Times,serif" font-size="14.00">Armor</text>
</g>
<!-- Shield&#45;&gt;Armor -->
<g id="edge1" class="edge">
<title>Shield&#45;&gt;Armor</title>
<path fill="none" stroke="black" d="M93.94,-217.81C84.02,-208.43 71.11,-196.21 59.99,-185.69"/>
<polygon fill="black" stroke="black" points="62.95,-183.73 53.28,-179.4 58.14,-188.82 62.95,-183.73"/>
</g>
<!-- Bladeturning -->
<g id="node3" class="node">
<title>Bladeturning</title>
<ellipse fill="none" stroke="black" cx="149" cy="-162" rx="59.03" ry="18"/>
<text text-anchor="middle" x="149" y="-156.95" font-family="Times,serif" font-size="14.00">Bladeturning</text>
</g>
<!-- Shield&#45;&gt;Bladeturning -->
<g id="edge2" class="edge">
<title>Shield&#45;&gt;Bladeturning</title>
<path fill="none" stroke="black" d="M119.24,-216.41C123.74,-208.34 129.26,-198.43 134.31,-189.35"/>
<polygon fill="black" stroke="black" points="137.74,-191.4 139.55,-180.96 131.63,-187.99 137.74,-191.4"/>
</g>
<!-- DX 11+ -->
<g id="node4" class="node">
<title>DX 11+</title>
<ellipse fill="none" stroke="black" cx="239" cy="-234" rx="41.63" ry="18"/>
<text text-anchor="middle" x="239" y="-228.95" font-family="Times,serif" font-size="14.00">DX 11+</text>
</g>
<!-- Iron Arm -->
<g id="node5" class="node">
<title>Iron Arm</title>
<ellipse fill="none" stroke="black" cx="313" cy="-162" rx="45.72" ry="18"/>
<text text-anchor="middle" x="313" y="-156.95" font-family="Times,serif" font-size="14.00">Iron Arm</text>
</g>
<!-- DX 11+&#45;&gt;Iron Arm -->
<g id="edge3" class="edge">
<title>DX 11+&#45;&gt;Iron Arm</title>
<path fill="none" stroke="black" d="M255.79,-217.12C265.37,-208.05 277.56,-196.52 288.23,-186.43"/>
<polygon fill="black" stroke="black" points="290.16,-189.48 295.02,-180.06 285.35,-184.39 290.16,-189.48"/>
</g>
<!-- Resist Pain -->
<g id="node6" class="node">
<title>Resist Pain</title>
<ellipse fill="none" stroke="black" cx="351" cy="-234" rx="52.38" ry="18"/>
<text text-anchor="middle" x="351" y="-228.95" font-family="Times,serif" font-size="14.00">Resist Pain</text>
</g>
<!-- Resist Pain&#45;&gt;Iron Arm -->
<g id="edge4" class="edge">
<title>Resist Pain&#45;&gt;Iron Arm</title>
<path fill="none" stroke="black" d="M341.8,-216.05C337.46,-208.06 332.18,-198.33 327.33,-189.4"/>
<polygon fill="black" stroke="black" points="329.96,-187.91 322.11,-180.79 323.81,-191.25 329.96,-187.91"/>
</g>
<!-- Apportation or Shield -->
<g id="node7" class="node">
<title>Apportation or Shield</title>
<ellipse fill="none" stroke="black" cx="513" cy="-234" rx="91.78" ry="18"/>
<text text-anchor="middle" x="513" y="-228.95" font-family="Times,serif" font-size="14.00">Apportation or Shield</text>
</g>
<!-- Missile Shield -->
<g id="node8" class="node">
<title>Missile Shield</title>
<ellipse fill="none" stroke="black" cx="513" cy="-162" rx="64.66" ry="18"/>
<text text-anchor="middle" x="513" y="-156.95" font-family="Times,serif" font-size="14.00">Missile Shield</text>
</g>
<!-- Apportation or Shield&#45;&gt;Missile Shield -->
<g id="edge5" class="edge">
<title>Apportation or Shield&#45;&gt;Missile Shield</title>
<path fill="none" stroke="black" d="M513,-215.7C513,-208.24 513,-199.32 513,-190.97"/>
<polygon fill="black" stroke="black" points="516.5,-191.1 513,-181.1 509.5,-191.1 516.5,-191.1"/>
</g>
<!-- either Watchdog or Shield -->
<g id="node9" class="node">
<title>either Watchdog or Shield</title>
<ellipse fill="none" stroke="black" cx="730" cy="-234" rx="107.65" ry="18"/>
<text text-anchor="middle" x="730" y="-228.95" font-family="Times,serif" font-size="14.00">either Watchdog or Shield</text>
</g>
<!-- Mystic Mist -->
<g id="node10" class="node">
<title>Mystic Mist</title>
<ellipse fill="none" stroke="black" cx="730" cy="-162" rx="56.98" ry="18"/>
<text text-anchor="middle" x="730" y="-156.95" font-family="Times,serif" font-size="14.00">Mystic Mist</text>
</g>
<!-- either Watchdog or Shield&#45;&gt;Mystic Mist -->
<g id="edge6" class="edge">
<title>either Watchdog or Shield&#45;&gt;Mystic Mist</title>
<path fill="none" stroke="black" d="M730,-215.7C730,-208.24 730,-199.32 730,-190.97"/>
<polygon fill="black" stroke="black" points="733.5,-191.1 730,-181.1 726.5,-191.1 733.5,-191.1"/>
</g>
<!-- Sense Danger -->
<g id="node11" class="node">
<title>Sense Danger</title>
<ellipse fill="none" stroke="black" cx="908" cy="-162" rx="62.1" ry="18"/>
<text text-anchor="middle" x="908" y="-156.95" font-family="Times,serif" font-size="14.00">Sense Danger</text>
</g>
<!-- Nightingale -->
<g id="node12" class="node">
<title>Nightingale</title>
<ellipse fill="none" stroke="black" cx="848" cy="-90" rx="54.42" ry="18"/>
<text text-anchor="middle" x="848" y="-84.95" font-family="Times,serif" font-size="14.00">Nightingale</text>
</g>
<!-- Sense Danger&#45;&gt;Nightingale -->
<g id="edge7" class="edge">
<title>Sense Danger&#45;&gt;Nightingale</title>
<path fill="none" stroke="black" d="M893.47,-144.05C886.25,-135.63 877.38,-125.28 869.4,-115.97"/>
<polygon fill="black" stroke="black" points="871.55,-114.1 862.39,-108.79 866.24,-118.66 871.55,-114.1"/>
</g>
<!-- Watchdog -->
<g id="node13" class="node">
<title>Watchdog</title>
<ellipse fill="none" stroke="black" cx="969" cy="-90" rx="48.28" ry="18"/>
<text text-anchor="middle" x="969" y="-84.95" font-family="Times,serif" font-size="14.00">Watchdog</text>
</g>
<!-- Sense Danger&#45;&gt;Watchdog -->
<g id="edge8" class="edge">
<title>Sense Danger&#45;&gt;Watchdog</title>
<path fill="none" stroke="black" d="M922.76,-144.05C930.21,-135.5 939.39,-124.97 947.6,-115.56"/>
<polygon fill="black" stroke="black" points="950.86,-118.15 954.79,-108.31 945.58,-113.55 950.86,-118.15"/>
</g>
<!-- Teleport Shield -->
<g id="node17" class="node">
<title>Teleport Shield</title>
<ellipse fill="none" stroke="black" cx="844" cy="-18" rx="67.73" ry="18"/>
<text text-anchor="middle" x="844" y="-12.95" font-family="Times,serif" font-size="14.00">Teleport Shield</text>
</g>
<!-- Watchdog&#45;&gt;Teleport Shield -->
<g id="edge11" class="edge">
<title>Watchdog&#45;&gt;Teleport Shield</title>
<path fill="none" stroke="black" d="M943.1,-74.5C925.28,-64.52 901.32,-51.1 881.43,-39.96"/>
<polygon fill="black" stroke="black" points="883.47,-36.53 873.04,-34.7 880.05,-42.64 883.47,-36.53"/>
</g>
<!-- Mirror -->
<g id="node14" class="node">
<title>Mirror</title>
<ellipse fill="none" stroke="black" cx="1047" cy="-234" rx="36" ry="18"/>
<text text-anchor="middle" x="1047" y="-228.95" font-family="Times,serif" font-size="14.00">Mirror</text>
</g>
<!-- Reflect Gaze -->
<g id="node15" class="node">
<title>Reflect Gaze</title>
<ellipse fill="none" stroke="black" cx="1047" cy="-162" rx="59.03" ry="18"/>
<text text-anchor="middle" x="1047" y="-156.95" font-family="Times,serif" font-size="14.00">Reflect Gaze</text>
</g>
<!-- Mirror&#45;&gt;Reflect Gaze -->
<g id="edge9" class="edge">
<title>Mirror&#45;&gt;Reflect Gaze</title>
<path fill="none" stroke="black" d="M1047,-215.7C1047,-208.24 1047,-199.32 1047,-190.97"/>
<polygon fill="black" stroke="black" points="1050.5,-191.1 1047,-181.1 1043.5,-191.1 1050.5,-191.1"/>
</g>
<!-- Sense Foes -->
<g id="node16" class="node">
<title>Sense Foes</title>
<ellipse fill="none" stroke="black" cx="908" cy="-234" rx="52.38" ry="18"/>
<text text-anchor="middle" x="908" y="-228.95" font-family="Times,serif" font-size="14.00">Sense Foes</text>
</g>
<!-- Sense Foes&#45;&gt;Sense Danger -->
<g id="edge10" class="edge">
<title>Sense Foes&#45;&gt;Sense Danger</title>
<path fill="none" stroke="black" d="M908,-215.7C908,-208.24 908,-199.32 908,-190.97"/>
<polygon fill="black" stroke="black" points="911.5,-191.1 908,-181.1 904.5,-191.1 911.5,-191.1"/>
</g>
<!-- Spell Shield -->
<g id="node18" class="node">
<title>Spell Shield</title>
<ellipse fill="none" stroke="black" cx="720" cy="-90" rx="55.96" ry="18"/>
<text text-anchor="middle" x="720" y="-84.95" font-family="Times,serif" font-size="14.00">Spell Shield</text>
</g>
<!-- Spell Shield&#45;&gt;Teleport Shield -->
<g id="edge12" class="edge">
<title>Spell Shield&#45;&gt;Teleport Shield</title>
<path fill="none" stroke="black" d="M746.9,-73.81C764.45,-63.9 787.59,-50.84 806.88,-39.95"/>
<polygon fill="black" stroke="black" points="808.3,-42.61 815.28,-34.64 804.86,-36.51 808.3,-42.61"/>
</g>
</g>
</svg>
