<?xml version="1.0" encoding="UTF-8" standalone="no"?>
<!DOCTYPE svg PUBLIC "-//W3C//DTD SVG 1.1//EN"
 "http://www.w3.org/Graphics/SVG/1.1/DTD/svg11.dtd">
<!-- Generated by graphviz version 8.0.5 (20230430.1635)
 -->
<!-- Pages: 1 -->
<svg width="1128pt" height="260pt"
 viewBox="0.00 0.00 1127.78 260.00" xmlns="http://www.w3.org/2000/svg" xmlns:xlink="http://www.w3.org/1999/xlink">
<g id="graph0" class="graph" transform="scale(1 1) rotate(0) translate(4 256)">
<polygon fill="white" stroke="none" points="-4,4 -4,-256 1123.78,-256 1123.78,4 -4,4"/>
<!-- Voices -->
<g id="node1" class="node">
<title>Voices</title>
<ellipse fill="none" stroke="black" cx="528.24" cy="-162" rx="35.49" ry="18"/>
<text text-anchor="middle" x="528.24" y="-156.95" font-family="Times,serif" font-size="14.00">Voices</text>
</g>
<!-- Delayed Message -->
<g id="node2" class="node">
<title>Delayed Message</title>
<ellipse fill="none" stroke="black" cx="310.24" cy="-90" rx="76.94" ry="18"/>
<text text-anchor="middle" x="310.24" y="-84.95" font-family="Times,serif" font-size="14.00">Delayed Message</text>
</g>
<!-- Voices&#45;&gt;Delayed Message -->
<g id="edge1" class="edge">
<title>Voices&#45;&gt;Delayed Message</title>
<path fill="none" stroke="black" d="M498.84,-151.56C464.56,-140.55 407.17,-122.12 364.68,-108.48"/>
<polygon fill="black" stroke="black" points="365.82,-104.85 355.23,-105.12 363.68,-111.51 365.82,-104.85"/>
</g>
<!-- Garble -->
<g id="node3" class="node">
<title>Garble</title>
<ellipse fill="none" stroke="black" cx="531.24" cy="-90" rx="36" ry="18"/>
<text text-anchor="middle" x="531.24" y="-84.95" font-family="Times,serif" font-size="14.00">Garble</text>
</g>
<!-- Voices&#45;&gt;Garble -->
<g id="edge2" class="edge">
<title>Voices&#45;&gt;Garble</title>
<path fill="none" stroke="black" d="M528.98,-143.7C529.3,-136.24 529.68,-127.32 530.04,-118.97"/>
<polygon fill="black" stroke="black" points="533.58,-119.25 530.51,-109.1 526.58,-118.95 533.58,-119.25"/>
</g>
<!-- Great Voice -->
<g id="node4" class="node">
<title>Great Voice</title>
<ellipse fill="none" stroke="black" cx="639.24" cy="-90" rx="54.42" ry="18"/>
<text text-anchor="middle" x="639.24" y="-84.95" font-family="Times,serif" font-size="14.00">Great Voice</text>
</g>
<!-- Voices&#45;&gt;Great Voice -->
<g id="edge3" class="edge">
<title>Voices&#45;&gt;Great Voice</title>
<path fill="none" stroke="black" d="M549.91,-147.34C565.81,-137.31 587.71,-123.5 605.84,-112.06"/>
<polygon fill="black" stroke="black" points="607.34,-114.63 613.93,-106.33 603.6,-108.71 607.34,-114.63"/>
</g>
<!-- Silver Tongue -->
<g id="node5" class="node">
<title>Silver Tongue</title>
<ellipse fill="none" stroke="black" cx="779.24" cy="-90" rx="62.61" ry="18"/>
<text text-anchor="middle" x="779.24" y="-84.95" font-family="Times,serif" font-size="14.00">Silver Tongue</text>
</g>
<!-- Voices&#45;&gt;Silver Tongue -->
<g id="edge4" class="edge">
<title>Voices&#45;&gt;Silver Tongue</title>
<path fill="none" stroke="black" d="M555.68,-150.09C561.44,-147.95 567.51,-145.81 573.24,-144 622.31,-128.47 679.01,-114.14 720.48,-104.31"/>
<polygon fill="black" stroke="black" points="721.02,-107.54 729.95,-101.85 719.42,-100.73 721.02,-107.54"/>
</g>
<!-- Message -->
<g id="node15" class="node">
<title>Message</title>
<ellipse fill="none" stroke="black" cx="485.24" cy="-18" rx="43.67" ry="18"/>
<text text-anchor="middle" x="485.24" y="-12.95" font-family="Times,serif" font-size="14.00">Message</text>
</g>
<!-- Great Voice&#45;&gt;Message -->
<g id="edge12" class="edge">
<title>Great Voice&#45;&gt;Message</title>
<path fill="none" stroke="black" d="M608.08,-74.83C583.71,-63.76 549.73,-48.31 523.68,-36.47"/>
<polygon fill="black" stroke="black" points="525.31,-32.92 514.76,-31.96 522.42,-39.29 525.31,-32.92"/>
</g>
<!-- Sound Jet -->
<g id="node16" class="node">
<title>Sound Jet</title>
<ellipse fill="none" stroke="black" cx="639.24" cy="-18" rx="47.26" ry="18"/>
<text text-anchor="middle" x="639.24" y="-12.95" font-family="Times,serif" font-size="14.00">Sound Jet</text>
</g>
<!-- Great Voice&#45;&gt;Sound Jet -->
<g id="edge13" class="edge">
<title>Great Voice&#45;&gt;Sound Jet</title>
<path fill="none" stroke="black" d="M639.24,-71.7C639.24,-64.24 639.24,-55.32 639.24,-46.97"/>
<polygon fill="black" stroke="black" points="642.74,-47.1 639.24,-37.1 635.74,-47.1 642.74,-47.1"/>
</g>
<!-- Sense Life -->
<g id="node6" class="node">
<title>Sense Life</title>
<ellipse fill="none" stroke="black" cx="310.24" cy="-162" rx="50.33" ry="18"/>
<text text-anchor="middle" x="310.24" y="-156.95" font-family="Times,serif" font-size="14.00">Sense Life</text>
</g>
<!-- Sense Life&#45;&gt;Delayed Message -->
<g id="edge5" class="edge">
<title>Sense Life&#45;&gt;Delayed Message</title>
<path fill="none" stroke="black" d="M310.24,-143.7C310.24,-136.24 310.24,-127.32 310.24,-118.97"/>
<polygon fill="black" stroke="black" points="313.74,-119.1 310.24,-109.1 306.74,-119.1 313.74,-119.1"/>
</g>
<!-- 4 Sound -->
<g id="node7" class="node">
<title>4 Sound</title>
<ellipse fill="none" stroke="black" cx="993.24" cy="-234" rx="41.63" ry="18"/>
<text text-anchor="middle" x="993.24" y="-228.95" font-family="Times,serif" font-size="14.00">4 Sound</text>
</g>
<!-- Far&#45;Hearing -->
<g id="node8" class="node">
<title>Far&#45;Hearing</title>
<ellipse fill="none" stroke="black" cx="927.24" cy="-162" rx="55.96" ry="18"/>
<text text-anchor="middle" x="927.24" y="-156.95" font-family="Times,serif" font-size="14.00">Far&#45;Hearing</text>
</g>
<!-- 4 Sound&#45;&gt;Far&#45;Hearing -->
<g id="edge6" class="edge">
<title>4 Sound&#45;&gt;Far&#45;Hearing</title>
<path fill="none" stroke="black" d="M977.93,-216.76C969.72,-208.06 959.44,-197.15 950.28,-187.43"/>
<polygon fill="black" stroke="black" points="953.33,-185.51 943.92,-180.63 948.24,-190.31 953.33,-185.51"/>
</g>
<!-- Resist Sound -->
<g id="node9" class="node">
<title>Resist Sound</title>
<ellipse fill="none" stroke="black" cx="1060.24" cy="-162" rx="59.54" ry="18"/>
<text text-anchor="middle" x="1060.24" y="-156.95" font-family="Times,serif" font-size="14.00">Resist Sound</text>
</g>
<!-- 4 Sound&#45;&gt;Resist Sound -->
<g id="edge7" class="edge">
<title>4 Sound&#45;&gt;Resist Sound</title>
<path fill="none" stroke="black" d="M1008.44,-217.12C1016.77,-208.42 1027.27,-197.45 1036.64,-187.66"/>
<polygon fill="black" stroke="black" points="1038.78,-190.44 1043.16,-180.8 1033.72,-185.6 1038.78,-190.44"/>
</g>
<!-- Thunderclap -->
<g id="node10" class="node">
<title>Thunderclap</title>
<ellipse fill="none" stroke="black" cx="639.24" cy="-162" rx="57.49" ry="18"/>
<text text-anchor="middle" x="639.24" y="-156.95" font-family="Times,serif" font-size="14.00">Thunderclap</text>
</g>
<!-- Thunderclap&#45;&gt;Great Voice -->
<g id="edge8" class="edge">
<title>Thunderclap&#45;&gt;Great Voice</title>
<path fill="none" stroke="black" d="M639.24,-143.7C639.24,-136.24 639.24,-127.32 639.24,-118.97"/>
<polygon fill="black" stroke="black" points="642.74,-119.1 639.24,-109.1 635.74,-119.1 642.74,-119.1"/>
</g>
<!-- Silence -->
<g id="node11" class="node">
<title>Silence</title>
<ellipse fill="none" stroke="black" cx="185.24" cy="-162" rx="38.04" ry="18"/>
<text text-anchor="middle" x="185.24" y="-156.95" font-family="Times,serif" font-size="14.00">Silence</text>
</g>
<!-- Hush -->
<g id="node12" class="node">
<title>Hush</title>
<ellipse fill="none" stroke="black" cx="185.24" cy="-90" rx="30.37" ry="18"/>
<text text-anchor="middle" x="185.24" y="-84.95" font-family="Times,serif" font-size="14.00">Hush</text>
</g>
<!-- Silence&#45;&gt;Hush -->
<g id="edge9" class="edge">
<title>Silence&#45;&gt;Hush</title>
<path fill="none" stroke="black" d="M185.24,-143.7C185.24,-136.24 185.24,-127.32 185.24,-118.97"/>
<polygon fill="black" stroke="black" points="188.74,-119.1 185.24,-109.1 181.74,-119.1 188.74,-119.1"/>
</g>
<!-- Wall of Silence -->
<g id="node13" class="node">
<title>Wall of Silence</title>
<ellipse fill="none" stroke="black" cx="68.24" cy="-90" rx="68.24" ry="18"/>
<text text-anchor="middle" x="68.24" y="-84.95" font-family="Times,serif" font-size="14.00">Wall of Silence</text>
</g>
<!-- Silence&#45;&gt;Wall of Silence -->
<g id="edge10" class="edge">
<title>Silence&#45;&gt;Wall of Silence</title>
<path fill="none" stroke="black" d="M162.4,-147.34C145.79,-137.4 122.98,-123.75 103.96,-112.37"/>
<polygon fill="black" stroke="black" points="106.08,-108.96 95.7,-106.83 102.49,-114.97 106.08,-108.96"/>
</g>
<!-- Mage&#45;Stealth -->
<g id="node14" class="node">
<title>Mage&#45;Stealth</title>
<ellipse fill="none" stroke="black" cx="185.24" cy="-18" rx="61.08" ry="18"/>
<text text-anchor="middle" x="185.24" y="-12.95" font-family="Times,serif" font-size="14.00">Mage&#45;Stealth</text>
</g>
<!-- Hush&#45;&gt;Mage&#45;Stealth -->
<g id="edge11" class="edge">
<title>Hush&#45;&gt;Mage&#45;Stealth</title>
<path fill="none" stroke="black" d="M185.24,-71.7C185.24,-64.24 185.24,-55.32 185.24,-46.97"/>
<polygon fill="black" stroke="black" points="188.74,-47.1 185.24,-37.1 181.74,-47.1 188.74,-47.1"/>
</g>
<!-- Noise -->
<g id="node18" class="node">
<title>Noise</title>
<ellipse fill="none" stroke="black" cx="68.24" cy="-18" rx="32.41" ry="18"/>
<text text-anchor="middle" x="68.24" y="-12.95" font-family="Times,serif" font-size="14.00">Noise</text>
</g>
<!-- Wall of Silence&#45;&gt;Noise -->
<g id="edge15" class="edge">
<title>Wall of Silence&#45;&gt;Noise</title>
<path fill="none" stroke="black" d="M68.24,-71.7C68.24,-64.24 68.24,-55.32 68.24,-46.97"/>
<polygon fill="black" stroke="black" points="71.74,-47.1 68.24,-37.1 64.74,-47.1 71.74,-47.1"/>
</g>
<!-- Seeker -->
<g id="node17" class="node">
<title>Seeker</title>
<ellipse fill="none" stroke="black" cx="441.24" cy="-90" rx="36" ry="18"/>
<text text-anchor="middle" x="441.24" y="-84.95" font-family="Times,serif" font-size="14.00">Seeker</text>
</g>
<!-- Seeker&#45;&gt;Message -->
<g id="edge14" class="edge">
<title>Seeker&#45;&gt;Message</title>
<path fill="none" stroke="black" d="M451.67,-72.41C456.87,-64.13 463.29,-53.92 469.11,-44.66"/>
<polygon fill="black" stroke="black" points="472.53,-46.8 474.89,-36.47 466.6,-43.07 472.53,-46.8"/>
</g>
<!-- Sound -->
<g id="node19" class="node">
<title>Sound</title>
<ellipse fill="none" stroke="black" cx="528.24" cy="-234" rx="34.46" ry="18"/>
<text text-anchor="middle" x="528.24" y="-228.95" font-family="Times,serif" font-size="14.00">Sound</text>
</g>
<!-- Sound&#45;&gt;Voices -->
<g id="edge16" class="edge">
<title>Sound&#45;&gt;Voices</title>
<path fill="none" stroke="black" d="M528.24,-215.7C528.24,-208.24 528.24,-199.32 528.24,-190.97"/>
<polygon fill="black" stroke="black" points="531.74,-191.1 528.24,-181.1 524.74,-191.1 531.74,-191.1"/>
</g>
<!-- Sound&#45;&gt;Thunderclap -->
<g id="edge17" class="edge">
<title>Sound&#45;&gt;Thunderclap</title>
<path fill="none" stroke="black" d="M549.64,-219.5C565.42,-209.56 587.19,-195.83 605.32,-184.39"/>
<polygon fill="black" stroke="black" points="606.83,-186.95 613.42,-178.65 603.09,-181.03 606.83,-186.95"/>
</g>
<!-- Sound&#45;&gt;Silence -->
<g id="edge18" class="edge">
<title>Sound&#45;&gt;Silence</title>
<path fill="none" stroke="black" d="M495.69,-227.46C443.79,-218.47 339.15,-199.71 251.24,-180 243.79,-178.33 235.89,-176.42 228.26,-174.5"/>
<polygon fill="black" stroke="black" points="229.26,-170.89 218.71,-171.8 227.53,-177.67 229.26,-170.89"/>
</g>
<!-- 5 Mind Control -->
<g id="node20" class="node">
<title>5 Mind Control</title>
<ellipse fill="none" stroke="black" cx="784.24" cy="-162" rx="69.26" ry="18"/>
<text text-anchor="middle" x="784.24" y="-156.95" font-family="Times,serif" font-size="14.00">5 Mind Control</text>
</g>
<!-- 5 Mind Control&#45;&gt;Silver Tongue -->
<g id="edge19" class="edge">
<title>5 Mind Control&#45;&gt;Silver Tongue</title>
<path fill="none" stroke="black" d="M783.01,-143.7C782.47,-136.24 781.84,-127.32 781.24,-118.97"/>
<polygon fill="black" stroke="black" points="784.67,-118.83 780.46,-109.1 777.68,-119.33 784.67,-118.83"/>
</g>
</g>
</svg>
