<?xml version="1.0" encoding="UTF-8" standalone="no"?>
<!DOCTYPE svg PUBLIC "-//W3C//DTD SVG 1.1//EN"
 "http://www.w3.org/Graphics/SVG/1.1/DTD/svg11.dtd">
<!-- Generated by graphviz version 8.0.5 (20230430.1635)
 -->
<!-- Pages: 1 -->
<svg width="1294pt" height="404pt"
 viewBox="0.00 0.00 1294.10 404.00" xmlns="http://www.w3.org/2000/svg" xmlns:xlink="http://www.w3.org/1999/xlink">
<g id="graph0" class="graph" transform="scale(1 1) rotate(0) translate(4 400)">
<polygon fill="white" stroke="none" points="-4,4 -4,-400 1290.1,-400 1290.1,4 -4,4"/>
<!-- Create Air -->
<g id="node1" class="node">
<title>Create Air</title>
<ellipse fill="none" stroke="black" cx="63.63" cy="-162" rx="49.3" ry="18"/>
<text text-anchor="middle" x="63.63" y="-156.95" font-family="Times,serif" font-size="14.00">Create Air</text>
</g>
<!-- Breathe Water -->
<g id="node2" class="node">
<title>Breathe Water</title>
<ellipse fill="none" stroke="black" cx="63.63" cy="-90" rx="63.63" ry="18"/>
<text text-anchor="middle" x="63.63" y="-84.95" font-family="Times,serif" font-size="14.00">Breathe Water</text>
</g>
<!-- Create Air&#45;&gt;Breathe Water -->
<g id="edge1" class="edge">
<title>Create Air&#45;&gt;Breathe Water</title>
<path fill="none" stroke="black" d="M63.63,-143.7C63.63,-136.24 63.63,-127.32 63.63,-118.97"/>
<polygon fill="black" stroke="black" points="67.13,-119.1 63.63,-109.1 60.13,-119.1 67.13,-119.1"/>
</g>
<!-- Destroy Water -->
<g id="node3" class="node">
<title>Destroy Water</title>
<ellipse fill="none" stroke="black" cx="194.63" cy="-162" rx="64.15" ry="18"/>
<text text-anchor="middle" x="194.63" y="-156.95" font-family="Times,serif" font-size="14.00">Destroy Water</text>
</g>
<!-- Destroy Water&#45;&gt;Breathe Water -->
<g id="edge2" class="edge">
<title>Destroy Water&#45;&gt;Breathe Water</title>
<path fill="none" stroke="black" d="M165.89,-145.64C147.12,-135.61 122.39,-122.4 101.96,-111.48"/>
<polygon fill="black" stroke="black" points="103.79,-107.95 93.32,-106.33 100.49,-114.13 103.79,-107.95"/>
</g>
<!-- Dehydrate -->
<g id="node4" class="node">
<title>Dehydrate</title>
<ellipse fill="none" stroke="black" cx="194.63" cy="-90" rx="49.3" ry="18"/>
<text text-anchor="middle" x="194.63" y="-84.95" font-family="Times,serif" font-size="14.00">Dehydrate</text>
</g>
<!-- Destroy Water&#45;&gt;Dehydrate -->
<g id="edge3" class="edge">
<title>Destroy Water&#45;&gt;Dehydrate</title>
<path fill="none" stroke="black" d="M194.63,-143.7C194.63,-136.24 194.63,-127.32 194.63,-118.97"/>
<polygon fill="black" stroke="black" points="198.13,-119.1 194.63,-109.1 191.13,-119.1 198.13,-119.1"/>
</g>
<!-- Cold -->
<g id="node5" class="node">
<title>Cold</title>
<ellipse fill="none" stroke="black" cx="536.63" cy="-90" rx="28.83" ry="18"/>
<text text-anchor="middle" x="536.63" y="-84.95" font-family="Times,serif" font-size="14.00">Cold</text>
</g>
<!-- Coolness -->
<g id="node6" class="node">
<title>Coolness</title>
<ellipse fill="none" stroke="black" cx="512.63" cy="-18" rx="44.7" ry="18"/>
<text text-anchor="middle" x="512.63" y="-12.95" font-family="Times,serif" font-size="14.00">Coolness</text>
</g>
<!-- Cold&#45;&gt;Coolness -->
<g id="edge4" class="edge">
<title>Cold&#45;&gt;Coolness</title>
<path fill="none" stroke="black" d="M530.83,-72.05C528.21,-64.43 525.06,-55.23 522.11,-46.65"/>
<polygon fill="black" stroke="black" points="525.11,-45.6 518.56,-37.28 518.49,-47.87 525.11,-45.6"/>
</g>
<!-- Frostbite -->
<g id="node7" class="node">
<title>Frostbite</title>
<ellipse fill="none" stroke="black" cx="618.63" cy="-18" rx="43.67" ry="18"/>
<text text-anchor="middle" x="618.63" y="-12.95" font-family="Times,serif" font-size="14.00">Frostbite</text>
</g>
<!-- Cold&#45;&gt;Frostbite -->
<g id="edge5" class="edge">
<title>Cold&#45;&gt;Frostbite</title>
<path fill="none" stroke="black" d="M553.23,-74.83C564.44,-65.27 579.47,-52.43 592.3,-41.48"/>
<polygon fill="black" stroke="black" points="594.02,-43.76 599.35,-34.61 589.48,-38.44 594.02,-43.76"/>
</g>
<!-- Purify Water -->
<g id="node8" class="node">
<title>Purify Water</title>
<ellipse fill="none" stroke="black" cx="722.63" cy="-306" rx="58" ry="18"/>
<text text-anchor="middle" x="722.63" y="-300.95" font-family="Times,serif" font-size="14.00">Purify Water</text>
</g>
<!-- Create Water -->
<g id="node9" class="node">
<title>Create Water</title>
<ellipse fill="none" stroke="black" cx="722.63" cy="-234" rx="59.03" ry="18"/>
<text text-anchor="middle" x="722.63" y="-228.95" font-family="Times,serif" font-size="14.00">Create Water</text>
</g>
<!-- Purify Water&#45;&gt;Create Water -->
<g id="edge6" class="edge">
<title>Purify Water&#45;&gt;Create Water</title>
<path fill="none" stroke="black" d="M722.63,-287.7C722.63,-280.24 722.63,-271.32 722.63,-262.97"/>
<polygon fill="black" stroke="black" points="726.13,-263.1 722.63,-253.1 719.13,-263.1 726.13,-263.1"/>
</g>
<!-- Create Water&#45;&gt;Destroy Water -->
<g id="edge8" class="edge">
<title>Create Water&#45;&gt;Destroy Water</title>
<path fill="none" stroke="black" d="M665.95,-228.47C579.58,-221.1 410.03,-204.79 267.63,-180 262.4,-179.09 256.98,-178.04 251.56,-176.91"/>
<polygon fill="black" stroke="black" points="252.72,-173.36 242.21,-174.67 251.24,-180.2 252.72,-173.36"/>
</g>
<!-- Icy Weapon -->
<g id="node11" class="node">
<title>Icy Weapon</title>
<ellipse fill="none" stroke="black" cx="1229.63" cy="-162" rx="54.93" ry="18"/>
<text text-anchor="middle" x="1229.63" y="-156.95" font-family="Times,serif" font-size="14.00">Icy Weapon</text>
</g>
<!-- Create Water&#45;&gt;Icy Weapon -->
<g id="edge9" class="edge">
<title>Create Water&#45;&gt;Icy Weapon</title>
<path fill="none" stroke="black" d="M779.67,-228.76C864.41,-221.87 1028.32,-206.32 1165.63,-180 1170.02,-179.16 1174.54,-178.18 1179.06,-177.13"/>
<polygon fill="black" stroke="black" points="1179.66,-180.34 1188.55,-174.57 1178,-173.54 1179.66,-180.34"/>
</g>
<!-- Shape Water -->
<g id="node12" class="node">
<title>Shape Water</title>
<ellipse fill="none" stroke="black" cx="722.63" cy="-162" rx="57.49" ry="18"/>
<text text-anchor="middle" x="722.63" y="-156.95" font-family="Times,serif" font-size="14.00">Shape Water</text>
</g>
<!-- Create Water&#45;&gt;Shape Water -->
<g id="edge10" class="edge">
<title>Create Water&#45;&gt;Shape Water</title>
<path fill="none" stroke="black" d="M722.63,-215.7C722.63,-208.24 722.63,-199.32 722.63,-190.97"/>
<polygon fill="black" stroke="black" points="726.13,-191.1 722.63,-181.1 719.13,-191.1 726.13,-191.1"/>
</g>
<!-- 5 Water -->
<g id="node10" class="node">
<title>5 Water</title>
<ellipse fill="none" stroke="black" cx="316.63" cy="-162" rx="39.58" ry="18"/>
<text text-anchor="middle" x="316.63" y="-156.95" font-family="Times,serif" font-size="14.00">5 Water</text>
</g>
<!-- 5 Water&#45;&gt;Dehydrate -->
<g id="edge7" class="edge">
<title>5 Water&#45;&gt;Dehydrate</title>
<path fill="none" stroke="black" d="M292.82,-147.34C274.83,-137.01 249.84,-122.68 229.58,-111.05"/>
<polygon fill="black" stroke="black" points="231.49,-107.53 221.07,-105.59 228,-113.61 231.49,-107.53"/>
</g>
<!-- Icy Missiles -->
<g id="node22" class="node">
<title>Icy Missiles</title>
<ellipse fill="none" stroke="black" cx="1229.63" cy="-90" rx="56.47" ry="18"/>
<text text-anchor="middle" x="1229.63" y="-84.95" font-family="Times,serif" font-size="14.00">Icy Missiles</text>
</g>
<!-- Icy Weapon&#45;&gt;Icy Missiles -->
<g id="edge20" class="edge">
<title>Icy Weapon&#45;&gt;Icy Missiles</title>
<path fill="none" stroke="black" d="M1229.63,-143.7C1229.63,-136.24 1229.63,-127.32 1229.63,-118.97"/>
<polygon fill="black" stroke="black" points="1233.13,-119.1 1229.63,-109.1 1226.13,-119.1 1233.13,-119.1"/>
</g>
<!-- Freeze -->
<g id="node13" class="node">
<title>Freeze</title>
<ellipse fill="none" stroke="black" cx="618.63" cy="-90" rx="35.49" ry="18"/>
<text text-anchor="middle" x="618.63" y="-84.95" font-family="Times,serif" font-size="14.00">Freeze</text>
</g>
<!-- Shape Water&#45;&gt;Freeze -->
<g id="edge11" class="edge">
<title>Shape Water&#45;&gt;Freeze</title>
<path fill="none" stroke="black" d="M699.04,-145.12C684.01,-135 664.41,-121.81 648.33,-110.99"/>
<polygon fill="black" stroke="black" points="650.58,-107.61 640.33,-104.93 646.67,-113.41 650.58,-107.61"/>
</g>
<!-- Ice Sphere -->
<g id="node14" class="node">
<title>Ice Sphere</title>
<ellipse fill="none" stroke="black" cx="722.63" cy="-90" rx="50.33" ry="18"/>
<text text-anchor="middle" x="722.63" y="-84.95" font-family="Times,serif" font-size="14.00">Ice Sphere</text>
</g>
<!-- Shape Water&#45;&gt;Ice Sphere -->
<g id="edge12" class="edge">
<title>Shape Water&#45;&gt;Ice Sphere</title>
<path fill="none" stroke="black" d="M722.63,-143.7C722.63,-136.24 722.63,-127.32 722.63,-118.97"/>
<polygon fill="black" stroke="black" points="726.13,-119.1 722.63,-109.1 719.13,-119.1 726.13,-119.1"/>
</g>
<!-- Resist Water -->
<g id="node15" class="node">
<title>Resist Water</title>
<ellipse fill="none" stroke="black" cx="999.63" cy="-90" rx="57.49" ry="18"/>
<text text-anchor="middle" x="999.63" y="-84.95" font-family="Times,serif" font-size="14.00">Resist Water</text>
</g>
<!-- Shape Water&#45;&gt;Resist Water -->
<g id="edge13" class="edge">
<title>Shape Water&#45;&gt;Resist Water</title>
<path fill="none" stroke="black" d="M766.48,-149.95C808.97,-139.24 875.22,-122.53 932.63,-108 936.89,-106.92 941.29,-105.81 945.72,-104.69"/>
<polygon fill="black" stroke="black" points="946.19,-107.92 955.03,-102.07 944.47,-101.14 946.19,-107.92"/>
</g>
<!-- Swim -->
<g id="node16" class="node">
<title>Swim</title>
<ellipse fill="none" stroke="black" cx="1107.63" cy="-90" rx="32.93" ry="18"/>
<text text-anchor="middle" x="1107.63" y="-84.95" font-family="Times,serif" font-size="14.00">Swim</text>
</g>
<!-- Shape Water&#45;&gt;Swim -->
<g id="edge14" class="edge">
<title>Shape Water&#45;&gt;Swim</title>
<path fill="none" stroke="black" d="M769.31,-151.15C781.74,-148.67 795.17,-146.11 807.63,-144 921.78,-124.64 953.8,-137.95 1065.63,-108 1067.92,-107.39 1070.25,-106.69 1072.57,-105.92"/>
<polygon fill="black" stroke="black" points="1073.45,-108.97 1081.66,-102.28 1071.07,-102.38 1073.45,-108.97"/>
</g>
<!-- Walk on Water -->
<g id="node17" class="node">
<title>Walk on Water</title>
<ellipse fill="none" stroke="black" cx="857.63" cy="-90" rx="66.19" ry="18"/>
<text text-anchor="middle" x="857.63" y="-84.95" font-family="Times,serif" font-size="14.00">Walk on Water</text>
</g>
<!-- Shape Water&#45;&gt;Walk on Water -->
<g id="edge15" class="edge">
<title>Shape Water&#45;&gt;Walk on Water</title>
<path fill="none" stroke="black" d="M751.6,-145.98C770.99,-135.93 796.77,-122.56 818.06,-111.52"/>
<polygon fill="black" stroke="black" points="819.52,-114.19 826.79,-106.48 816.3,-107.97 819.52,-114.19"/>
</g>
<!-- Water Jet -->
<g id="node18" class="node">
<title>Water Jet</title>
<ellipse fill="none" stroke="black" cx="307.63" cy="-90" rx="45.72" ry="18"/>
<text text-anchor="middle" x="307.63" y="-84.95" font-family="Times,serif" font-size="14.00">Water Jet</text>
</g>
<!-- Shape Water&#45;&gt;Water Jet -->
<g id="edge16" class="edge">
<title>Shape Water&#45;&gt;Water Jet</title>
<path fill="none" stroke="black" d="M668.49,-155.65C597.62,-148.06 469.84,-132.31 362.63,-108 359.22,-107.23 355.72,-106.35 352.2,-105.4"/>
<polygon fill="black" stroke="black" points="353.32,-101.8 342.74,-102.43 351.4,-108.53 353.32,-101.8"/>
</g>
<!-- Water Vision -->
<g id="node19" class="node">
<title>Water Vision</title>
<ellipse fill="none" stroke="black" cx="430.63" cy="-90" rx="59.03" ry="18"/>
<text text-anchor="middle" x="430.63" y="-84.95" font-family="Times,serif" font-size="14.00">Water Vision</text>
</g>
<!-- Shape Water&#45;&gt;Water Vision -->
<g id="edge17" class="edge">
<title>Shape Water&#45;&gt;Water Vision</title>
<path fill="none" stroke="black" d="M677.55,-150.51C632.28,-139.93 560.57,-123.07 498.63,-108 494.5,-106.99 490.22,-105.94 485.92,-104.88"/>
<polygon fill="black" stroke="black" points="486.79,-101.24 476.24,-102.24 485.1,-108.04 486.79,-101.24"/>
</g>
<!-- Freeze&#45;&gt;Frostbite -->
<g id="edge18" class="edge">
<title>Freeze&#45;&gt;Frostbite</title>
<path fill="none" stroke="black" d="M618.63,-71.7C618.63,-64.24 618.63,-55.32 618.63,-46.97"/>
<polygon fill="black" stroke="black" points="622.13,-47.1 618.63,-37.1 615.13,-47.1 622.13,-47.1"/>
</g>
<!-- Ice Sphere or Water Jet -->
<g id="node20" class="node">
<title>Ice Sphere or Water Jet</title>
<ellipse fill="none" stroke="black" cx="890.63" cy="-378" rx="97.41" ry="18"/>
<text text-anchor="middle" x="890.63" y="-372.95" font-family="Times,serif" font-size="14.00">Ice Sphere or Water Jet</text>
</g>
<!-- Ice Dagger -->
<g id="node21" class="node">
<title>Ice Dagger</title>
<ellipse fill="none" stroke="black" cx="890.63" cy="-306" rx="51.86" ry="18"/>
<text text-anchor="middle" x="890.63" y="-300.95" font-family="Times,serif" font-size="14.00">Ice Dagger</text>
</g>
<!-- Ice Sphere or Water Jet&#45;&gt;Ice Dagger -->
<g id="edge19" class="edge">
<title>Ice Sphere or Water Jet&#45;&gt;Ice Dagger</title>
<path fill="none" stroke="black" d="M890.63,-359.7C890.63,-352.24 890.63,-343.32 890.63,-334.97"/>
<polygon fill="black" stroke="black" points="894.13,-335.1 890.63,-325.1 887.13,-335.1 894.13,-335.1"/>
</g>
<!-- Seek Water -->
<g id="node23" class="node">
<title>Seek Water</title>
<ellipse fill="none" stroke="black" cx="722.63" cy="-378" rx="52.89" ry="18"/>
<text text-anchor="middle" x="722.63" y="-372.95" font-family="Times,serif" font-size="14.00">Seek Water</text>
</g>
<!-- Seek Water&#45;&gt;Purify Water -->
<g id="edge21" class="edge">
<title>Seek Water&#45;&gt;Purify Water</title>
<path fill="none" stroke="black" d="M722.63,-359.7C722.63,-352.24 722.63,-343.32 722.63,-334.97"/>
<polygon fill="black" stroke="black" points="726.13,-335.1 722.63,-325.1 719.13,-335.1 726.13,-335.1"/>
</g>
<!-- Destroy Water or Umbrella -->
<g id="node24" class="node">
<title>Destroy Water or Umbrella</title>
<ellipse fill="none" stroke="black" cx="928.63" cy="-162" rx="112.26" ry="18"/>
<text text-anchor="middle" x="928.63" y="-156.95" font-family="Times,serif" font-size="14.00">Destroy Water or Umbrella</text>
</g>
<!-- Destroy Water or Umbrella&#45;&gt;Resist Water -->
<g id="edge22" class="edge">
<title>Destroy Water or Umbrella&#45;&gt;Resist Water</title>
<path fill="none" stroke="black" d="M945.82,-144.05C954.67,-135.33 965.61,-124.54 975.31,-114.98"/>
<polygon fill="black" stroke="black" points="977.43,-117.82 982.09,-108.31 972.52,-112.84 977.43,-117.82"/>
</g>
<!-- Levitation -->
<g id="node25" class="node">
<title>Levitation</title>
<ellipse fill="none" stroke="black" cx="1107.63" cy="-162" rx="48.79" ry="18"/>
<text text-anchor="middle" x="1107.63" y="-156.95" font-family="Times,serif" font-size="14.00">Levitation</text>
</g>
<!-- Levitation&#45;&gt;Swim -->
<g id="edge23" class="edge">
<title>Levitation&#45;&gt;Swim</title>
<path fill="none" stroke="black" d="M1107.63,-143.7C1107.63,-136.24 1107.63,-127.32 1107.63,-118.97"/>
<polygon fill="black" stroke="black" points="1111.13,-119.1 1107.63,-109.1 1104.13,-119.1 1111.13,-119.1"/>
</g>
<!-- Shape Water or Shield -->
<g id="node26" class="node">
<title>Shape Water or Shield</title>
<ellipse fill="none" stroke="black" cx="1099.63" cy="-378" rx="93.83" ry="18"/>
<text text-anchor="middle" x="1099.63" y="-372.95" font-family="Times,serif" font-size="14.00">Shape Water or Shield</text>
</g>
<!-- Umbrella -->
<g id="node27" class="node">
<title>Umbrella</title>
<ellipse fill="none" stroke="black" cx="1099.63" cy="-306" rx="46.23" ry="18"/>
<text text-anchor="middle" x="1099.63" y="-300.95" font-family="Times,serif" font-size="14.00">Umbrella</text>
</g>
<!-- Shape Water or Shield&#45;&gt;Umbrella -->
<g id="edge24" class="edge">
<title>Shape Water or Shield&#45;&gt;Umbrella</title>
<path fill="none" stroke="black" d="M1099.63,-359.7C1099.63,-352.24 1099.63,-343.32 1099.63,-334.97"/>
<polygon fill="black" stroke="black" points="1103.13,-335.1 1099.63,-325.1 1096.13,-335.1 1103.13,-335.1"/>
</g>
</g>
</svg>
