<?xml version="1.0" encoding="UTF-8" standalone="no"?>
<!DOCTYPE svg PUBLIC "-//W3C//DTD SVG 1.1//EN"
 "http://www.w3.org/Graphics/SVG/1.1/DTD/svg11.dtd">
<!-- Generated by graphviz version 8.0.5 (20230430.1635)
 -->
<!-- Pages: 1 -->
<svg width="1107pt" height="260pt"
 viewBox="0.00 0.00 1107.14 260.00" xmlns="http://www.w3.org/2000/svg" xmlns:xlink="http://www.w3.org/1999/xlink">
<g id="graph0" class="graph" transform="scale(1 1) rotate(0) translate(4 256)">
<polygon fill="white" stroke="none" points="-4,4 -4,-256 1103.14,-256 1103.14,4 -4,4"/>
<!-- Lightning -->
<g id="node1" class="node">
<title>Lightning</title>
<ellipse fill="none" stroke="black" cx="602.8" cy="-162" rx="47.26" ry="18"/>
<text text-anchor="middle" x="602.8" y="-156.95" font-family="Times,serif" font-size="14.00">Lightning</text>
</g>
<!-- Explosive Lightning -->
<g id="node2" class="node">
<title>Explosive Lightning</title>
<ellipse fill="none" stroke="black" cx="418.8" cy="-90" rx="86.67" ry="18"/>
<text text-anchor="middle" x="418.8" y="-84.95" font-family="Times,serif" font-size="14.00">Explosive Lightning</text>
</g>
<!-- Lightning&#45;&gt;Explosive Lightning -->
<g id="edge1" class="edge">
<title>Lightning&#45;&gt;Explosive Lightning</title>
<path fill="none" stroke="black" d="M570.33,-148.65C542.31,-137.99 501.37,-122.41 469.11,-110.14"/>
<polygon fill="black" stroke="black" points="470.56,-106.57 459.97,-106.28 468.07,-113.11 470.56,-106.57"/>
</g>
<!-- Lightning Weapon -->
<g id="node3" class="node">
<title>Lightning Weapon</title>
<ellipse fill="none" stroke="black" cx="602.8" cy="-90" rx="79.5" ry="18"/>
<text text-anchor="middle" x="602.8" y="-84.95" font-family="Times,serif" font-size="14.00">Lightning Weapon</text>
</g>
<!-- Lightning&#45;&gt;Lightning Weapon -->
<g id="edge2" class="edge">
<title>Lightning&#45;&gt;Lightning Weapon</title>
<path fill="none" stroke="black" d="M602.8,-143.7C602.8,-136.24 602.8,-127.32 602.8,-118.97"/>
<polygon fill="black" stroke="black" points="606.3,-119.1 602.8,-109.1 599.3,-119.1 606.3,-119.1"/>
</g>
<!-- Shocking Touch -->
<g id="node4" class="node">
<title>Shocking Touch</title>
<ellipse fill="none" stroke="black" cx="70.8" cy="-90" rx="70.8" ry="18"/>
<text text-anchor="middle" x="70.8" y="-84.95" font-family="Times,serif" font-size="14.00">Shocking Touch</text>
</g>
<!-- Lightning&#45;&gt;Shocking Touch -->
<g id="edge3" class="edge">
<title>Lightning&#45;&gt;Shocking Touch</title>
<path fill="none" stroke="black" d="M557.05,-157.05C475.23,-149.67 298.54,-132.31 150.8,-108 145.02,-107.05 139.03,-105.96 133.04,-104.81"/>
<polygon fill="black" stroke="black" points="133.8,-101.2 123.31,-102.68 132.43,-108.06 133.8,-101.2"/>
</g>
<!-- Spark Cloud -->
<g id="node5" class="node">
<title>Spark Cloud</title>
<ellipse fill="none" stroke="black" cx="757.8" cy="-90" rx="57.49" ry="18"/>
<text text-anchor="middle" x="757.8" y="-84.95" font-family="Times,serif" font-size="14.00">Spark Cloud</text>
</g>
<!-- Lightning&#45;&gt;Spark Cloud -->
<g id="edge4" class="edge">
<title>Lightning&#45;&gt;Spark Cloud</title>
<path fill="none" stroke="black" d="M632.32,-147.67C656.07,-136.94 689.74,-121.73 716.23,-109.77"/>
<polygon fill="black" stroke="black" points="717.32,-112.67 724.99,-105.37 714.44,-106.29 717.32,-112.67"/>
</g>
<!-- Spark Storm -->
<g id="node6" class="node">
<title>Spark Storm</title>
<ellipse fill="none" stroke="black" cx="890.8" cy="-90" rx="58" ry="18"/>
<text text-anchor="middle" x="890.8" y="-84.95" font-family="Times,serif" font-size="14.00">Spark Storm</text>
</g>
<!-- Lightning&#45;&gt;Spark Storm -->
<g id="edge5" class="edge">
<title>Lightning&#45;&gt;Spark Storm</title>
<path fill="none" stroke="black" d="M642.36,-151.68C686.61,-141.21 760.4,-123.64 823.8,-108 828.06,-106.95 832.47,-105.85 836.9,-104.74"/>
<polygon fill="black" stroke="black" points="837.37,-107.98 846.21,-102.15 835.66,-101.19 837.37,-107.98"/>
</g>
<!-- Wall of Lightning -->
<g id="node7" class="node">
<title>Wall of Lightning</title>
<ellipse fill="none" stroke="black" cx="236.8" cy="-90" rx="77.45" ry="18"/>
<text text-anchor="middle" x="236.8" y="-84.95" font-family="Times,serif" font-size="14.00">Wall of Lightning</text>
</g>
<!-- Lightning&#45;&gt;Wall of Lightning -->
<g id="edge6" class="edge">
<title>Lightning&#45;&gt;Wall of Lightning</title>
<path fill="none" stroke="black" d="M561.03,-153.2C506.3,-142.96 407.32,-124.35 322.8,-108 316.87,-106.85 310.7,-105.65 304.52,-104.44"/>
<polygon fill="black" stroke="black" points="305.64,-100.9 295.15,-102.4 304.29,-107.76 305.64,-100.9"/>
</g>
<!-- Lightning Missiles -->
<g id="node10" class="node">
<title>Lightning Missiles</title>
<ellipse fill="none" stroke="black" cx="602.8" cy="-18" rx="81.04" ry="18"/>
<text text-anchor="middle" x="602.8" y="-12.95" font-family="Times,serif" font-size="14.00">Lightning Missiles</text>
</g>
<!-- Lightning Weapon&#45;&gt;Lightning Missiles -->
<g id="edge9" class="edge">
<title>Lightning Weapon&#45;&gt;Lightning Missiles</title>
<path fill="none" stroke="black" d="M602.8,-71.7C602.8,-64.24 602.8,-55.32 602.8,-46.97"/>
<polygon fill="black" stroke="black" points="606.3,-47.1 602.8,-37.1 599.3,-47.1 606.3,-47.1"/>
</g>
<!-- 6 Air -->
<g id="node8" class="node">
<title>6 Air</title>
<ellipse fill="none" stroke="black" cx="810.8" cy="-234" rx="29.86" ry="18"/>
<text text-anchor="middle" x="810.8" y="-228.95" font-family="Times,serif" font-size="14.00">6 Air</text>
</g>
<!-- 6 Air&#45;&gt;Lightning -->
<g id="edge7" class="edge">
<title>6 Air&#45;&gt;Lightning</title>
<path fill="none" stroke="black" d="M785.3,-224.42C751.09,-212.91 689.81,-192.28 647.77,-178.13"/>
<polygon fill="black" stroke="black" points="649.12,-174.56 638.53,-174.69 646.89,-181.19 649.12,-174.56"/>
</g>
<!-- Resist Lightning -->
<g id="node9" class="node">
<title>Resist Lightning</title>
<ellipse fill="none" stroke="black" cx="1026.8" cy="-162" rx="72.34" ry="18"/>
<text text-anchor="middle" x="1026.8" y="-156.95" font-family="Times,serif" font-size="14.00">Resist Lightning</text>
</g>
<!-- 6 Air&#45;&gt;Resist Lightning -->
<g id="edge8" class="edge">
<title>6 Air&#45;&gt;Resist Lightning</title>
<path fill="none" stroke="black" d="M836.85,-224.56C870.54,-213.64 930.04,-194.36 973.49,-180.28"/>
<polygon fill="black" stroke="black" points="974.45,-183.32 982.89,-176.91 972.3,-176.66 974.45,-183.32"/>
</g>
<!-- Shape Air -->
<g id="node11" class="node">
<title>Shape Air</title>
<ellipse fill="none" stroke="black" cx="757.8" cy="-162" rx="47.77" ry="18"/>
<text text-anchor="middle" x="757.8" y="-156.95" font-family="Times,serif" font-size="14.00">Shape Air</text>
</g>
<!-- Shape Air&#45;&gt;Spark Cloud -->
<g id="edge10" class="edge">
<title>Shape Air&#45;&gt;Spark Cloud</title>
<path fill="none" stroke="black" d="M757.8,-143.7C757.8,-136.24 757.8,-127.32 757.8,-118.97"/>
<polygon fill="black" stroke="black" points="761.3,-119.1 757.8,-109.1 754.3,-119.1 761.3,-119.1"/>
</g>
<!-- Windstorm -->
<g id="node12" class="node">
<title>Windstorm</title>
<ellipse fill="none" stroke="black" cx="883.8" cy="-162" rx="52.89" ry="18"/>
<text text-anchor="middle" x="883.8" y="-156.95" font-family="Times,serif" font-size="14.00">Windstorm</text>
</g>
<!-- Windstorm&#45;&gt;Spark Storm -->
<g id="edge11" class="edge">
<title>Windstorm&#45;&gt;Spark Storm</title>
<path fill="none" stroke="black" d="M885.53,-143.7C886.28,-136.24 887.17,-127.32 888,-118.97"/>
<polygon fill="black" stroke="black" points="891.58,-119.4 889.09,-109.1 884.61,-118.71 891.58,-119.4"/>
</g>
</g>
</svg>
